<?xml version="1.0" standalone="no"?>
<!DOCTYPE svg PUBLIC "-//W3C//DTD SVG 1.1//EN" "http://www.w3.org/Graphics/SVG/1.1/DTD/svg11.dtd" >
<svg>
<metadata>
Created by FontForge 20090622 at Thu Apr 27 07:47:21 2017
 By deploy user
(c) Copyright 2005 by Tong Duc Thinh. All Rights Reserved
</metadata>
<defs>
<font id="SFUGlytus" horiz-adv-x="599" >
  <font-face 
    font-family="SFU Glytus"
    font-weight="400"
    font-stretch="normal"
    units-per-em="1157"
    panose-1="0 0 4 0 0 0 0 0 0 0"
    ascent="925"
    descent="-232"
    x-height="560"
    cap-height="769"
    bbox="-47 -193 1174 1401"
    underline-thickness="62"
    underline-position="-81"
    unicode-range="U+0020-U+F002"
  />
<missing-glyph horiz-adv-x="579" 
d="M72 0v1312h434v-1312h-434zM145 72h289v1168h-289v-1168z" />
    <glyph glyph-name=".notdef" horiz-adv-x="579" 
d="M72 0v1312h434v-1312h-434zM145 72h289v1168h-289v-1168z" />
    <glyph glyph-name=".null" horiz-adv-x="0" 
 />
    <glyph glyph-name="glyph2" horiz-adv-x="347" 
 />
    <glyph glyph-name="space" unicode=" " horiz-adv-x="347" 
 />
    <glyph glyph-name="exclam" unicode="!" horiz-adv-x="420" 
d="M265 772l-19 -590h-70l-22 590h111zM261 0h-101v100h101v-100z" />
    <glyph glyph-name="quotedbl" unicode="&#x22;" horiz-adv-x="390" 
d="M334 772l-15 -309h-71l-15 309h101zM159 772l-17 -309h-71l-15 309h103z" />
    <glyph glyph-name="numbersign" unicode="#" horiz-adv-x="779" 
d="M733 754q-1 8 -11.5 23t-10.5 25q0 19 16 34t35 15q21 0 36.5 -15.5t15.5 -36.5q0 -28 -34 -50q-16 -10 -68 -34q-11 -5 -46 -16v-385q0 -139 -47 -211q-75 -116 -224 -117q-150 -1 -230 104q-54 71 -54 196v413h-95v69h306v-69h-116v-422q0 -94 45 -151q49 -62 141 -64
q98 -2 148 73q43 64 43 167v397h-113v69q38 1 106 -4q51 -4 106 -10q50 -5 42 -5q10 0 9 5zM444 -148h-94v92l45 2l49 -2v-92z" />
    <glyph glyph-name="dollar" unicode="$" 
d="M547 206q0 -77 -42.5 -133.5t-116.5 -78.5v-118h-49v111q-10 0 -17 -1q-22 0 -47 5q-2 0 -5 1v-116h-49v132q-67 39 -88 76v-84h-76v220h76q0 -42 25 -80.5t63 -55.5v292q-3 0 -8 3l-67 32q-36 18 -57 45q-38 48 -39 121q-2 160 171 197v113h49v-107q10 0 18 1
q27 0 51 -7v113h49v-129q41 -18 67 -60v71h76v-212h-76q0 92 -67 129v-279q159 -58 159 -201zM339 426v280q-24 7 -57 7h-12v-261q7 -2 60 -23q3 0 9 -3zM221 473v232q-37 -10 -58.5 -43.5t-21.5 -73.5q-1 -80 80 -115zM456 190q1 84 -68 119v-240q67 35 68 121zM339 58v273
q-7 4 -64 25q-2 0 -5 3v-293q15 -8 52 -9q7 0 17 1z" />
    <glyph glyph-name="percent" unicode="%" horiz-adv-x="959" 
d="M422 587q0 -205 -130 -206q-137 -1 -137 202q0 205 135 205q132 0 132 -201zM708 788l-405 -805h-51l405 805h51zM805 194q0 -205 -130 -206q-137 -2 -137 203t135 205q132 0 132 -202zM367 585q1 161 -78 162q-76 1 -77 -163q-1 -161 77 -162q77 -1 78 163zM750 193
q1 161 -78 162q-76 1 -77 -163q-1 -161 77 -162q77 -1 78 163z" />
    <glyph glyph-name="ampersand" unicode="&#x26;" horiz-adv-x="839" 
d="M780 0h-171l-71 89q-69 -105 -239 -105q-140 0 -202 95q-36 55 -36 135q-1 148 160 225q-23 17 -51 55q-46 63 -47 125q-1 84 57 129q52 41 138 41q185 0 186 -171q0 -65 -42.5 -119.5t-105.5 -78.5l185 -212q32 85 43 178h-84v70h264v-70h-98q-12 -120 -64 -230l68 -84
h110v-72zM414 622q0 99 -98 100q-42 0 -71 -27.5t-29 -69.5q0 -47 50 -106q10 -11 38 -45q57 41 76 61q34 37 34 87zM482 142l-205 235q-116 -61 -117 -165q-1 -65 38 -110q41 -48 105 -48q67 0 126 40q15 10 53 48z" />
    <glyph glyph-name="quotesingle" unicode="'" horiz-adv-x="215" 
d="M161 772l-15 -309h-75l-15 309h105z" />
    <glyph glyph-name="parenleft" unicode="(" horiz-adv-x="360" 
d="M289 -139h-81q-73 101 -115 236q-42 132 -43 259q-1 126 42 262.5t116 235.5h81q-33 -45 -67 -119q-80 -174 -80 -376q0 -157 56 -320q31 -89 87 -170q1 -3 4 -8z" />
    <glyph glyph-name="parenright" unicode=")" horiz-adv-x="360" 
d="M289 356q1 -122 -43 -259.5t-116 -235.5h-80q1 4 22 33q58 83 93 224q31 126 32 241q1 219 -102 422q-26 51 -45 73h80q75 -102 117 -237q41 -130 42 -261z" />
    <glyph glyph-name="asterisk" unicode="*" horiz-adv-x="479" 
d="M413 599l-117 -25h-24q1 -2 18 -16l80 -101l-69 -47l-53 118q-5 12 -7 20q-4 -12 -8 -20l-59 -118l-69 53l86 95q4 5 14 16h-15l-124 30l28 83l111 -62q5 -3 15 -11l-4 20l-18 138h85l-17 -136q0 -8 -5 -22l18 12l110 55z" />
    <glyph glyph-name="plus" unicode="+" horiz-adv-x="579" 
d="M553 370h-237v-223h-53v223h-238v51h238v223h53v-223h237v-51z" />
    <glyph glyph-name="comma" unicode="," horiz-adv-x="299" 
d="M204 0l-49 -154h-64l50 154h-50v106h113v-106z" />
    <glyph glyph-name="hyphen" unicode="-" horiz-adv-x="360" 
d="M308 283h-256v80h256v-80z" />
    <glyph glyph-name="hyphen" unicode="&#x2010;" horiz-adv-x="360" 
d="M308 283h-256v80h256v-80z" />
    <glyph glyph-name="period" unicode="." horiz-adv-x="300" 
d="M204 0h-110v108h110v-108z" />
    <glyph glyph-name="slash" unicode="/" horiz-adv-x="379" 
d="M375 782l-307 -796h-65l307 796h65z" />
    <glyph glyph-name="zero" unicode="0" 
d="M546 382q0 -397 -251 -397q-138 0 -199 139q-44 100 -44 258q0 405 248 406q246 1 246 -406zM450 384q0 333 -149 334q-152 1 -152 -325q0 -335 152 -336q149 -1 149 327z" />
    <glyph glyph-name="one" unicode="1" 
d="M486 0h-318v71h115v607q-69 -79 -171 -150v97q94 71 167 147h98v-701h109v-71z" />
    <glyph glyph-name="two" unicode="2" 
d="M530 0h-477v115l172 164q87 88 123 135q70 92 71 162q1 56 -33.5 96t-89.5 40q-64 0 -102 -50q-33 -43 -38 -111h-97q3 106 64.5 170.5t166.5 64.5q102 0 163.5 -53t62.5 -153t-84 -196q-5 -5 -139 -148q-15 -16 -168 -165q12 3 37 3h283v124h85v-198z" />
    <glyph glyph-name="three" unicode="3" 
d="M531 202q0 -102 -66 -160q-62 -55 -166 -56q-162 -1 -220 120q-18 38 -20 108h97q4 -68 39 -108q38 -44 104 -45q61 -1 99 43q37 41 37 103q1 146 -176 151v72q58 0 85 10q38 14 61 54q22 37 22 79q0 63 -34.5 102t-96.5 39q-61 0 -97.5 -42.5t-37.5 -104.5h-96
q4 65 22 102q57 118 214 118q100 0 160 -56t60 -155q0 -152 -160 -184q170 -21 170 -190z" />
    <glyph glyph-name="four" unicode="4" 
d="M554 206h-107v-135h98v-71h-303v71h117v135h-329v104l302 462h115v-495h107v-71zM359 277v409l-261 -409h261z" />
    <glyph glyph-name="five" unicode="5" 
d="M546 244q0 -117 -61 -185q-63 -71 -178 -72q-98 -1 -162 52q-67 57 -67 154v13h96q0 -62 37.5 -104t98.5 -42q74 0 111 61q31 50 31 129q0 71 -35 118q-38 52 -107 53q-92 1 -134 -97q0 -3 -2 -7h-92l14 455h418v-73h-334l-11 -302q37 97 161 98q105 1 163 -75
q53 -68 53 -176z" />
    <glyph glyph-name="six" unicode="6" 
d="M543 248q2 -115 -58 -186q-63 -76 -176 -76q-247 0 -247 380q0 170 48 276q66 145 215 146q137 1 184 -105q21 -48 21 -85v-7h-94q-10 125 -106 125q-91 0 -140 -114q-32 -74 -35 -239q21 60 68 95t110 35q104 0 159 -73q50 -65 51 -172zM448 242q1 72 -29 121
q-35 58 -103 58q-70 0 -111 -56q-37 -50 -37 -123q0 -78 31 -126q37 -58 111 -59q72 -1 108 59q29 48 30 126z" />
    <glyph glyph-name="seven" unicode="7" 
d="M552 690q-112 -244 -151 -343q-35 -89 -120 -347h-103q118 344 287 694h-322v-134h-84v212h493v-82z" />
    <glyph glyph-name="eight" unicode="8" 
d="M538 208q1 -106 -63.5 -164t-171.5 -58q-110 0 -173 54q-67 57 -68 166q-2 162 164 194q-153 30 -153 180q0 101 64 156q60 52 163 52q99 0 162 -52q68 -56 68 -153q0 -146 -154 -183q161 -27 162 -192zM437 584q1 62 -37 98t-101 38q-59 1 -97.5 -38.5t-38.5 -98.5
q0 -148 137 -150q135 -2 137 151zM444 215q1 69 -37.5 110.5t-107.5 42.5q-68 1 -105.5 -42t-37.5 -112t37.5 -113t105.5 -45q71 -1 109 45q35 42 36 114z" />
    <glyph glyph-name="nine" unicode="9" 
d="M537 408q0 -170 -48 -276q-66 -145 -215 -146q-134 -1 -184 105q-21 45 -21 85v7h94q11 -125 110 -126q162 -1 171 354q-21 -59 -68.5 -94.5t-109.5 -35.5q-104 0 -159 73q-49 65 -50 172q-1 116 57 186q62 76 176 76q247 0 247 -380zM432 532q1 74 -33 125
q-39 59 -110 60q-70 1 -106 -60q-30 -50 -31 -125q-1 -73 28 -121q34 -58 103 -58q70 0 111 56q37 50 38 123z" />
    <glyph glyph-name="colon" unicode=":" horiz-adv-x="420" 
d="M264 355h-110v110h110v-110zM264 0h-110v108h110v-108z" />
    <glyph glyph-name="semicolon" unicode=";" horiz-adv-x="299" 
d="M204 433h-113v105h113v-105zM204 0l-49 -154h-64l50 154h-50v106h113v-106z" />
    <glyph glyph-name="less" unicode="&#x3c;" horiz-adv-x="579" 
d="M539 108l-501 239v82l501 239v-96l-398 -184l398 -184v-96z" />
    <glyph glyph-name="equal" unicode="=" horiz-adv-x="579" 
d="M553 452h-528v50h528v-50zM553 289h-528v50h528v-50z" />
    <glyph glyph-name="greater" unicode="&#x3e;" horiz-adv-x="579" 
d="M540 346l-501 -238v96l398 184l-398 185v95l501 -239v-83z" />
    <glyph glyph-name="question" unicode="?" horiz-adv-x="539" 
d="M486 581q1 -105 -95 -190l-44 -39q-38 -34 -50 -79q-6 -23 -9 -95h-97q0 76 15 120q18 53 68 100l44 42q37 35 51 63q16 32 17 79q1 58 -32 94t-90 37q-106 1 -124 -139h-97q13 210 222 210q99 0 158 -51q62 -54 63 -152zM288 0h-101v100h101v-100z" />
    <glyph glyph-name="at" unicode="@" horiz-adv-x="779" 
d="M762 699h-96v-385q0 -139 -47 -211q-75 -116 -224 -117q-150 -1 -230 104q-54 71 -54 196v413h-95v69h306v-69h-116v-422q0 -94 45 -151q49 -62 141 -64q98 -2 148 73q43 64 43 167v397h-113v69h292v-69zM539 906l-117 -118h-50l88 126h79v-8z" />
    <glyph glyph-name="A" unicode="A" horiz-adv-x="839" 
d="M820 0h-285v71h104l-66 187h-317l-66 -187h105v-71h-280v71h80l267 701h111l267 -701h80v-71zM543 329l-129 359l-129 -359h258z" />
    <glyph glyph-name="B" unicode="B" horiz-adv-x="720" 
d="M642 212q0 -106 -67 -161q-62 -51 -170 -51h-373v69h110v630h-110v70h374q215 0 215 -195q0 -153 -152 -170q173 -12 173 -192zM529 569q0 108 -94 126q-21 4 -66 4h-135v-269h128q167 0 167 139zM547 221q1 141 -161 141h-152v-289h144q168 0 169 148z" />
    <glyph glyph-name="C" unicode="C" horiz-adv-x="779" 
d="M717 259q-2 -129 -89 -202q-82 -70 -213 -71q-180 -1 -269 116q-80 105 -80 290q0 173 82 276q89 113 258 113q171 0 228 -123v111h78v-273h-83q-24 210 -214 211q-132 1 -194 -100q-51 -82 -52 -223q-1 -136 51 -220q62 -101 191 -102q185 -2 208 197h98z" />
    <glyph glyph-name="D" unicode="D" horiz-adv-x="779" 
d="M723 385q0 -225 -140 -325q-84 -60 -266 -60h-289v69h109v632h-109v68h312q383 0 383 -384zM624 389q1 135 -69 219q-74 90 -207 90h-118v-625h97q294 0 297 316z" />
    <glyph glyph-name="E" unicode="E" horiz-adv-x="720" 
d="M648 0h-617v71h110v629h-110v69h611v-230h-81v158h-326v-271h160v117h77v-304h-77v116h-160v-281h330v165h83v-239z" />
    <glyph glyph-name="F" unicode="F" horiz-adv-x="659" 
d="M617 536h-82v161h-309v-284h153v113h77v-299h-77v114h-153v-270h127v-71h-330v71h109v629h-109v69h594v-233z" />
    <glyph glyph-name="G" unicode="G" horiz-adv-x="839" 
d="M812 311h-98v-311h-88v120q-23 -67 -95 -102q-60 -30 -139 -31q-73 -1 -141 32.5t-112 91.5q-77 101 -77 273q0 174 81 279q89 117 258 118q174 1 219 -122v109h85v-270h-85q-2 97 -60 153t-155 57q-121 1 -185 -101q-54 -85 -55 -214q-1 -139 49 -224q61 -105 191 -107
q96 -1 159 69q62 67 62 164v16h-118v70h304v-70z" />
    <glyph glyph-name="H" unicode="H" horiz-adv-x="839" 
d="M806 0h-311v71h109v281h-369v-281h110v-71h-311v71h107v631h-107v70h311v-70h-110v-274h369v274h-109v70h311v-70h-108v-631h108v-71z" />
    <glyph glyph-name="I" unicode="I" horiz-adv-x="360" 
d="M336 0h-311v69h108v631h-108v69h311v-69h-108v-631h108v-69z" />
    <glyph glyph-name="J" unicode="J" horiz-adv-x="539" 
d="M524 700h-85v-447q0 -129 -34 -182q-54 -84 -177 -84q-206 0 -206 222v29h99q0 -4 2 -9v-16q0 -151 112 -152q110 -1 110 184v455h-114v69h293v-69z" />
    <glyph glyph-name="K" unicode="K" horiz-adv-x="720" 
d="M712 0h-285v69h92l-283 341v-341h105v-69h-309v69h110v632h-110v70h309v-70h-105v-291l279 291h-95v70h267v-70h-53l-285 -291l290 -341h73v-69z" />
    <glyph glyph-name="L" unicode="L" horiz-adv-x="659" 
d="M617 0h-586v69h111v631h-111v69h335v-69h-130v-625h294v177h87v-252z" />
    <glyph glyph-name="M" unicode="M" horiz-adv-x="1019" 
d="M986 0h-301v71h99v634h-6l-231 -705h-84l-229 705h-7v-634h99v-71h-294v71h111v630h-111v68h276l193 -632q0 -11 8 -47q3 26 9 52l26 77l11 39l158 511h273v-68h-110v-630h110v-71z" />
    <glyph glyph-name="N" unicode="N" horiz-adv-x="839" 
d="M809 695h-106v-701h-122l-309 591l-53 110l9 -631h105v-70h-302v70h110v631h-110v70h247l300 -578q20 -39 43 -112l-2 620h-109v70h299v-70z" />
    <glyph glyph-name="O" unicode="O" horiz-adv-x="839" 
d="M778 395q0 -181 -86 -289q-93 -118 -270 -119q-178 -1 -273 118q-87 108 -88 291q-1 174 91 283q97 116 268 117q172 1 268 -117q90 -109 90 -284zM676 398q1 139 -58 226q-68 101 -201 101t-198 -103q-55 -86 -56 -227q-1 -140 55 -229q66 -106 199 -107q136 -1 203 106
q55 89 56 233z" />
    <glyph glyph-name="P" unicode="P" horiz-adv-x="659" 
d="M621 546q0 -231 -247 -231h-140v-246h130v-69h-333v69h110v631h-110v68h354q111 0 173.5 -56t62.5 -166zM526 541q1 156 -172 156h-120v-311h130q161 0 162 155z" />
    <glyph glyph-name="Q" unicode="Q" horiz-adv-x="839" 
d="M790 0h-99q8 0 -13 0q-21 1 -50 1h-34q-83 0 -115 -2q-3 0 -13 -1h-8q10 0 -11 -1.5t-32 -1.5l-54 -2q-157 -6 -249 122q-82 114 -82 275q0 168 90 278q97 118 262 118q167 0 261 -116q87 -107 88 -278q1 -150 -78 -262q-26 -37 -83 -70q68 13 130 13h90v-73zM632 397
q1 127 -59 216q-68 103 -189 104q-126 1 -194 -103q-59 -89 -60 -221q-1 -135 55 -223q66 -104 194 -105q125 -1 194 108q58 91 59 224z" />
    <glyph glyph-name="R" unicode="R" horiz-adv-x="720" 
d="M702 0h-157l-69 241q-28 98 -130 98h-117v-270h103v-69h-307v69h109v632h-109v68h346q247 0 247 -203q0 -176 -162 -197q50 -9 75 -36q22 -23 37 -76l53 -188h81v-69zM522 553q1 145 -147 145h-146v-288h115q177 0 178 143z" />
    <glyph glyph-name="S" unicode="S" 
d="M555 205q0 -102 -62.5 -160t-165.5 -58q-159 0 -193 110v-97h-82v258h82q1 -87 43 -140q46 -58 131 -58q67 0 107.5 35.5t41.5 101.5q1 54 -34 87q-25 24 -85 46l-96 36q-106 40 -139 68q-53 46 -53 136q0 100 67 156q62 53 164 54q130 1 173 -96v84h83v-252h-83
q-4 192 -166 193q-60 0 -100 -34t-41 -93q-1 -55 32 -83q20 -17 84 -41l121 -45q86 -32 124 -74q47 -50 47 -134z" />
    <glyph glyph-name="T" unicode="T" horiz-adv-x="720" 
d="M675 525h-86v166h-182v-622h119v-69h-332v69h120v622h-182v-166h-86v242h629v-242z" />
    <glyph glyph-name="U" unicode="U" horiz-adv-x="779" 
d="M762 699h-96v-385q0 -139 -47 -211q-75 -116 -224 -117q-150 -1 -230 104q-54 71 -54 196v413h-95v69h306v-69h-116v-422q0 -94 45 -151q49 -62 141 -64q98 -2 148 73q43 64 43 167v397h-113v69h292v-69z" />
    <glyph glyph-name="V" unicode="V" horiz-adv-x="779" 
d="M764 700h-63l-256 -700h-109l-256 700h-63v69h277v-69h-114l195 -548q6 -17 18 -65q6 23 20 63l193 550h-113v69h271v-69z" />
    <glyph glyph-name="W" unicode="W" horiz-adv-x="1078" 
d="M1063 700h-62l-160 -700h-127l-156 619l-20 87q-4 -37 -17 -88l-157 -618h-128l-158 700h-62v69h269v-69h-111l115 -532q3 -16 16 -81q0 7 19 82l152 600h135l151 -601l19 -87v6q3 19 6 28q5 30 10 53l116 532h-111v69h261v-69z" />
    <glyph glyph-name="X" unicode="X" horiz-adv-x="779" 
d="M764 0h-278v56h105l-212 292l-210 -292h106v-56h-261v59h62l255 338l-237 313h-62v59h268v-54h-99l196 -271l194 271h-98v54h253v-59h-63l-238 -313l256 -338h63v-59z" />
    <glyph glyph-name="Y" unicode="Y" horiz-adv-x="720" 
d="M705 701h-61l-239 -384v-246h119v-71h-332v71h119v246l-237 384h-58v68h271v-68h-104l181 -301l179 301h-101v68h263v-68z" />
    <glyph glyph-name="Z" unicode="Z" horiz-adv-x="659" 
d="M612 0h-568v83l454 626h-366v-177h-78v237h546v-79l-459 -631h392v189h79v-248z" />
    <glyph glyph-name="bracketleft" unicode="[" horiz-adv-x="360" 
d="M263 -140h-166v994h166v-60h-83v-875h83v-59z" />
    <glyph glyph-name="backslash" unicode="\" horiz-adv-x="779" 
d="M733 754q-1 8 -11.5 23t-10.5 25q0 19 16 34t35 15q21 0 36.5 -15.5t15.5 -36.5q0 -28 -34 -50q-16 -10 -68 -34q-11 -5 -46 -16v-385q0 -139 -47 -211q-75 -116 -224 -117q-150 -1 -230 104q-54 71 -54 196v413h-95v69h306v-69h-116v-422q0 -94 45 -151q49 -62 141 -64
q98 -2 148 73q43 64 43 167v397h-113v69q38 1 106 -4q51 -4 106 -10q50 -5 42 -5q10 0 9 5zM420 788h-50l-117 118v8h79z" />
    <glyph glyph-name="bracketright" unicode="]" horiz-adv-x="360" 
d="M263 -140h-166v59h82v875h-82v60h166v-994z" />
    <glyph glyph-name="asciicircum" unicode="^" horiz-adv-x="779" 
d="M733 754q-1 8 -11.5 23t-10.5 25q0 19 16 34t35 15q21 0 36.5 -15.5t15.5 -36.5q0 -28 -34 -50q-16 -10 -68 -34q-11 -5 -46 -16v-385q0 -139 -47 -211q-75 -116 -224 -117q-150 -1 -230 104q-54 71 -54 196v413h-95v69h306v-69h-116v-422q0 -94 45 -151q49 -62 141 -64
q98 -2 148 73q43 64 43 167v397h-113v69q38 1 106 -4q51 -4 106 -10q50 -5 42 -5q10 0 9 5zM403 843l15 14q17 16 21 25q4 6 6 25q0 44 -42 45q-38 1 -46 -49l-24 10q6 71 77 71q73 0 75 -68q1 -34 -32 -65l-15 -14q-20 -19 -20 -59h-43q0 39 28 65z" />
    <glyph glyph-name="underscore" unicode="_" horiz-adv-x="579" 
d="M578 -143h-578v62h578v-62z" />
    <glyph glyph-name="grave" unicode="`" horiz-adv-x="779" 
d="M733 754q-1 8 -11.5 23t-10.5 25q0 19 16 34t35 15q21 0 36.5 -15.5t15.5 -36.5q0 -28 -34 -50q-16 -10 -68 -34q-11 -5 -46 -16v-385q0 -139 -47 -211q-75 -116 -224 -117q-150 -1 -230 104q-54 71 -54 196v413h-95v69h306v-69h-116v-422q0 -94 45 -151q49 -62 141 -64
q98 -2 148 73q43 64 43 167v397h-113v69q38 1 106 -4q51 -4 106 -10q50 -5 42 -5q10 0 9 5zM539 906l-117 -118h-50l88 126h79v-8z" />
    <glyph glyph-name="a" unicode="a" 
d="M577 0h-167v124q-38 -132 -182 -132q-178 0 -179 171q-1 105 83 147q60 29 177 30q32 0 95 -3q0 90 -14 118q-30 59 -117 60q-106 1 -117 -112h-91q12 177 213 177q115 0 172 -66q38 -44 38 -152v-294h89v-68zM404 274q-28 5 -70 5q-89 1 -130 -16q-64 -26 -65 -100
q-1 -107 105 -107q80 0 125 71q27 43 35 147z" />
    <glyph glyph-name="b" unicode="b" horiz-adv-x="659" 
d="M616 287q0 -129 -51 -207q-60 -92 -182 -93q-144 -1 -189 133v-120h-171v67h89v639h-89v68h176v-327q11 55 68 92q53 34 112 34q121 0 183 -86q54 -74 54 -200zM524 281q0 91 -37 152q-44 73 -129 74q-81 1 -126 -72q-38 -61 -38 -147q0 -93 35 -155q43 -77 129 -77
t130 73q36 60 36 152z" />
    <glyph glyph-name="c" unicode="c" horiz-adv-x="539" 
d="M509 185q-3 -90 -64.5 -143.5t-152.5 -54.5q-122 -1 -190 90q-61 81 -62 208q-1 119 58 199q65 89 181 90q53 0 97.5 -28t59.5 -76v89h68v-208h-68q0 63 -39 107.5t-101 45.5q-82 1 -125 -71q-35 -59 -36 -147q-1 -90 35 -152q43 -76 127 -76q101 0 132 127h80z" />
    <glyph glyph-name="d" unicode="d" horiz-adv-x="659" 
d="M639 0h-174v119q-15 -62 -68 -97q-48 -32 -115 -32q-118 -1 -180 86q-55 76 -55 199q0 129 50 206q60 92 183 93q59 0 109 -32t71 -86v251h-90v66h178v-707h91v-66zM465 278q0 91 -35 153q-43 77 -128 77q-162 0 -164 -220q-1 -96 33 -156q42 -75 131 -76q82 -1 126 73
q37 61 37 149z" />
    <glyph glyph-name="e" unicode="e" 
d="M553 263h-408q0 -90 40 -146q46 -65 132 -66q58 -1 98 32.5t50 90.5h81q-8 -89 -78 -141q-64 -48 -156 -48q-128 0 -196 86q-61 77 -62 209q-1 131 62 211q68 87 196 87q240 0 241 -315zM462 327q-4 79 -38 129q-40 59 -114 60q-137 1 -162 -189h314z" />
    <glyph glyph-name="f" unicode="f" horiz-adv-x="360" 
d="M377 698q-30 4 -76 9q-56 1 -76.5 -22t-20.5 -80v-50h119v-64h-119v-432h107v-65h-284v65h89v432h-95v64h95v59q0 167 176 167q54 0 85 -10v-73z" />
    <glyph glyph-name="g" unicode="g" horiz-adv-x="659" 
d="M635 496h-89v-452q0 -115 -68 -175q-64 -57 -181 -58q-201 -2 -224 149h96q11 -84 128 -85q118 -1 151 82q14 35 14 149v26q-39 -123 -188 -124q-114 -1 -176 87q-55 77 -56 195q-1 127 51 201q59 85 182 86q66 1 118 -32q58 -36 69 -98v115h173v-66zM460 290
q1 103 -40 155q-52 66 -126 66q-81 0 -124 -70q-36 -58 -37 -145q-1 -89 34 -149q42 -72 125 -73q85 -1 129 68q38 58 39 148z" />
    <glyph glyph-name="h" unicode="h" horiz-adv-x="659" 
d="M640 0h-266v67h90v302q0 142 -105 142q-150 0 -150 -187v-257h90v-67h-268v67h90v640h-90v65h178v-314q25 116 170 117q79 1 126 -42t47 -122v-344h88v-67z" />
    <glyph glyph-name="i" unicode="i" horiz-adv-x="319" 
d="M299 0h-261v67h88v429h-88v66h177v-495h84v-67zM220 611h-99v93h99v-93z" />
    <glyph glyph-name="j" unicode="j" horiz-adv-x="300" 
d="M216 678h-97v91h97v-91zM211 -9q0 -102 -22 -134q-32 -47 -120 -48q-11 0 -68 7v68q26 -4 53 -5q45 -1 60 31q9 19 9 73v511h-89v66h177v-569z" />
    <glyph glyph-name="k" unicode="k" 
d="M583 0h-225v66h68l-124 235l-96 -97v-138h77v-66h-255v66h90v641h-90v65h178v-486l198 213h-82v63h250v-63h-73l-135 -143l160 -290h59v-66z" />
    <glyph glyph-name="l" unicode="l" horiz-adv-x="300" 
d="M286 0h-263v66h89v641h-89v65h178v-706h85v-66z" />
    <glyph glyph-name="m" unicode="m" horiz-adv-x="959" 
d="M936 0h-257v66h87v289q0 149 -104 149q-129 0 -129 -178v-260h86v-66h-264v66h89v296q0 146 -103 146q-76 0 -113 -76q-19 -39 -19 -128v-238h88v-66h-265v66h91v430h-91v66h170v-120q29 131 167 132q139 1 156 -127q5 58 55 93q45 32 106 33q82 1 127 -54
q42 -51 42 -135v-318h81v-66z" />
    <glyph glyph-name="n" unicode="n" horiz-adv-x="659" 
d="M643 0h-260v67h86v303q0 137 -114 138q-72 1 -109 -58q-31 -49 -31 -125v-258h88v-67h-266v67h91v429h-91v66h172v-114q11 61 63 95q46 30 112 31q77 1 125 -44t48 -122v-341h86v-67z" />
    <glyph glyph-name="o" unicode="o" 
d="M559 281q0 -123 -65 -205q-71 -88 -191 -89q-130 -1 -200 90q-62 82 -63 216q-1 124 67 204q72 84 194 84q126 0 195 -89q63 -81 63 -211zM465 288q0 90 -37 152q-44 75 -128 75q-87 0 -131 -76q-37 -63 -37 -156q0 -89 38 -152q44 -75 127 -77q87 -2 132 77
q36 63 36 157z" />
    <glyph glyph-name="p" unicode="p" horiz-adv-x="659" 
d="M614 287q0 -128 -51 -204q-60 -91 -182 -92q-146 -1 -183 137v-241h91v-65h-266v65h89v609h-89v66h175v-134q11 69 60.5 108t120.5 40q121 1 182 -87q53 -76 53 -202zM525 282q0 90 -35 152q-43 77 -126 77q-87 0 -129 -72q-35 -59 -36 -152q-1 -95 32 -154
q41 -75 129 -76q84 -1 129 73q36 62 36 152z" />
    <glyph glyph-name="q" unicode="q" horiz-adv-x="659" 
d="M635 -178h-268v65h90v238q-36 -132 -182 -133q-122 -1 -181 91q-49 76 -50 205q-1 124 54 201q62 87 182 87q67 0 116 -35t66 -99v120h173v-63h-90v-612h90v-65zM463 285q0 93 -35 152q-42 72 -129 73q-163 2 -166 -231q-1 -89 36 -149q43 -71 127 -72q87 -1 131 73
q36 61 36 154z" />
    <glyph glyph-name="r" unicode="r" horiz-adv-x="420" 
d="M404 492q-18 3 -40 3q-80 0 -119 -60q-34 -51 -34 -135v-234h106v-66h-283v66h90v432h-90v64h172v-127q19 136 161 139q14 0 37 -4v-78z" />
    <glyph glyph-name="s" unicode="s" horiz-adv-x="539" 
d="M480 167q0 -87 -57 -134q-52 -43 -142 -45q-102 -2 -154 99v-87h-68v194h68q0 -135 130 -138q46 -1 86 27q45 30 46 74q1 41 -25 59q-20 18 -86 29l-62 10q-78 13 -112 43q-40 35 -40 110q0 81 58 126q52 41 135 42q110 1 147 -92v78h66v-184h-66q0 8 1 14q0 56 -38.5 87
t-95.5 31q-122 1 -122 -92q0 -43 26 -63q20 -15 66 -22l64 -10q175 -27 175 -156z" />
    <glyph glyph-name="t" unicode="t" horiz-adv-x="399" 
d="M374 172q0 -86 -23 -121q-39 -59 -115 -59q-136 0 -134 164l4 342h-99v64h99v111l88 33v-144h159v-64h-159l-3 -343q-1 -97 57 -97q38 0 49 44q3 12 8 70h69z" />
    <glyph glyph-name="u" unicode="u" horiz-adv-x="659" 
d="M631 0h-174v124q-9 -67 -59 -103q-46 -33 -116 -33q-172 0 -172 216v294h-88v64h177v-357q0 -149 108 -151q75 -1 114 67q31 56 31 137v240h-94v64h182v-494h91v-68z" />
    <glyph glyph-name="v" unicode="v" 
d="M583 496h-55l-173 -496h-111l-171 496h-57v66h240v-66h-91l93 -288l26 -77q14 -45 18 -79q9 53 23 91q10 25 35 99l80 254h-91v66h234v-66z" />
    <glyph glyph-name="w" unicode="w" horiz-adv-x="959" 
d="M943 498h-66l-142 -498h-113l-115 403q-21 74 -26 103q-6 -41 -25 -105l-117 -401h-111l-147 498h-64v64h251v-64h-93l78 -290q21 -78 35 -149q3 35 37 153l101 350h118l103 -353q26 -90 36 -150q0 5 10 61q0 6 23 91l78 287h-94v64h243v-64z" />
    <glyph glyph-name="x" unicode="x" 
d="M589 0h-220v52h76l-153 204l-154 -204h73v-52h-206v56h49l185 236l-167 216h-53v54h217v-51h-68l139 -185l138 185h-68v51h205v-54h-56l-168 -216l181 -236h50v-56z" />
    <glyph glyph-name="y" unicode="y" 
d="M583 496h-48l-189 -513q-32 -87 -59 -120q-41 -50 -116 -50q-44 0 -66 7v71q36 -8 56 -8q37 -1 54 19q12 10 28 46q15 33 18 51l-188 497h-53v64h238v-64h-87l128 -355q10 -28 10 -46q3 21 18 64l116 337h-88v64h228v-64z" />
    <glyph glyph-name="z" unicode="z" horiz-adv-x="539" 
d="M487 0h-434v81l322 417h-237v-114h-78v178h420v-78l-321 -417h252v126h76v-193z" />
    <glyph glyph-name="braceleft" unicode="{" horiz-adv-x="598" 
d="M460 501h-112v106l49 154h63l-49 -154h49v-106zM257 501h-112v106l48 154h64l-50 -154h50v-106z" />
    <glyph glyph-name="bar" unicode="|" horiz-adv-x="779" 
d="M762 699h-96v-385q0 -139 -47 -211q-75 -116 -224 -117q-150 -1 -230 104q-54 71 -54 196v413h-95v69h306v-69h-116v-422q0 -94 45 -151q49 -62 141 -64q98 -2 148 73q43 64 43 167v397h-113v69h292v-69zM444 -148h-94v92l45 2l49 -2v-92z" />
    <glyph glyph-name="braceright" unicode="}" 
d="M452 679l-49 -141h-64l51 141h-37v101h99v-101zM248 679l-49 -141h-65l52 141h-37v101h99v-101z" />
    <glyph glyph-name="asciitilde" unicode="~" horiz-adv-x="779" 
d="M733 754q-1 8 -11.5 23t-10.5 25q0 19 16 34t35 15q21 0 36.5 -15.5t15.5 -36.5q0 -28 -34 -50q-16 -10 -68 -34q-11 -5 -46 -16v-385q0 -139 -47 -211q-75 -116 -224 -117q-150 -1 -230 104q-54 71 -54 196v413h-95v69h306v-69h-116v-422q0 -94 45 -151q49 -62 141 -64
q98 -2 148 73q43 64 43 167v397h-113v69q38 1 106 -4q51 -4 106 -10q50 -5 42 -5q10 0 9 5zM541 894q-9 -33 -36 -60q-30 -30 -62 -31q-15 0 -24 5q-7 1 -48 29q-5 3 -29 8q-34 -1 -53 -47h-35q10 36 36 62q30 30 64 31q18 1 26 -4l46 -26q21 -12 32 -12q26 1 47 45h36z" />
    <glyph glyph-name="dagger" unicode="&#x2020;" 
d="M577 0h-167v124q-38 -132 -182 -132q-178 0 -179 171q-1 105 83 147q60 29 177 30q32 0 95 -3q0 90 -14 118q-30 59 -117 60q-106 1 -117 -112h-91q12 177 213 177q115 0 172 -66q38 -44 38 -152v-294h89v-68zM404 274q-28 5 -70 5q-89 1 -130 -16q-64 -26 -65 -100
q-1 -107 105 -107q80 0 125 71q27 43 35 147zM407 600h-52l-77 93l-75 -93h-51l92 124h72zM537 811l-117 -118h-50l88 126h79v-8z" />
    <glyph glyph-name="cent" unicode="&#xa2;" horiz-adv-x="839" 
d="M820 0h-285v71h104l-66 187h-317l-66 -187h105v-71h-280v71h80l267 701h111l267 -701h80v-71zM543 329l-129 359l-129 -359h258zM543 792h-52l-77 93l-75 -93h-51l92 124h72z" />
    <glyph glyph-name="sterling" unicode="&#xa3;" horiz-adv-x="720" 
d="M648 0h-617v71h110v629h-110v69h611v-230h-81v158h-326v-271h160v117h77v-304h-77v116h-160v-281h330v165h83v-239zM464 790h-52l-77 93l-75 -93h-51l92 124h72z" />
    <glyph glyph-name="section" unicode="&#xa7;" horiz-adv-x="839" 
d="M778 395q0 -181 -86 -289q-93 -118 -270 -119q-178 -1 -273 118q-87 108 -88 291q-1 174 91 283q97 116 268 117q172 1 268 -117q90 -109 90 -284zM676 398q1 139 -58 226q-68 101 -201 101t-198 -103q-55 -86 -56 -227q-1 -140 55 -229q66 -106 199 -107q136 -1 203 106
q55 89 56 233zM549 812h-52l-77 93l-75 -93h-51l92 124h72z" />
    <glyph glyph-name="bullet" unicode="&#x2022;" horiz-adv-x="839" 
d="M676 398q1 139 -58 226q-68 101 -201 101t-198 -103q-55 -86 -56 -227q-1 -140 55 -229q66 -106 199 -107q136 -1 203 106q55 89 56 233zM571 767q64 -17 93 -17q11 0 10 4q-1 8 -11.5 23.5t-10.5 24.5q0 19 16 34t35 15q23 0 38 -16.5t15 -39.5q0 -49 -103 -80
q16 -16 27 -28q98 -107 98 -292q0 -181 -86 -289q-93 -118 -270 -119q-178 -1 -273 118q-87 108 -88 291q-1 176 90 284q96 115 269 116q81 0 151 -29z" />
    <glyph glyph-name="paragraph" unicode="&#xb6;" horiz-adv-x="779" 
d="M733 754q-1 8 -11.5 23t-10.5 25q0 19 16 34t35 15q21 0 36.5 -15.5t15.5 -36.5q0 -28 -34 -50q-16 -10 -68 -34q-11 -5 -46 -16v-385q0 -139 -47 -211q-75 -116 -224 -117q-150 -1 -230 104q-54 71 -54 196v413h-95v69h306v-69h-116v-422q0 -94 45 -151q49 -62 141 -64
q98 -2 148 73q43 64 43 167v397h-113v69q38 1 106 -4q51 -4 106 -10q50 -5 42 -5q10 0 9 5z" />
    <glyph glyph-name="germandbls" unicode="&#xdf;" horiz-adv-x="771" 
d="M720 385q2 -187 -109 -296q-90 -89 -257 -89h-280v359h-87v76h87v337h285q177 0 271 -107q89 -100 90 -280zM622 386q0 144 -68 222q-72 83 -214 83h-170v-256h126v-76h-126v-278h170q282 0 282 305z" />
    <glyph glyph-name="acute" unicode="&#xb4;" 
d="M559 281q0 -123 -65 -205q-71 -88 -191 -89q-130 -1 -200 90q-62 82 -63 216q-1 124 67 204q72 84 194 84q126 0 195 -89q63 -81 63 -211zM465 288q0 90 -37 152q-44 75 -128 75q-87 0 -131 -76q-37 -63 -37 -156q0 -89 38 -152q44 -75 127 -77q87 -2 132 77
q36 63 36 157zM430 600h-52l-77 93l-75 -93h-51l92 124h72z" />
    <glyph glyph-name="dieresis" unicode="&#xa8;" 
d="M465 288q0 90 -37 152q-44 75 -128 75q-87 0 -131 -76q-37 -63 -37 -156q0 -89 38 -152q44 -75 127 -77q87 -2 132 77q36 63 36 157zM405 561q61 2 60 10t-11.5 23.5t-10.5 24.5q0 19 16 34t35 15q21 0 36.5 -15.5t15.5 -36.5q0 -27 -31 -48q-16 -11 -64 -33
q108 -77 108 -254q0 -123 -65 -205q-71 -88 -191 -89q-130 -1 -200 90q-62 82 -63 216q-1 124 67 204q72 84 194 84q56 0 104 -20z" />
    <glyph glyph-name="AE" unicode="&#xc6;" horiz-adv-x="659" 
d="M639 0h-174v119q-15 -62 -68 -97q-48 -32 -115 -32q-118 -1 -180 86q-55 76 -55 199q0 129 50 206q60 92 183 93q59 0 109 -32t71 -86v251h-90v66h178v-707h91v-66zM465 278q0 91 -35 153q-43 77 -128 77q-162 0 -164 -220q-1 -96 33 -156q42 -75 131 -76q82 -1 126 73
q37 61 37 149zM279 677h309v-54h-309v54z" />
    <glyph glyph-name="Oslash" unicode="&#xd8;" horiz-adv-x="839" 
d="M820 0h-285v71h104l-66 187h-317l-66 -187h105v-71h-280v71h80l267 701h111l267 -701h80v-71zM543 329l-129 359l-129 -359h258zM548 902q-18 -110 -134 -110t-130 110h40q14 -68 93 -68q74 0 91 68h40zM438 902h-50l-117 118v8h79z" />
    <glyph glyph-name="yen" unicode="&#xa5;" horiz-adv-x="720" 
d="M705 701h-61l-239 -384v-246h119v-71h-332v71h119v246l-237 384h-58v68h271v-68h-104l181 -301l179 301h-101v68h263v-68zM405 -134h-94v92l45 2l49 -2v-92z" />
    <glyph glyph-name="ordfeminine" unicode="&#xaa;" 
d="M577 0h-167v124q-38 -132 -182 -132q-178 0 -179 171q-1 105 83 147q60 29 177 30q32 0 95 -3q0 90 -14 118q-30 59 -117 60q-106 1 -117 -112h-91q12 177 213 177q115 0 172 -66q38 -44 38 -152v-294h89v-68zM404 274q-28 5 -70 5q-89 1 -130 -16q-64 -26 -65 -100
q-1 -107 105 -107q80 0 125 71q27 43 35 147zM412 720q-18 -110 -134 -110t-130 110h40q14 -68 93 -68q74 0 91 68h40zM302 720h-50l-117 118v8h79z" />
    <glyph glyph-name="ordmasculine" unicode="&#xba;" 
d="M577 0h-167v124q-38 -132 -182 -132q-178 0 -179 171q-1 105 83 147q60 29 177 30q32 0 95 -3q0 90 -14 118q-30 59 -117 60q-106 1 -117 -112h-91q12 177 213 177q115 0 172 -66q38 -44 38 -152v-294h89v-68zM404 274q-28 5 -70 5q-89 1 -130 -16q-64 -26 -65 -100
q-1 -107 105 -107q80 0 125 71q27 43 35 147zM412 720q-18 -110 -134 -110t-130 110h40q14 -68 93 -68q74 0 91 68h40zM285 775l15 14q17 16 21 25q4 6 6 25q0 44 -42 45q-38 1 -46 -49l-24 10q6 71 77 71q73 0 75 -68q1 -34 -32 -65l-15 -14q-20 -19 -20 -59h-43
q0 39 28 65z" />
    <glyph glyph-name="ae" unicode="&#xe6;" 
d="M577 0h-167v124q-38 -132 -182 -132q-178 0 -179 171q-1 105 83 147q60 29 177 30q32 0 95 -3q0 90 -14 118q-30 59 -117 60q-106 1 -117 -112h-91q12 177 213 177q115 0 172 -66q38 -44 38 -152v-294h89v-68zM404 274q-28 5 -70 5q-89 1 -130 -16q-64 -26 -65 -100
q-1 -107 105 -107q80 0 125 71q27 43 35 147zM411 720q-18 -110 -134 -110t-130 110h40q14 -68 93 -68q74 0 91 68h40zM420 838l-117 -118h-50l88 126h79v-8z" />
    <glyph glyph-name="oslash" unicode="&#xf8;" horiz-adv-x="839" 
d="M820 0h-285v71h104l-66 187h-317l-66 -187h105v-71h-280v71h80l267 701h111l267 -701h80v-71zM543 329l-129 359l-129 -359h258zM548 902q-18 -110 -134 -110t-130 110h40q14 -68 93 -68q74 0 91 68h40zM683 1008q-9 -33 -36 -60q-30 -30 -62 -31q-15 0 -24 5
q-7 1 -48 29q-5 3 -29 8q-34 -1 -53 -47h-35q10 36 36 62q30 30 64 31q18 1 26 -4l46 -26q21 -12 32 -12q26 1 47 45h36z" />
    <glyph glyph-name="questiondown" unicode="&#xbf;" horiz-adv-x="839" 
d="M820 0h-285v71h104l-66 187h-317l-66 -187h105v-71h-280v71h80l267 701h111l267 -701h80v-71zM543 329l-129 359l-129 -359h258zM548 902q-18 -110 -134 -110t-130 110h40q14 -68 93 -68q74 0 91 68h40zM557 1020l-117 -118h-50l88 126h79v-8z" />
    <glyph glyph-name="exclamdown" unicode="&#xa1;" horiz-adv-x="839" 
d="M820 0h-285v71h104l-66 187h-317l-66 -187h105v-71h-280v71h80l267 701h111l267 -701h80v-71zM543 329l-129 359l-129 -359h258zM543 792h-52l-77 93l-75 -93h-51l92 124h72zM326 885h-50l-117 118v8h79z" />
    <glyph glyph-name="florin" unicode="&#x192;" horiz-adv-x="839" 
d="M820 0h-285v71h104l-66 187h-317l-66 -187h105v-71h-280v71h80l267 701h111l267 -701h80v-71zM543 329l-129 359l-129 -359h258zM543 792h-52l-77 93l-75 -93h-51l92 124h72zM673 1003l-117 -118h-50l88 126h79v-8z" />
    <glyph glyph-name="guillemotleft" unicode="&#xab;" 
d="M577 0h-167v124q-38 -132 -182 -132q-178 0 -179 171q-1 105 83 147q60 29 177 30q32 0 95 -3q0 90 -14 118q-30 59 -117 60q-106 1 -117 -112h-91q12 177 213 177q115 0 172 -66q38 -44 38 -152v-294h89v-68zM404 274q-28 5 -70 5q-89 1 -130 -16q-64 -26 -65 -100
q-1 -107 105 -107q80 0 125 71q27 43 35 147zM407 600h-52l-77 93l-75 -93h-51l92 124h72zM190 693h-50l-117 118v8h79z" />
    <glyph glyph-name="guillemotright" unicode="&#xbb;" 
d="M577 0h-167v124q-38 -132 -182 -132q-178 0 -179 171q-1 105 83 147q60 29 177 30q32 0 95 -3q0 90 -14 118q-30 59 -117 60q-106 1 -117 -112h-91q12 177 213 177q115 0 172 -66q38 -44 38 -152v-294h89v-68zM404 274q-28 5 -70 5q-89 1 -130 -16q-64 -26 -65 -100
q-1 -107 105 -107q80 0 125 71q27 43 35 147zM407 600h-52l-77 93l-75 -93h-51l92 124h72zM413 738l15 14q17 16 21 25q4 6 6 25q0 44 -42 45q-38 1 -46 -49l-24 10q6 71 77 71q73 0 75 -68q1 -34 -32 -65l-15 -14q-20 -19 -20 -59h-43q0 39 28 65z" />
    <glyph glyph-name="ellipsis" unicode="&#x2026;" 
d="M577 0h-167v124q-38 -132 -182 -132q-178 0 -179 171q-1 105 83 147q60 29 177 30q32 0 95 -3q0 90 -14 118q-30 59 -117 60q-106 1 -117 -112h-91q12 177 213 177q115 0 172 -66q38 -44 38 -152v-294h89v-68zM404 274q-28 5 -70 5q-89 1 -130 -16q-64 -26 -65 -100
q-1 -107 105 -107q80 0 125 71q27 43 35 147zM407 600h-52l-77 93l-75 -93h-51l92 124h72zM423 834q-9 -33 -36 -60q-30 -30 -62 -31q-15 0 -24 5q-7 1 -48 29q-5 3 -29 8q-34 -1 -53 -47h-35q10 36 36 62q30 30 64 31q18 1 26 -4l46 -26q21 -12 32 -12q26 1 47 45h36z" />
    <glyph glyph-name="OE" unicode="&#x152;" 
d="M553 263h-408q0 -90 40 -146q46 -65 132 -66q58 -1 98 32.5t50 90.5h81q-8 -89 -78 -141q-64 -48 -156 -48q-128 0 -196 86q-61 77 -62 209q-1 131 62 211q68 87 196 87q240 0 241 -315zM462 327q-4 79 -38 129q-40 59 -114 60q-137 1 -162 -189h314zM319 683l15 14
q17 16 21 25q4 6 6 25q0 44 -42 45q-38 1 -46 -49l-24 10q6 71 77 71q73 0 75 -68q1 -34 -32 -65l-15 -14q-20 -19 -20 -59h-43q0 39 28 65z" />
    <glyph glyph-name="oe" unicode="&#x153;" 
d="M553 263h-408q0 -90 40 -146q46 -65 132 -66q58 -1 98 32.5t50 90.5h81q-8 -89 -78 -141q-64 -48 -156 -48q-128 0 -196 86q-61 77 -62 209q-1 131 62 211q68 87 196 87q240 0 241 -315zM462 327q-4 79 -38 129q-40 59 -114 60q-137 1 -162 -189h314zM457 721
q-9 -33 -36 -60q-30 -30 -62 -31q-15 0 -24 5q-7 1 -48 29q-5 3 -29 8q-34 -1 -53 -47h-35q10 36 36 62q30 30 64 31q18 1 26 -4l46 -26q21 -12 32 -12q26 1 47 45h36z" />
    <glyph glyph-name="endash" unicode="&#x2013;" horiz-adv-x="720" 
d="M648 0h-617v71h110v629h-110v69h611v-230h-81v158h-326v-271h160v117h77v-304h-77v116h-160v-281h330v165h83v-239zM479 930l-117 -118h-50l88 126h79v-8z" />
    <glyph glyph-name="emdash" unicode="&#x2014;" horiz-adv-x="720" 
d="M648 0h-617v71h110v629h-110v69h611v-230h-81v158h-326v-271h160v117h77v-304h-77v116h-160v-281h330v165h83v-239zM384 -134h-94v92l45 2l49 -2v-92z" />
    <glyph glyph-name="quotedblleft" unicode="&#x201c;" 
d="M553 263h-408q0 -90 40 -146q46 -65 132 -66q58 -1 98 32.5t50 90.5h81q-8 -89 -78 -141q-64 -48 -156 -48q-128 0 -196 86q-61 77 -62 209q-1 131 62 211q68 87 196 87q240 0 241 -315zM462 327q-4 79 -38 129q-40 59 -114 60q-137 1 -162 -189h314zM441 600h-52l-77 93
l-75 -93h-51l92 124h72zM224 693h-50l-117 118v8h79z" />
    <glyph glyph-name="quotedblright" unicode="&#x201d;" 
d="M553 263h-408q0 -90 40 -146q46 -65 132 -66q58 -1 98 32.5t50 90.5h81q-8 -89 -78 -141q-64 -48 -156 -48q-128 0 -196 86q-61 77 -62 209q-1 131 62 211q68 87 196 87q240 0 241 -315zM462 327q-4 79 -38 129q-40 59 -114 60q-137 1 -162 -189h314zM441 600h-52l-77 93
l-75 -93h-51l92 124h72zM447 738l15 14q17 16 21 25q4 6 6 25q0 44 -42 45q-38 1 -46 -49l-24 10q6 71 77 71q73 0 75 -68q1 -34 -32 -65l-15 -14q-20 -19 -20 -59h-43q0 39 28 65z" />
    <glyph glyph-name="quoteleft" unicode="&#x2018;" 
d="M553 263h-408q0 -90 40 -146q46 -65 132 -66q58 -1 98 32.5t50 90.5h81q-8 -89 -78 -141q-64 -48 -156 -48q-128 0 -196 86q-61 77 -62 209q-1 131 62 211q68 87 196 87q240 0 241 -315zM462 327q-4 79 -38 129q-40 59 -114 60q-137 1 -162 -189h314zM441 600h-52l-77 93
l-75 -93h-51l92 124h72zM457 834q-9 -33 -36 -60q-30 -30 -62 -31q-15 0 -24 5q-7 1 -48 29q-5 3 -29 8q-34 -1 -53 -47h-35q10 36 36 62q30 30 64 31q18 1 26 -4l46 -26q21 -12 32 -12q26 1 47 45h36z" />
    <glyph glyph-name="quoteright" unicode="&#x2019;" 
d="M553 263h-408q0 -90 40 -146q46 -65 132 -66q58 -1 98 32.5t50 90.5h81q-8 -89 -78 -141q-64 -48 -156 -48q-128 0 -196 86q-61 77 -62 209q-1 131 62 211q68 87 196 87q240 0 241 -315zM462 327q-4 79 -38 129q-40 59 -114 60q-137 1 -162 -189h314zM441 600h-52l-77 93
l-75 -93h-51l92 124h72zM571 811l-117 -118h-50l88 126h79v-8z" />
    <glyph glyph-name="fraction" unicode="&#x2044;" horiz-adv-x="720" 
d="M648 0h-617v71h110v629h-110v69h611v-230h-81v158h-326v-271h160v117h77v-304h-77v116h-160v-281h330v165h83v-239zM464 790h-52l-77 93l-75 -93h-51l92 124h72zM594 1001l-117 -118h-50l88 126h79v-8z" />
    <glyph glyph-name="currency" unicode="&#xa4;" horiz-adv-x="839" 
d="M778 395q0 -181 -86 -289q-93 -118 -270 -119q-178 -1 -273 118q-87 108 -88 291q-1 174 91 283q97 116 268 117q172 1 268 -117q90 -109 90 -284zM676 398q1 139 -58 226q-68 101 -201 101t-198 -103q-55 -86 -56 -227q-1 -140 55 -229q66 -106 199 -107q136 -1 203 106
q55 89 56 233zM549 812h-52l-77 93l-75 -93h-51l92 124h72zM332 905h-50l-117 118v8h79z" />
    <glyph glyph-name="guilsinglleft" unicode="&#x2039;" horiz-adv-x="319" 
d="M299 0h-261v67h88v429h-88v66h177v-495h84v-67zM315 693q-9 -33 -36 -60q-30 -30 -62 -31q-15 0 -24 5q-7 1 -48 29q-5 3 -29 8q-34 -1 -53 -47h-35q10 36 36 62q30 30 64 31q18 1 26 -4l46 -26q21 -12 32 -12q26 1 47 45h36z" />
    <glyph glyph-name="guilsinglright" unicode="&#x203a;" horiz-adv-x="319" 
d="M299 0h-261v67h88v429h-88v66h177v-495h84v-67zM313 730l-117 -118h-50l88 126h79v-8z" />
    <glyph glyph-name="fi" unicode="&#xf001;" horiz-adv-x="319" 
d="M220 611h-99v93h99v-93zM299 0h-261v67h88v429h-88v66h177v-495h84v-67zM220 -143h-94v92l45 1l49 -1v-92z" />
    <glyph glyph-name="fl" unicode="&#xf002;" 
d="M559 281q0 -123 -65 -205q-71 -88 -191 -89q-130 -1 -200 90q-62 82 -63 216q-1 124 67 204q72 84 194 84q126 0 195 -89q63 -81 63 -211zM465 288q0 90 -37 152q-44 75 -128 75q-87 0 -131 -76q-37 -63 -37 -156q0 -89 38 -152q44 -75 127 -77q87 -2 132 77
q36 63 36 157zM325 630h-50l-117 118v8h79z" />
    <glyph glyph-name="daggerdbl" unicode="&#x2021;" horiz-adv-x="839" 
d="M778 395q0 -181 -86 -289q-93 -118 -270 -119q-178 -1 -273 118q-87 108 -88 291q-1 174 91 283q97 116 268 117q172 1 268 -117q90 -109 90 -284zM676 398q1 139 -58 226q-68 101 -201 101t-198 -103q-55 -86 -56 -227q-1 -140 55 -229q66 -106 199 -107q136 -1 203 106
q55 89 56 233zM549 812h-52l-77 93l-75 -93h-51l92 124h72zM555 950l15 14q17 16 21 25q4 6 6 25q0 44 -42 45q-38 1 -46 -49l-24 10q6 71 77 71q73 0 75 -68q1 -34 -32 -65l-15 -14q-20 -19 -20 -59h-43q0 39 28 65z" />
    <glyph glyph-name="periodcentered" 
d="M559 281q0 -123 -65 -205q-71 -88 -191 -89q-130 -1 -200 90q-62 82 -63 216q-1 124 67 204q72 84 194 84q126 0 195 -89q63 -81 63 -211zM465 288q0 90 -37 152q-44 75 -128 75q-87 0 -131 -76q-37 -63 -37 -156q0 -89 38 -152q44 -75 127 -77q87 -2 132 77
q36 63 36 157zM308 686l15 14q17 16 21 25q4 6 6 25q0 44 -42 45q-38 1 -46 -49l-24 10q6 71 77 71q73 0 75 -68q1 -34 -32 -65l-15 -14q-20 -19 -20 -59h-43q0 39 28 65z" />
    <glyph glyph-name="quotesinglbase" unicode="&#x201a;" 
d="M559 281q0 -123 -65 -205q-71 -88 -191 -89q-130 -1 -200 90q-62 82 -63 216q-1 124 67 204q72 84 194 84q126 0 195 -89q63 -81 63 -211zM465 288q0 90 -37 152q-44 75 -128 75q-87 0 -131 -76q-37 -63 -37 -156q0 -89 38 -152q44 -75 127 -77q87 -2 132 77
q36 63 36 157zM446 721q-9 -33 -36 -60q-30 -30 -62 -31q-15 0 -24 5q-7 1 -48 29q-5 3 -29 8q-34 -1 -53 -47h-35q10 36 36 62q30 30 64 31q18 1 26 -4l46 -26q21 -12 32 -12q26 1 47 45h36z" />
    <glyph glyph-name="quotedblbase" unicode="&#x201e;" 
d="M559 281q0 -123 -65 -205q-71 -88 -191 -89q-130 -1 -200 90q-62 82 -63 216q-1 124 67 204q72 84 194 84q126 0 195 -89q63 -81 63 -211zM465 288q0 90 -37 152q-44 75 -128 75q-87 0 -131 -76q-37 -63 -37 -156q0 -89 38 -152q44 -75 127 -77q87 -2 132 77
q36 63 36 157zM444 748l-117 -118h-50l88 126h79v-8z" />
    <glyph glyph-name="perthousand" unicode="&#x2030;" 
d="M559 281q0 -123 -65 -205q-71 -88 -191 -89q-130 -1 -200 90q-62 82 -63 216q-1 124 67 204q72 84 194 84q126 0 195 -89q63 -81 63 -211zM465 288q0 90 -37 152q-44 75 -128 75q-87 0 -131 -76q-37 -63 -37 -156q0 -89 38 -152q44 -75 127 -77q87 -2 132 77
q36 63 36 157zM352 -156h-94v92l45 1l49 -1v-92z" />
    <glyph glyph-name="dotlessi" unicode="&#x131;" horiz-adv-x="659" 
d="M524 562q42 0 41 9q-1 8 -11.5 23.5t-10.5 24.5q0 19 16 34t35 15q21 0 36.5 -15.5t15.5 -36.5q0 -28 -34 -50l-72 -36v-462h91v-68h-174v124q-9 -67 -59 -103q-46 -33 -116 -33q-172 0 -172 216v294h-88v64h177v-357q0 -149 108 -151q75 -1 114 67q31 56 31 137v240h-94
v64h166zM350 600h-50l-117 118v8h79z" />
    <glyph glyph-name="circumflex" unicode="&#x2c6;" horiz-adv-x="659" 
d="M524 562q42 0 41 9q-1 8 -11.5 23.5t-10.5 24.5q0 19 16 34t35 15q21 0 36.5 -15.5t15.5 -36.5q0 -28 -34 -50l-72 -36v-462h91v-68h-174v124q-9 -67 -59 -103q-46 -33 -116 -33q-172 0 -172 216v294h-88v64h177v-357q0 -149 108 -151q75 -1 114 67q31 56 31 137v240h-94
v64h166zM333 655l15 14q17 16 21 25q4 6 6 25q0 44 -42 45q-38 1 -46 -49l-24 10q6 71 77 71q73 0 75 -68q1 -34 -32 -65l-15 -14q-20 -19 -20 -59h-43q0 39 28 65z" />
    <glyph glyph-name="tilde" unicode="&#x2dc;" horiz-adv-x="659" 
d="M524 562q42 0 41 9q-1 8 -11.5 23.5t-10.5 24.5q0 19 16 34t35 15q21 0 36.5 -15.5t15.5 -36.5q0 -28 -34 -50l-72 -36v-462h91v-68h-174v124q-9 -67 -59 -103q-46 -33 -116 -33q-172 0 -172 216v294h-88v64h177v-357q0 -149 108 -151q75 -1 114 67q31 56 31 137v240h-94
v64h166zM471 691q-9 -33 -36 -60q-30 -30 -62 -31q-15 0 -24 5q-7 1 -48 29q-5 3 -29 8q-34 -1 -53 -47h-35q10 36 36 62q30 30 64 31q18 1 26 -4l46 -26q21 -12 32 -12q26 1 47 45h36z" />
    <glyph glyph-name="macron" unicode="&#xaf;" horiz-adv-x="659" 
d="M524 562q42 0 41 9q-1 8 -11.5 23.5t-10.5 24.5q0 19 16 34t35 15q21 0 36.5 -15.5t15.5 -36.5q0 -28 -34 -50l-72 -36v-462h91v-68h-174v124q-9 -67 -59 -103q-46 -33 -116 -33q-172 0 -172 216v294h-88v64h177v-357q0 -149 108 -151q75 -1 114 67q31 56 31 137v240h-94
v64h166zM470 718l-117 -118h-50l88 126h79v-8z" />
    <glyph glyph-name="macron" unicode="&#x2c9;" horiz-adv-x="659" 
d="M524 562q42 0 41 9q-1 8 -11.5 23.5t-10.5 24.5q0 19 16 34t35 15q21 0 36.5 -15.5t15.5 -36.5q0 -28 -34 -50l-72 -36v-462h91v-68h-174v124q-9 -67 -59 -103q-46 -33 -116 -33q-172 0 -172 216v294h-88v64h177v-357q0 -149 108 -151q75 -1 114 67q31 56 31 137v240h-94
v64h166zM470 718l-117 -118h-50l88 126h79v-8z" />
    <glyph glyph-name="breve" unicode="&#x2d8;" horiz-adv-x="659" 
d="M524 562q42 0 41 9q-1 8 -11.5 23.5t-10.5 24.5q0 19 16 34t35 15q21 0 36.5 -15.5t15.5 -36.5q0 -28 -34 -50l-72 -36v-462h91v-68h-174v124q-9 -67 -59 -103q-46 -33 -116 -33q-172 0 -172 216v294h-88v64h177v-357q0 -149 108 -151q75 -1 114 67q31 56 31 137v240h-94
v64h166zM375 -154h-94v92l45 1l49 -1v-92z" />
    <glyph glyph-name="dotaccent" unicode="&#x2d9;" 
d="M583 496h-48l-189 -513q-32 -87 -59 -120q-41 -50 -116 -50q-44 0 -66 7v71q36 -8 56 -8q37 -1 54 19q12 10 28 46q15 33 18 51l-188 497h-53v64h238v-64h-87l128 -355q10 -28 10 -46q3 21 18 64l116 337h-88v64h228v-64zM330 580h-50l-117 118v8h79z" />
    <glyph glyph-name="ring" unicode="&#x2da;" 
d="M583 496h-48l-189 -513q-32 -87 -59 -120q-41 -50 -116 -50q-44 0 -66 7v71q36 -8 56 -8q37 -1 54 19q12 10 28 46q15 33 18 51l-188 497h-53v64h238v-64h-87l128 -355q10 -28 10 -46q3 21 18 64l116 337h-88v64h228v-64zM313 635l15 14q17 16 21 25q4 6 6 25
q0 44 -42 45q-38 1 -46 -49l-24 10q6 71 77 71q73 0 75 -68q1 -34 -32 -65l-15 -14q-20 -19 -20 -59h-43q0 39 28 65z" />
    <glyph glyph-name="cedilla" unicode="&#xb8;" 
d="M583 496h-48l-189 -513q-32 -87 -59 -120q-41 -50 -116 -50q-44 0 -66 7v71q36 -8 56 -8q37 -1 54 19q12 10 28 46q15 33 18 51l-188 497h-53v64h238v-64h-87l128 -355q10 -28 10 -46q3 21 18 64l116 337h-88v64h228v-64zM451 681q-9 -33 -36 -60q-30 -30 -62 -31
q-15 0 -24 5q-7 1 -48 29q-5 3 -29 8q-34 -1 -53 -47h-35q10 36 36 62q30 30 64 31q18 1 26 -4l46 -26q21 -12 32 -12q26 1 47 45h36z" />
    <glyph glyph-name="hungarumlaut" unicode="&#x2dd;" 
d="M583 496h-48l-189 -513q-32 -87 -59 -120q-41 -50 -116 -50q-44 0 -66 7v71q36 -8 56 -8q37 -1 54 19q12 10 28 46q15 33 18 51l-188 497h-53v64h238v-64h-87l128 -355q10 -28 10 -46q3 21 18 64l116 337h-88v64h228v-64zM450 698l-117 -118h-50l88 126h79v-8z" />
    <glyph glyph-name="ogonek" unicode="&#x2db;" 
d="M583 496h-48l-189 -513q-32 -87 -59 -120q-41 -50 -116 -50q-44 0 -66 7v71q36 -8 56 -8q37 -1 54 19q12 10 28 46q15 33 18 51l-188 497h-53v64h238v-64h-87l128 -355q10 -28 10 -46q3 21 18 64l116 337h-88v64h228v-64zM464 -154h-94v92l45 1l49 -1v-92z" />
    <glyph glyph-name="caron" unicode="&#x2c7;" horiz-adv-x="839" 
d="M778 395q0 -181 -86 -289q-93 -118 -270 -119q-178 -1 -273 118q-87 108 -88 291q-1 174 91 283q97 116 268 117q172 1 268 -117q90 -109 90 -284zM676 398q1 139 -58 226q-68 101 -201 101t-198 -103q-55 -86 -56 -227q-1 -140 55 -229q66 -106 199 -107q136 -1 203 106
q55 89 56 233zM549 812h-52l-77 93l-75 -93h-51l92 124h72zM679 1023l-117 -118h-50l88 126h79v-8z" />
    <glyph glyph-name="Lslash" unicode="&#x141;" horiz-adv-x="583" 
d="M587 0h-513v356l-75 -55v74l75 55v342h96v-285l172 126v-74l-172 -126v-330h417v-83z" />
    <glyph glyph-name="lslash" unicode="&#x142;" horiz-adv-x="234" 
d="M248 474l-87 -63v-411h-89v359l-74 -54v66l74 55v346h89v-294l87 63v-67z" />
    <glyph glyph-name="Eth" unicode="&#xd0;" horiz-adv-x="771" 
d="M720 385q2 -187 -109 -296q-90 -89 -257 -89h-280v359h-87v76h87v337h285q177 0 271 -107q89 -100 90 -280zM622 386q0 144 -68 222q-72 83 -214 83h-170v-256h126v-76h-126v-278h170q282 0 282 305z" />
    <glyph glyph-name="eth" unicode="&#xf0;" horiz-adv-x="610" 
d="M569 293q0 -133 -65 -217q-72 -91 -202 -92q-126 -1 -195 83q-64 77 -65 205q-1 122 63 196q68 78 188 79q16 0 80 -23q31 -11 53 -31q-35 65 -64 100q-32 38 -88 79l-107 -80l-24 35l94 67q-44 27 -107 50l17 37q28 -8 80 -29l58 -25l108 78l24 -33l-92 -65
q98 -62 147 -125q97 -125 97 -289zM480 287q1 87 -37 145q-44 67 -127 68q-95 1 -143 -70q-41 -60 -42 -159q-1 -92 39 -152q46 -69 134 -70q93 -1 138 76q37 62 38 162z" />
    <glyph glyph-name="Scaron" unicode="&#x160;" 
d="M481 990l-140 -152h-84l-139 152h76l108 -115l106 115h73zM555 205q0 -102 -62.5 -160t-165.5 -58q-159 0 -193 110v-97h-82v258h82q1 -87 43 -140q46 -58 131 -58q67 0 107.5 35.5t41.5 101.5q1 54 -34 87q-25 24 -85 46l-96 36q-106 40 -139 68q-53 46 -53 136
q0 100 67 156q62 53 164 54q130 1 173 -96v84h83v-252h-83q-4 192 -166 193q-60 0 -100 -34t-41 -93q-1 -55 32 -83q20 -17 84 -41l121 -45q86 -32 124 -74q47 -50 47 -134z" />
    <glyph glyph-name="scaron" unicode="&#x161;" horiz-adv-x="539" 
d="M418 798l-109 -144h-86l-107 144l63 3l88 -113l87 113zM480 167q0 -87 -57 -134q-52 -43 -142 -45q-102 -2 -154 99v-87h-68v194h68q0 -135 130 -138q46 -1 86 27q45 30 46 74q1 41 -25 59q-20 18 -86 29l-62 10q-78 13 -112 43q-40 35 -40 110q0 81 58 126q52 41 135 42
q110 1 147 -92v78h66v-184h-66q0 8 1 14q0 56 -38.5 87t-95.5 31q-122 1 -122 -92q0 -43 26 -63q20 -15 66 -22l64 -10q175 -27 175 -156z" />
    <glyph glyph-name="Yacute" unicode="&#xdd;" horiz-adv-x="720" 
d="M705 701h-61l-239 -384v-246h119v-71h-332v71h119v246l-237 384h-58v68h271v-68h-104l181 -301l179 301h-101v68h263v-68zM508 890l-117 -118h-50l88 126h79v-8z" />
    <glyph glyph-name="yacute" unicode="&#xfd;" 
d="M583 496h-48l-189 -513q-32 -87 -59 -120q-41 -50 -116 -50q-44 0 -66 7v71q36 -8 56 -8q37 -1 54 19q12 10 28 46q15 33 18 51l-188 497h-53v64h238v-64h-87l128 -355q10 -28 10 -46q3 21 18 64l116 337h-88v64h228v-64zM450 698l-117 -118h-50l88 126h79v-8z" />
    <glyph glyph-name="HT" horiz-adv-x="347" 
 />
    <glyph glyph-name="Thorn" unicode="&#xde;" horiz-adv-x="640" 
d="M598 279q0 -126 -56 -205q-63 -91 -184 -91q-147 0 -199 134v-306h-87v961h84v-344q63 140 203 141q116 1 181 -90q58 -80 58 -200zM510 277q1 90 -41 150q-47 68 -133 69q-93 1 -139 -72q-39 -61 -40 -159q-1 -88 42 -147q48 -67 133 -67q92 0 138 70q39 59 40 156z" />
    <glyph glyph-name="thorn" unicode="&#xfe;" horiz-adv-x="579" 
d="M553 370h-528v51h528v-51z" />
    <glyph glyph-name="nonmarkingreturn" horiz-adv-x="347" 
 />
    <glyph glyph-name="Zcaron" unicode="&#x17d;" horiz-adv-x="659" 
d="M511 990l-140 -152h-84l-139 152h76l108 -115l107 115h72zM612 0h-568v83l454 626h-366v-177h-78v237h546v-79l-459 -631h392v189h79v-248z" />
    <glyph glyph-name="zcaron" unicode="&#x17e;" horiz-adv-x="539" 
d="M418 798l-109 -144h-86l-107 144l63 3l88 -113l87 113zM487 0h-434v81l322 417h-237v-114h-78v178h420v-78l-321 -417h252v126h76v-193z" />
    <glyph glyph-name="onehalf" unicode="&#xbd;" horiz-adv-x="963" 
d="M929 121h-66v-71h60v-50h-198v50h74v71h-204v66l189 276h79v-292h66v-50zM751 790l-477 -826h-62l476 826h63zM344 432q0 -63 -41.5 -97.5t-106.5 -34.5q-152 -1 -154 142h70q4 -90 84 -90q35 0 57 23.5t22 58.5q1 83 -108 85v51q104 0 104 80t-77 80q-76 0 -79 -87h-69
q10 137 152 138q61 0 100.5 -34t39.5 -94q0 -81 -81 -109q87 -24 87 -112zM799 171v222l-150 -222h150z" />
    <glyph glyph-name="onesuperior" unicode="&#xb9;" horiz-adv-x="392" 
d="M344 432q0 -63 -41.5 -97.5t-106.5 -34.5q-152 -1 -154 142h70q4 -90 84 -90q35 0 57 23.5t22 58.5q1 83 -108 85v51q104 0 104 80t-77 80q-76 0 -79 -87h-69q10 137 152 138q61 0 100.5 -34t39.5 -94q0 -81 -81 -109q87 -24 87 -112z" />
    <glyph glyph-name="threesuperior" unicode="&#xb3;" horiz-adv-x="963" 
d="M929 121h-66v-71h60v-50h-198v50h74v71h-204v66l189 276h79v-292h66v-50zM751 790l-477 -826h-62l476 826h63zM316 308h-207v50h73v343q-38 -38 -107 -85v67q54 39 107 89h67v-414h67v-50zM799 171v222l-150 -222h150z" />
    <glyph glyph-name="twosuperior" unicode="&#xb2;" horiz-adv-x="963" 
d="M914 0h-304v73q95 84 155 148q35 37 48 56q22 32 24 67q1 31 -20 53t-52 23q-76 2 -82 -95h-70q8 146 148 146q64 0 102 -30q42 -33 43 -95q1 -45 -32 -91q-18 -25 -66 -73l-80 -80q-6 -6 -57 -51h182v73h61v-124zM751 790l-477 -826h-62l476 826h63zM316 308h-207v50h73
v343q-38 -38 -107 -85v67q54 39 107 89h67v-414h67v-50z" />
    <glyph glyph-name="brokenbar" unicode="&#xa6;" horiz-adv-x="579" 
d="M337 383h-96v389h96v-389zM337 -193h-96v370h96v-370z" />
    <glyph glyph-name="minus" unicode="&#x2212;" horiz-adv-x="391" 
d="M316 308h-207v50h73v343q-38 -38 -107 -85v67q54 39 107 89h67v-414h67v-50z" />
    <glyph glyph-name="multiply" unicode="&#xd7;" horiz-adv-x="391" 
d="M344 309h-306v73q83 73 156 148q38 39 49 55q22 32 23 68q1 32 -19.5 53.5t-52.5 22.5q-77 2 -83 -95h-69q6 146 149 146q62 0 102.5 -32t42.5 -93q1 -44 -33 -91q-12 -16 -67 -73l-79 -80q-6 -6 -56 -51h181v73h62v-124z" />
    <glyph glyph-name="Adieresis" unicode="&#xc4;" horiz-adv-x="839" 
d="M438 812h-50l-117 118v8h79zM820 0h-285v71h104l-66 187h-317l-66 -187h105v-71h-280v71h80l267 701h111l267 -701h80v-71zM543 329l-129 359l-129 -359h258z" />
    <glyph glyph-name="Aring" unicode="&#xc5;" horiz-adv-x="839" 
d="M820 0h-285v71h104l-66 187h-317l-66 -187h105v-71h-280v71h80l267 701h111l267 -701h80v-71zM543 329l-129 359l-129 -359h258zM421 867l15 14q17 16 21 25q4 6 6 25q0 44 -42 45q-38 1 -46 -49l-24 10q6 71 77 71q73 0 75 -68q1 -34 -32 -65l-15 -14q-20 -19 -20 -59
h-43q0 39 28 65z" />
    <glyph glyph-name="Ccedilla" unicode="&#xc7;" horiz-adv-x="839" 
d="M820 0h-285v71h104l-66 187h-317l-66 -187h105v-71h-280v71h80l267 701h111l267 -701h80v-71zM543 329l-129 359l-129 -359h258zM559 903q-9 -33 -36 -60q-30 -30 -62 -31q-15 0 -24 5q-7 1 -48 29q-5 3 -29 8q-34 -1 -53 -47h-35q10 36 36 62q30 30 64 31q18 1 26 -4
l46 -26q21 -12 32 -12q26 1 47 45h36z" />
    <glyph glyph-name="Eacute" unicode="&#xc9;" horiz-adv-x="720" 
d="M648 0h-617v71h110v629h-110v69h611v-230h-81v158h-326v-271h160v117h77v-304h-77v116h-160v-281h330v165h83v-239zM479 930l-117 -118h-50l88 126h79v-8z" />
    <glyph glyph-name="Ntilde" unicode="&#xd1;" horiz-adv-x="839" 
d="M820 0h-285v71h104l-66 187h-317l-66 -187h105v-71h-280v71h80l267 701h111l267 -701h80v-71zM543 329l-129 359l-129 -359h258zM463 -94h-94v92l45 2l49 -2v-92z" />
    <glyph glyph-name="Odieresis" unicode="&#xd6;" horiz-adv-x="839" 
d="M820 0h-285v71h104l-66 187h-317l-66 -187h105v-71h-280v71h80l267 701h111l267 -701h80v-71zM543 329l-129 359l-129 -359h258zM548 902q-18 -110 -134 -110t-130 110h40q14 -68 93 -68q74 0 91 68h40zM463 -94h-94v92l45 2l49 -2v-92z" />
    <glyph glyph-name="Udieresis" unicode="&#xdc;" horiz-adv-x="839" 
d="M820 0h-285v71h104l-66 187h-317l-66 -187h105v-71h-280v71h80l267 701h111l267 -701h80v-71zM543 329l-129 359l-129 -359h258zM543 792h-52l-77 93l-75 -93h-51l92 124h72zM463 -94h-94v92l45 2l49 -2v-92z" />
    <glyph glyph-name="aacute" unicode="&#xe1;" 
d="M577 0h-167v124q-38 -132 -182 -132q-178 0 -179 171q-1 105 83 147q60 29 177 30q32 0 95 -3q0 90 -14 118q-30 59 -117 60q-106 1 -117 -112h-91q12 177 213 177q115 0 172 -66q38 -44 38 -152v-294h89v-68zM404 274q-28 5 -70 5q-89 1 -130 -16q-64 -26 -65 -100
q-1 -107 105 -107q80 0 125 71q27 43 35 147zM421 748l-117 -118h-50l88 126h79v-8z" />
    <glyph glyph-name="agrave" unicode="&#xe0;" 
d="M577 0h-167v124q-38 -132 -182 -132q-178 0 -179 171q-1 105 83 147q60 29 177 30q32 0 95 -3q0 90 -14 118q-30 59 -117 60q-106 1 -117 -112h-91q12 177 213 177q115 0 172 -66q38 -44 38 -152v-294h89v-68zM404 274q-28 5 -70 5q-89 1 -130 -16q-64 -26 -65 -100
q-1 -107 105 -107q80 0 125 71q27 43 35 147zM302 630h-50l-117 118v8h79z" />
    <glyph glyph-name="acircumflex" unicode="&#xe2;" 
d="M577 0h-167v124q-38 -132 -182 -132q-178 0 -179 171q-1 105 83 147q60 29 177 30q32 0 95 -3q0 90 -14 118q-30 59 -117 60q-106 1 -117 -112h-91q12 177 213 177q115 0 172 -66q38 -44 38 -152v-294h89v-68zM404 274q-28 5 -70 5q-89 1 -130 -16q-64 -26 -65 -100
q-1 -107 105 -107q80 0 125 71q27 43 35 147zM407 600h-52l-77 93l-75 -93h-51l92 124h72z" />
    <glyph glyph-name="adieresis" unicode="&#xe4;" 
d="M553 263h-408q0 -90 40 -146q46 -65 132 -66q58 -1 98 32.5t50 90.5h81q-8 -89 -78 -141q-64 -48 -156 -48q-128 0 -196 86q-61 77 -62 209q-1 131 62 211q68 87 196 87q240 0 241 -315zM462 327q-4 79 -38 129q-40 59 -114 60q-137 1 -162 -189h314zM455 748l-117 -118
h-50l88 126h79v-8z" />
    <glyph glyph-name="atilde" unicode="&#xe3;" 
d="M577 0h-167v124q-38 -132 -182 -132q-178 0 -179 171q-1 105 83 147q60 29 177 30q32 0 95 -3q0 90 -14 118q-30 59 -117 60q-106 1 -117 -112h-91q12 177 213 177q115 0 172 -66q38 -44 38 -152v-294h89v-68zM404 274q-28 5 -70 5q-89 1 -130 -16q-64 -26 -65 -100
q-1 -107 105 -107q80 0 125 71q27 43 35 147zM423 721q-9 -33 -36 -60q-30 -30 -62 -31q-15 0 -24 5q-7 1 -48 29q-5 3 -29 8q-34 -1 -53 -47h-35q10 36 36 62q30 30 64 31q18 1 26 -4l46 -26q21 -12 32 -12q26 1 47 45h36z" />
    <glyph glyph-name="aring" unicode="&#xe5;" horiz-adv-x="720" 
d="M648 0h-617v71h110v629h-110v69h611v-230h-81v158h-326v-271h160v117h77v-304h-77v116h-160v-281h330v165h83v-239zM464 790h-52l-77 93l-75 -93h-51l92 124h72zM384 -134h-94v92l45 2l49 -2v-92z" />
    <glyph glyph-name="ccedilla" unicode="&#xe7;" horiz-adv-x="360" 
d="M336 0h-311v69h108v631h-108v69h311v-69h-108v-631h108v-69zM205 812h-50l-117 118v8h79z" />
    <glyph glyph-name="eacute" unicode="&#xe9;" 
d="M553 263h-408q0 -90 40 -146q46 -65 132 -66q58 -1 98 32.5t50 90.5h81q-8 -89 -78 -141q-64 -48 -156 -48q-128 0 -196 86q-61 77 -62 209q-1 131 62 211q68 87 196 87q240 0 241 -315zM462 327q-4 79 -38 129q-40 59 -114 60q-137 1 -162 -189h314zM455 748l-117 -118
h-50l88 126h79v-8z" />
    <glyph glyph-name="egrave" unicode="&#xe8;" 
d="M553 263h-408q0 -90 40 -146q46 -65 132 -66q58 -1 98 32.5t50 90.5h81q-8 -89 -78 -141q-64 -48 -156 -48q-128 0 -196 86q-61 77 -62 209q-1 131 62 211q68 87 196 87q240 0 241 -315zM462 327q-4 79 -38 129q-40 59 -114 60q-137 1 -162 -189h314zM336 630h-50
l-117 118v8h79z" />
    <glyph glyph-name="ecircumflex" unicode="&#xea;" 
d="M553 263h-408q0 -90 40 -146q46 -65 132 -66q58 -1 98 32.5t50 90.5h81q-8 -89 -78 -141q-64 -48 -156 -48q-128 0 -196 86q-61 77 -62 209q-1 131 62 211q68 87 196 87q240 0 241 -315zM462 327q-4 79 -38 129q-40 59 -114 60q-137 1 -162 -189h314zM441 600h-52l-77 93
l-75 -93h-51l92 124h72z" />
    <glyph glyph-name="edieresis" unicode="&#xeb;" horiz-adv-x="360" 
d="M336 0h-311v69h108v631h-108v69h311v-69h-108v-631h108v-69zM231 -134h-94v92l45 2l49 -2v-92z" />
    <glyph glyph-name="iacute" unicode="&#xed;" horiz-adv-x="319" 
d="M299 0h-261v67h88v429h-88v66h177v-495h84v-67zM313 730l-117 -118h-50l88 126h79v-8z" />
    <glyph glyph-name="igrave" unicode="&#xec;" horiz-adv-x="319" 
d="M299 0h-261v67h88v429h-88v66h177v-495h84v-67zM194 612h-50l-117 118v8h79z" />
    <glyph glyph-name="icircumflex" unicode="&#xee;" horiz-adv-x="839" 
d="M778 395q0 -181 -86 -289q-93 -118 -270 -119q-178 -1 -273 118q-87 108 -88 291q-1 174 91 283q97 116 268 117q172 1 268 -117q90 -109 90 -284zM676 398q1 139 -58 226q-68 101 -201 101t-198 -103q-55 -86 -56 -227q-1 -140 55 -229q66 -106 199 -107q136 -1 203 106
q55 89 56 233zM565 927q-9 -33 -36 -60q-30 -30 -62 -31q-15 0 -24 5q-7 1 -48 29q-5 3 -29 8q-34 -1 -53 -47h-35q10 36 36 62q30 30 64 31q18 1 26 -4l46 -26q21 -12 32 -12q26 1 47 45h36z" />
    <glyph glyph-name="idieresis" unicode="&#xef;" horiz-adv-x="839" 
d="M778 395q0 -181 -86 -289q-93 -118 -270 -119q-178 -1 -273 118q-87 108 -88 291q-1 174 91 283q97 116 268 117q172 1 268 -117q90 -109 90 -284zM676 398q1 139 -58 226q-68 101 -201 101t-198 -103q-55 -86 -56 -227q-1 -140 55 -229q66 -106 199 -107q136 -1 203 106
q55 89 56 233zM563 954l-117 -118h-50l88 126h79v-8z" />
    <glyph glyph-name="ntilde" unicode="&#xf1;" horiz-adv-x="839" 
d="M778 395q0 -181 -86 -289q-93 -118 -270 -119q-178 -1 -273 118q-87 108 -88 291q-1 174 91 283q97 116 268 117q172 1 268 -117q90 -109 90 -284zM676 398q1 139 -58 226q-68 101 -201 101t-198 -103q-55 -86 -56 -227q-1 -140 55 -229q66 -106 199 -107q136 -1 203 106
q55 89 56 233zM471 -147h-94v92l45 2l49 -2v-92z" />
    <glyph glyph-name="oacute" unicode="&#xf3;" 
d="M559 281q0 -123 -65 -205q-71 -88 -191 -89q-130 -1 -200 90q-62 82 -63 216q-1 124 67 204q72 84 194 84q126 0 195 -89q63 -81 63 -211zM465 288q0 90 -37 152q-44 75 -128 75q-87 0 -131 -76q-37 -63 -37 -156q0 -89 38 -152q44 -75 127 -77q87 -2 132 77
q36 63 36 157zM444 748l-117 -118h-50l88 126h79v-8z" />
    <glyph glyph-name="ograve" unicode="&#xf2;" 
d="M559 281q0 -123 -65 -205q-71 -88 -191 -89q-130 -1 -200 90q-62 82 -63 216q-1 124 67 204q72 84 194 84q126 0 195 -89q63 -81 63 -211zM465 288q0 90 -37 152q-44 75 -128 75q-87 0 -131 -76q-37 -63 -37 -156q0 -89 38 -152q44 -75 127 -77q87 -2 132 77
q36 63 36 157zM325 630h-50l-117 118v8h79z" />
    <glyph glyph-name="ocircumflex" unicode="&#xf4;" 
d="M559 281q0 -123 -65 -205q-71 -88 -191 -89q-130 -1 -200 90q-62 82 -63 216q-1 124 67 204q72 84 194 84q126 0 195 -89q63 -81 63 -211zM465 288q0 90 -37 152q-44 75 -128 75q-87 0 -131 -76q-37 -63 -37 -156q0 -89 38 -152q44 -75 127 -77q87 -2 132 77
q36 63 36 157zM430 600h-52l-77 93l-75 -93h-51l92 124h72z" />
    <glyph glyph-name="odieresis" unicode="&#xf6;" 
d="M559 281q0 -123 -65 -205q-71 -88 -191 -89q-130 -1 -200 90q-62 82 -63 216q-1 124 67 204q72 84 194 84q126 0 195 -89q63 -81 63 -211zM465 288q0 90 -37 152q-44 75 -128 75q-87 0 -131 -76q-37 -63 -37 -156q0 -89 38 -152q44 -75 127 -77q87 -2 132 77
q36 63 36 157zM446 721q-9 -33 -36 -60q-30 -30 -62 -31q-15 0 -24 5q-7 1 -48 29q-5 3 -29 8q-34 -1 -53 -47h-35q10 36 36 62q30 30 64 31q18 1 26 -4l46 -26q21 -12 32 -12q26 1 47 45h36z" />
    <glyph glyph-name="otilde" unicode="&#xf5;" 
d="M559 281q0 -123 -65 -205q-71 -88 -191 -89q-130 -1 -200 90q-62 82 -63 216q-1 124 67 204q72 84 194 84q126 0 195 -89q63 -81 63 -211zM465 288q0 90 -37 152q-44 75 -128 75q-87 0 -131 -76q-37 -63 -37 -156q0 -89 38 -152q44 -75 127 -77q87 -2 132 77
q36 63 36 157zM446 721q-9 -33 -36 -60q-30 -30 -62 -31q-15 0 -24 5q-7 1 -48 29q-5 3 -29 8q-34 -1 -53 -47h-35q10 36 36 62q30 30 64 31q18 1 26 -4l46 -26q21 -12 32 -12q26 1 47 45h36z" />
    <glyph glyph-name="uacute" unicode="&#xfa;" horiz-adv-x="659" 
d="M631 0h-174v124q-9 -67 -59 -103q-46 -33 -116 -33q-172 0 -172 216v294h-88v64h177v-357q0 -149 108 -151q75 -1 114 67q31 56 31 137v240h-94v64h182v-494h91v-68zM470 718l-117 -118h-50l88 126h79v-8z" />
    <glyph glyph-name="ugrave" unicode="&#xf9;" horiz-adv-x="659" 
d="M631 0h-174v124q-9 -67 -59 -103q-46 -33 -116 -33q-172 0 -172 216v294h-88v64h177v-357q0 -149 108 -151q75 -1 114 67q31 56 31 137v240h-94v64h182v-494h91v-68zM351 600h-50l-117 118v8h79z" />
    <glyph glyph-name="ucircumflex" unicode="&#xfb;" horiz-adv-x="779" 
d="M762 699h-96v-385q0 -139 -47 -211q-75 -116 -224 -117q-150 -1 -230 104q-54 71 -54 196v413h-95v69h306v-69h-116v-422q0 -94 45 -151q49 -62 141 -64q98 -2 148 73q43 64 43 167v397h-113v69h292v-69zM403 843l15 14q17 16 21 25q4 6 6 25q0 44 -42 45q-38 1 -46 -49
l-24 10q6 71 77 71q73 0 75 -68q1 -34 -32 -65l-15 -14q-20 -19 -20 -59h-43q0 39 28 65z" />
    <glyph glyph-name="udieresis" unicode="&#xfc;" horiz-adv-x="779" 
d="M762 699h-96v-385q0 -139 -47 -211q-75 -116 -224 -117q-150 -1 -230 104q-54 71 -54 196v413h-95v69h306v-69h-116v-422q0 -94 45 -151q49 -62 141 -64q98 -2 148 73q43 64 43 167v397h-113v69h292v-69zM541 894q-9 -33 -36 -60q-30 -30 -62 -31q-15 0 -24 5
q-7 1 -48 29q-5 3 -29 8q-34 -1 -53 -47h-35q10 36 36 62q30 30 64 31q18 1 26 -4l46 -26q21 -12 32 -12q26 1 47 45h36z" />
    <glyph glyph-name="degree" unicode="&#xb0;" horiz-adv-x="839" 
d="M820 0h-285v71h104l-66 187h-317l-66 -187h105v-71h-280v71h80l267 701h111l267 -701h80v-71zM543 329l-129 359l-129 -359h258zM548 902q-18 -110 -134 -110t-130 110h40q14 -68 93 -68q74 0 91 68h40z" />
    <glyph glyph-name="registered" unicode="&#xae;" 
d="M577 0h-167v124q-38 -132 -182 -132q-178 0 -179 171q-1 105 83 147q60 29 177 30q32 0 95 -3q0 90 -14 118q-30 59 -117 60q-106 1 -117 -112h-91q12 177 213 177q115 0 172 -66q38 -44 38 -152v-294h89v-68zM404 274q-28 5 -70 5q-89 1 -130 -16q-64 -26 -65 -100
q-1 -107 105 -107q80 0 125 71q27 43 35 147zM411 720q-18 -110 -134 -110t-130 110h40q14 -68 93 -68q74 0 91 68h40z" />
    <glyph glyph-name="copyright" unicode="&#xa9;" 
d="M577 0h-167v124q-38 -132 -182 -132q-178 0 -179 171q-1 105 83 147q60 29 177 30q32 0 95 -3q0 90 -14 118q-30 59 -117 60q-106 1 -117 -112h-91q12 177 213 177q115 0 172 -66q38 -44 38 -152v-294h89v-68zM404 274q-28 5 -70 5q-89 1 -130 -16q-64 -26 -65 -100
q-1 -107 105 -107q80 0 125 71q27 43 35 147zM407 600h-52l-77 93l-75 -93h-51l92 124h72z" />
    <glyph glyph-name="trademark" unicode="&#x2122;" 
d="M553 263h-408q0 -90 40 -146q46 -65 132 -66q58 -1 98 32.5t50 90.5h81q-8 -89 -78 -141q-64 -48 -156 -48q-128 0 -196 86q-61 77 -62 209q-1 131 62 211q68 87 196 87q240 0 241 -315zM462 327q-4 79 -38 129q-40 59 -114 60q-137 1 -162 -189h314zM441 600h-52l-77 93
l-75 -93h-51l92 124h72z" />
    <glyph glyph-name="notequal" unicode="&#x2260;" horiz-adv-x="659" 
d="M524 562q42 0 41 9q-1 8 -11.5 23.5t-10.5 24.5q0 19 16 34t35 15q21 0 36.5 -15.5t15.5 -36.5q0 -28 -34 -50l-72 -36v-462h91v-68h-174v124q-9 -67 -59 -103q-46 -33 -116 -33q-172 0 -172 216v294h-88v64h177v-357q0 -149 108 -151q75 -1 114 67q31 56 31 137v240h-94
v64h166z" />
    <glyph glyph-name="infinity" unicode="&#x221e;" horiz-adv-x="720" 
d="M705 701h-61l-239 -384v-246h119v-71h-332v71h119v246l-237 384h-58v68h271v-68h-104l181 -301l179 301h-101v68h263v-68zM388 772h-50l-117 118v8h79z" />
    <glyph glyph-name="plusminus" unicode="&#xb1;" horiz-adv-x="720" 
d="M705 701h-61l-239 -384v-246h119v-71h-332v71h119v246l-237 384h-58v68h271v-68h-104l181 -301l179 301h-101v68h263v-68zM371 827l15 14q17 16 21 25q4 6 6 25q0 44 -42 45q-38 1 -46 -49l-24 10q6 71 77 71q73 0 75 -68q1 -34 -32 -65l-15 -14q-20 -19 -20 -59h-43
q0 39 28 65z" />
    <glyph glyph-name="lessequal" unicode="&#x2264;" horiz-adv-x="720" 
d="M705 701h-61l-239 -384v-246h119v-71h-332v71h119v246l-237 384h-58v68h271v-68h-104l181 -301l179 301h-101v68h263v-68zM509 884q-9 -33 -36 -60q-30 -30 -62 -31q-15 0 -24 5q-7 1 -48 29q-5 3 -29 8q-34 -1 -53 -47h-35q10 36 36 62q30 30 64 31q18 1 26 -4l46 -26
q21 -12 32 -12q26 1 47 45h36z" />
    <glyph glyph-name="greaterequal" unicode="&#x2265;" horiz-adv-x="720" 
d="M705 701h-61l-239 -384v-246h119v-71h-332v71h119v246l-237 384h-58v68h271v-68h-104l181 -301l179 301h-101v68h263v-68zM508 890l-117 -118h-50l88 126h79v-8z" />
    <glyph glyph-name="mu" unicode="&#xb5;" 
d="M577 0h-167v124q-38 -132 -182 -132q-178 0 -179 171q-1 105 83 147q60 29 177 30q32 0 95 -3q0 90 -14 118q-30 59 -117 60q-106 1 -117 -112h-91q12 177 213 177q115 0 172 -66q38 -44 38 -152v-294h89v-68zM404 274q-28 5 -70 5q-89 1 -130 -16q-64 -26 -65 -100
q-1 -107 105 -107q80 0 125 71q27 43 35 147zM302 630h-50l-117 118v8h79z" />
    <glyph glyph-name="mu" unicode="&#x3bc;" 
d="M577 0h-167v124q-38 -132 -182 -132q-178 0 -179 171q-1 105 83 147q60 29 177 30q32 0 95 -3q0 90 -14 118q-30 59 -117 60q-106 1 -117 -112h-91q12 177 213 177q115 0 172 -66q38 -44 38 -152v-294h89v-68zM404 274q-28 5 -70 5q-89 1 -130 -16q-64 -26 -65 -100
q-1 -107 105 -107q80 0 125 71q27 43 35 147zM302 630h-50l-117 118v8h79z" />
    <glyph glyph-name="partialdiff" unicode="&#x2202;" 
d="M577 0h-167v124q-38 -132 -182 -132q-178 0 -179 171q-1 105 83 147q60 29 177 30q32 0 95 -3q0 90 -14 118q-30 59 -117 60q-106 1 -117 -112h-91q12 177 213 177q115 0 172 -66q38 -44 38 -152v-294h89v-68zM404 274q-28 5 -70 5q-89 1 -130 -16q-64 -26 -65 -100
q-1 -107 105 -107q80 0 125 71q27 43 35 147zM285 685l15 14q17 16 21 25q4 6 6 25q0 44 -42 45q-38 1 -46 -49l-24 10q6 71 77 71q73 0 75 -68q1 -34 -32 -65l-15 -14q-20 -19 -20 -59h-43q0 39 28 65z" />
    <glyph glyph-name="summation" unicode="&#x2211;" 
d="M577 0h-167v124q-38 -132 -182 -132q-178 0 -179 171q-1 105 83 147q60 29 177 30q32 0 95 -3q0 90 -14 118q-30 59 -117 60q-106 1 -117 -112h-91q12 177 213 177q115 0 172 -66q38 -44 38 -152v-294h89v-68zM404 274q-28 5 -70 5q-89 1 -130 -16q-64 -26 -65 -100
q-1 -107 105 -107q80 0 125 71q27 43 35 147zM423 721q-9 -33 -36 -60q-30 -30 -62 -31q-15 0 -24 5q-7 1 -48 29q-5 3 -29 8q-34 -1 -53 -47h-35q10 36 36 62q30 30 64 31q18 1 26 -4l46 -26q21 -12 32 -12q26 1 47 45h36z" />
    <glyph glyph-name="product" unicode="&#x220f;" 
d="M577 0h-167v124q-38 -132 -182 -132q-178 0 -179 171q-1 105 83 147q60 29 177 30q32 0 95 -3q0 90 -14 118q-30 59 -117 60q-106 1 -117 -112h-91q12 177 213 177q115 0 172 -66q38 -44 38 -152v-294h89v-68zM404 274q-28 5 -70 5q-89 1 -130 -16q-64 -26 -65 -100
q-1 -107 105 -107q80 0 125 71q27 43 35 147zM421 748l-117 -118h-50l88 126h79v-8z" />
    <glyph glyph-name="pi" unicode="&#x3c0;" 
d="M577 0h-167v124q-38 -132 -182 -132q-178 0 -179 171q-1 105 83 147q60 29 177 30q32 0 95 -3q0 90 -14 118q-30 59 -117 60q-106 1 -117 -112h-91q12 177 213 177q115 0 172 -66q38 -44 38 -152v-294h89v-68zM404 274q-28 5 -70 5q-89 1 -130 -16q-64 -26 -65 -100
q-1 -107 105 -107q80 0 125 71q27 43 35 147zM292 -151h-94v92l45 1l49 -1v-92z" />
    <glyph glyph-name="integral" unicode="&#x222b;" horiz-adv-x="839" 
d="M820 0h-285v71h104l-66 187h-317l-66 -187h105v-71h-280v71h80l267 701h111l267 -701h80v-71zM543 329l-129 359l-129 -359h258zM548 902q-18 -110 -134 -110t-130 110h40q14 -68 93 -68q74 0 91 68h40zM421 957l15 14q17 16 21 25q4 6 6 25q0 44 -42 45q-38 1 -46 -49
l-24 10q6 71 77 71q73 0 75 -68q1 -34 -32 -65l-15 -14q-20 -19 -20 -59h-43q0 39 28 65z" />
    <glyph glyph-name="Omega" unicode="&#x3a9;" 
d="M577 0h-167v124q-38 -132 -182 -132q-178 0 -179 171q-1 105 83 147q60 29 177 30q32 0 95 -3q0 90 -14 118q-30 59 -117 60q-106 1 -117 -112h-91q12 177 213 177q115 0 172 -66q38 -44 38 -152v-294h89v-68zM404 274q-28 5 -70 5q-89 1 -130 -16q-64 -26 -65 -100
q-1 -107 105 -107q80 0 125 71q27 43 35 147zM411 720q-18 -110 -134 -110t-130 110h40q14 -68 93 -68q74 0 91 68h40zM546 826q-9 -33 -36 -60q-30 -30 -62 -31q-15 0 -24 5q-7 1 -48 29q-5 3 -29 8q-34 -1 -53 -47h-35q10 36 36 62q30 30 64 31q18 1 26 -4l46 -26
q21 -12 32 -12q26 1 47 45h36z" />
    <glyph glyph-name="Omega" unicode="&#x2126;" 
d="M577 0h-167v124q-38 -132 -182 -132q-178 0 -179 171q-1 105 83 147q60 29 177 30q32 0 95 -3q0 90 -14 118q-30 59 -117 60q-106 1 -117 -112h-91q12 177 213 177q115 0 172 -66q38 -44 38 -152v-294h89v-68zM404 274q-28 5 -70 5q-89 1 -130 -16q-64 -26 -65 -100
q-1 -107 105 -107q80 0 125 71q27 43 35 147zM411 720q-18 -110 -134 -110t-130 110h40q14 -68 93 -68q74 0 91 68h40zM546 826q-9 -33 -36 -60q-30 -30 -62 -31q-15 0 -24 5q-7 1 -48 29q-5 3 -29 8q-34 -1 -53 -47h-35q10 36 36 62q30 30 64 31q18 1 26 -4l46 -26
q21 -12 32 -12q26 1 47 45h36z" />
    <glyph glyph-name="logicalnot" unicode="&#xac;" horiz-adv-x="839" 
d="M820 0h-285v71h104l-66 187h-317l-66 -187h105v-71h-280v71h80l267 701h111l267 -701h80v-71zM543 329l-129 359l-129 -359h258zM543 792h-52l-77 93l-75 -93h-51l92 124h72zM549 930l15 14q17 16 21 25q4 6 6 25q0 44 -42 45q-38 1 -46 -49l-24 10q6 71 77 71
q73 0 75 -68q1 -34 -32 -65l-15 -14q-20 -19 -20 -59h-43q0 39 28 65z" />
    <glyph glyph-name="radical" unicode="&#x221a;" horiz-adv-x="839" 
d="M820 0h-285v71h104l-66 187h-317l-66 -187h105v-71h-280v71h80l267 701h111l267 -701h80v-71zM543 329l-129 359l-129 -359h258zM543 792h-52l-77 93l-75 -93h-51l92 124h72zM559 1026q-9 -33 -36 -60q-30 -30 -62 -31q-15 0 -24 5q-7 1 -48 29q-5 3 -29 8
q-34 -1 -53 -47h-35q10 36 36 62q30 30 64 31q18 1 26 -4l46 -26q21 -12 32 -12q26 1 47 45h36z" />
    <glyph glyph-name="approxequal" unicode="&#x2248;" horiz-adv-x="720" 
d="M648 0h-617v71h110v629h-110v69h611v-230h-81v158h-326v-271h160v117h77v-304h-77v116h-160v-281h330v165h83v-239zM464 792h-52l-77 93l-75 -93h-51l92 124h72zM247 885h-50l-117 118v8h79z" />
    <glyph glyph-name="approxequal" unicode="&#x22f2;" horiz-adv-x="720" 
d="M648 0h-617v71h110v629h-110v69h611v-230h-81v158h-326v-271h160v117h77v-304h-77v116h-160v-281h330v165h83v-239zM464 792h-52l-77 93l-75 -93h-51l92 124h72zM247 885h-50l-117 118v8h79z" />
    <glyph glyph-name="Delta" unicode="&#x394;" 
d="M577 0h-167v124q-38 -132 -182 -132q-178 0 -179 171q-1 105 83 147q60 29 177 30q32 0 95 -3q0 90 -14 118q-30 59 -117 60q-106 1 -117 -112h-91q12 177 213 177q115 0 172 -66q38 -44 38 -152v-294h89v-68zM404 274q-28 5 -70 5q-89 1 -130 -16q-64 -26 -65 -100
q-1 -107 105 -107q80 0 125 71q27 43 35 147zM292 -151h-94v92l45 1l49 -1v-92zM411 720q-18 -110 -134 -110t-130 110h40q14 -68 93 -68q74 0 91 68h40z" />
    <glyph glyph-name="Delta" unicode="&#x2206;" 
d="M577 0h-167v124q-38 -132 -182 -132q-178 0 -179 171q-1 105 83 147q60 29 177 30q32 0 95 -3q0 90 -14 118q-30 59 -117 60q-106 1 -117 -112h-91q12 177 213 177q115 0 172 -66q38 -44 38 -152v-294h89v-68zM404 274q-28 5 -70 5q-89 1 -130 -16q-64 -26 -65 -100
q-1 -107 105 -107q80 0 125 71q27 43 35 147zM292 -151h-94v92l45 1l49 -1v-92zM411 720q-18 -110 -134 -110t-130 110h40q14 -68 93 -68q74 0 91 68h40z" />
    <glyph glyph-name="nonbreakingspace" unicode="&#xa0;" horiz-adv-x="579" 
 />
    <glyph glyph-name="Agrave" unicode="&#xc0;" horiz-adv-x="839" 
d="M438 812h-50l-117 118v8h79zM820 0h-285v71h104l-66 187h-317l-66 -187h105v-71h-280v71h80l267 701h111l267 -701h80v-71zM543 329l-129 359l-129 -359h258z" />
    <glyph glyph-name="Atilde" unicode="&#xc3;" horiz-adv-x="839" 
d="M820 0h-285v71h104l-66 187h-317l-66 -187h105v-71h-280v71h80l267 701h111l267 -701h80v-71zM543 329l-129 359l-129 -359h258zM559 903q-9 -33 -36 -60q-30 -30 -62 -31q-15 0 -24 5q-7 1 -48 29q-5 3 -29 8q-34 -1 -53 -47h-35q10 36 36 62q30 30 64 31q18 1 26 -4
l46 -26q21 -12 32 -12q26 1 47 45h36z" />
    <glyph glyph-name="Otilde" unicode="&#xd5;" horiz-adv-x="839" 
d="M778 395q0 -181 -86 -289q-93 -118 -270 -119q-178 -1 -273 118q-87 108 -88 291q-1 174 91 283q97 116 268 117q172 1 268 -117q90 -109 90 -284zM676 398q1 139 -58 226q-68 101 -201 101t-198 -103q-55 -86 -56 -227q-1 -140 55 -229q66 -106 199 -107q136 -1 203 106
q55 89 56 233zM565 927q-9 -33 -36 -60q-30 -30 -62 -31q-15 0 -24 5q-7 1 -48 29q-5 3 -29 8q-34 -1 -53 -47h-35q10 36 36 62q30 30 64 31q18 1 26 -4l46 -26q21 -12 32 -12q26 1 47 45h36z" />
    <glyph glyph-name="divide" unicode="&#xf7;" 
d="M553 263h-408q0 -90 40 -146q46 -65 132 -66q58 -1 98 32.5t50 90.5h81q-8 -89 -78 -141q-64 -48 -156 -48q-128 0 -196 86q-61 77 -62 209q-1 131 62 211q68 87 196 87q240 0 241 -315zM462 327q-4 79 -38 129q-40 59 -114 60q-137 1 -162 -189h314zM441 600h-52l-77 93
l-75 -93h-51l92 124h72zM361 -159h-94v92l45 1l49 -1v-92z" />
    <glyph glyph-name="lozenge" unicode="&#x25ca;" horiz-adv-x="319" 
d="M299 0h-261v67h88v429h-88v66h177v-495h84v-67zM194 612h-50l-117 118v8h79z" />
    <glyph glyph-name="ydieresis" unicode="&#xff;" horiz-adv-x="319" 
d="M299 0h-261v67h88v429h-88v66h177v-495h84v-67zM178 667l15 14q17 16 21 25q4 6 6 25q0 44 -42 45q-38 1 -46 -49l-24 10q6 71 77 71q73 0 75 -68q1 -34 -32 -65l-15 -14q-20 -19 -20 -59h-43q0 39 28 65z" />
    <glyph glyph-name="Ydieresis" unicode="&#x178;" horiz-adv-x="720" 
d="M648 0h-617v71h110v629h-110v69h611v-230h-81v158h-326v-271h160v117h77v-304h-77v116h-160v-281h330v165h83v-239zM464 792h-52l-77 93l-75 -93h-51l92 124h72zM480 1026q-9 -33 -36 -60q-30 -30 -62 -31q-15 0 -24 5q-7 1 -48 29q-5 3 -29 8q-34 -1 -53 -47h-35
q10 36 36 62q30 30 64 31q18 1 26 -4l46 -26q21 -12 32 -12q26 1 47 45h36z" />
    <glyph glyph-name="Acircumflex" unicode="&#xc2;" horiz-adv-x="839" 
d="M820 0h-285v71h104l-66 187h-317l-66 -187h105v-71h-280v71h80l267 701h111l267 -701h80v-71zM543 329l-129 359l-129 -359h258zM543 792h-52l-77 93l-75 -93h-51l92 124h72z" />
    <glyph glyph-name="Ecircumflex" unicode="&#xca;" horiz-adv-x="720" 
d="M648 0h-617v71h110v629h-110v69h611v-230h-81v158h-326v-271h160v117h77v-304h-77v116h-160v-281h330v165h83v-239zM464 790h-52l-77 93l-75 -93h-51l92 124h72z" />
    <glyph glyph-name="Aacute" unicode="&#xc1;" horiz-adv-x="839" 
d="M820 0h-285v71h104l-66 187h-317l-66 -187h105v-71h-280v71h80l267 701h111l267 -701h80v-71zM543 329l-129 359l-129 -359h258zM557 930l-117 -118h-50l88 126h79v-8z" />
    <glyph glyph-name="Edieresis" unicode="&#xcb;" 
d="M559 281q0 -123 -65 -205q-71 -88 -191 -89q-130 -1 -200 90q-62 82 -63 216q-1 124 67 204q72 84 194 84q126 0 195 -89q63 -81 63 -211zM465 288q0 90 -37 152q-44 75 -128 75q-87 0 -131 -76q-37 -63 -37 -156q0 -89 38 -152q44 -75 127 -77q87 -2 132 77
q36 63 36 157zM430 600h-52l-77 93l-75 -93h-51l92 124h72zM560 811l-117 -118h-50l88 126h79v-8z" />
    <glyph glyph-name="Egrave" unicode="&#xc8;" horiz-adv-x="720" 
d="M648 0h-617v71h110v629h-110v69h611v-230h-81v158h-326v-271h160v117h77v-304h-77v116h-160v-281h330v165h83v-239zM359 812h-50l-117 118v8h79z" />
    <glyph glyph-name="Iacute" unicode="&#xcd;" horiz-adv-x="360" 
d="M336 0h-311v69h108v631h-108v69h311v-69h-108v-631h108v-69zM324 930l-117 -118h-50l88 126h79v-8z" />
    <glyph glyph-name="Icircumflex" unicode="&#xce;" 
d="M465 288q0 90 -37 152q-44 75 -128 75q-87 0 -131 -76q-37 -63 -37 -156q0 -89 38 -152q44 -75 127 -77q87 -2 132 77q36 63 36 157zM405 561q61 2 60 10t-11.5 23.5t-10.5 24.5q0 19 16 34t35 15q21 0 36.5 -15.5t15.5 -36.5q0 -27 -31 -48q-16 -11 -64 -33
q108 -77 108 -254q0 -123 -65 -205q-71 -88 -191 -89q-130 -1 -200 90q-62 82 -63 216q-1 124 67 204q72 84 194 84q56 0 104 -20zM308 686l15 14q17 16 21 25q4 6 6 25q0 44 -42 45q-38 1 -46 -49l-24 10q6 71 77 71q73 0 75 -68q1 -34 -32 -65l-15 -14q-20 -19 -20 -59
h-43q0 39 28 65z" />
    <glyph glyph-name="Idieresis" unicode="&#xcf;" 
d="M465 288q0 90 -37 152q-44 75 -128 75q-87 0 -131 -76q-37 -63 -37 -156q0 -89 38 -152q44 -75 127 -77q87 -2 132 77q36 63 36 157zM405 561q61 2 60 10t-11.5 23.5t-10.5 24.5q0 19 16 34t35 15q21 0 36.5 -15.5t15.5 -36.5q0 -27 -31 -48q-16 -11 -64 -33
q108 -77 108 -254q0 -123 -65 -205q-71 -88 -191 -89q-130 -1 -200 90q-62 82 -63 216q-1 124 67 204q72 84 194 84q56 0 104 -20zM446 721q-9 -33 -36 -60q-30 -30 -62 -31q-15 0 -24 5q-7 1 -48 29q-5 3 -29 8q-34 -1 -53 -47h-35q10 36 36 62q30 30 64 31q18 1 26 -4
l46 -26q21 -12 32 -12q26 1 47 45h36z" />
    <glyph glyph-name="Igrave" unicode="&#xcc;" horiz-adv-x="360" 
d="M336 0h-311v69h108v631h-108v69h311v-69h-108v-631h108v-69zM205 812h-50l-117 118v8h79z" />
    <glyph glyph-name="Oacute" unicode="&#xd3;" horiz-adv-x="839" 
d="M778 395q0 -181 -86 -289q-93 -118 -270 -119q-178 -1 -273 118q-87 108 -88 291q-1 174 91 283q97 116 268 117q172 1 268 -117q90 -109 90 -284zM676 398q1 139 -58 226q-68 101 -201 101t-198 -103q-55 -86 -56 -227q-1 -140 55 -229q66 -106 199 -107q136 -1 203 106
q55 89 56 233zM563 954l-117 -118h-50l88 126h79v-8z" />
    <glyph glyph-name="Ocircumflex" unicode="&#xd4;" horiz-adv-x="839" 
d="M778 395q0 -181 -86 -289q-93 -118 -270 -119q-178 -1 -273 118q-87 108 -88 291q-1 174 91 283q97 116 268 117q172 1 268 -117q90 -109 90 -284zM676 398q1 139 -58 226q-68 101 -201 101t-198 -103q-55 -86 -56 -227q-1 -140 55 -229q66 -106 199 -107q136 -1 203 106
q55 89 56 233zM549 812h-52l-77 93l-75 -93h-51l92 124h72z" />
    <glyph glyph-name="apple" unicode="&#xf000;" horiz-adv-x="839" 
d="M778 395q0 -181 -86 -289q-93 -118 -270 -119q-178 -1 -273 118q-87 108 -88 291q-1 174 91 283q97 116 268 117q172 1 268 -117q90 -109 90 -284zM676 398q1 139 -58 226q-68 101 -201 101t-198 -103q-55 -86 -56 -227q-1 -140 55 -229q66 -106 199 -107q136 -1 203 106
q55 89 56 233zM549 812h-52l-77 93l-75 -93h-51l92 124h72zM565 1046q-9 -33 -36 -60q-30 -30 -62 -31q-15 0 -24 5q-7 1 -48 29q-5 3 -29 8q-34 -1 -53 -47h-35q10 36 36 62q30 30 64 31q18 1 26 -4l46 -26q21 -12 32 -12q26 1 47 45h36z" />
    <glyph glyph-name="Ograve" unicode="&#xd2;" horiz-adv-x="839" 
d="M778 395q0 -181 -86 -289q-93 -118 -270 -119q-178 -1 -273 118q-87 108 -88 291q-1 174 91 283q97 116 268 117q172 1 268 -117q90 -109 90 -284zM676 398q1 139 -58 226q-68 101 -201 101t-198 -103q-55 -86 -56 -227q-1 -140 55 -229q66 -106 199 -107q136 -1 203 106
q55 89 56 233zM444 836h-50l-117 118v8h79z" />
    <glyph glyph-name="Uacute" unicode="&#xda;" horiz-adv-x="779" 
d="M762 699h-96v-385q0 -139 -47 -211q-75 -116 -224 -117q-150 -1 -230 104q-54 71 -54 196v413h-95v69h306v-69h-116v-422q0 -94 45 -151q49 -62 141 -64q98 -2 148 73q43 64 43 167v397h-113v69h292v-69zM539 906l-117 -118h-50l88 126h79v-8z" />
    <glyph glyph-name="Ucircumflex" unicode="&#xdb;" horiz-adv-x="659" 
d="M631 0h-174v124q-9 -67 -59 -103q-46 -33 -116 -33q-172 0 -172 216v294h-88v64h177v-357q0 -149 108 -151q75 -1 114 67q31 56 31 137v240h-94v64h182v-494h91v-68zM470 718l-117 -118h-50l88 126h79v-8z" />
    <glyph glyph-name="Ugrave" unicode="&#xd9;" horiz-adv-x="779" 
d="M762 699h-96v-385q0 -139 -47 -211q-75 -116 -224 -117q-150 -1 -230 104q-54 71 -54 196v413h-95v69h306v-69h-116v-422q0 -94 45 -151q49 -62 141 -64q98 -2 148 73q43 64 43 167v397h-113v69h292v-69zM420 788h-50l-117 118v8h79z" />
    <glyph glyph-name="glyph245" horiz-adv-x="347" 
 />
    <glyph glyph-name="glyph246" horiz-adv-x="347" 
 />
    <glyph glyph-name="glyph258" horiz-adv-x="322" 
 />
    <glyph glyph-name="glyph259" horiz-adv-x="322" 
 />
    <glyph glyph-name="sfthyphen" unicode="&#xad;" horiz-adv-x="391" 
d="M9 201l38 141h285l-38 -141h-285z" />
    <glyph glyph-name="Cacute" unicode="&#x106;" horiz-adv-x="823" 
d="M717 259q-2 -129 -89 -202q-82 -70 -213 -71q-180 -1 -269 116q-80 105 -80 290q0 173 82 276q89 113 258 113q171 0 228 -123v111h78v-273h-83q-24 210 -214 211q-132 1 -194 -100q-51 -82 -52 -223q-1 -136 51 -220q62 -101 191 -102q185 -2 208 197h98zM764 576
q0 -123 -65 -205q-71 -88 -191 -89q-130 -1 -200 90q-62 82 -63 216q-1 124 67 204q72 84 194 84q126 0 195 -89q63 -81 63 -211zM670 583q0 90 -37 152q-44 75 -128 75q-87 0 -131 -76q-37 -63 -37 -156q0 -89 38 -152q44 -75 127 -77q87 -2 132 77q36 63 36 157zM635 895
h-52l-77 93l-75 -93h-51l92 124h72z" />
    <glyph glyph-name="cacute" unicode="&#x107;" horiz-adv-x="510" 
d="M509 185q-3 -90 -64.5 -143.5t-152.5 -54.5q-122 -1 -190 90q-61 81 -62 208q-1 119 58 199q65 89 181 90q53 0 97.5 -28t59.5 -76v89h68v-208h-68q0 63 -39 107.5t-101 45.5q-82 1 -125 -71q-35 -59 -36 -147q-1 -90 35 -152q43 -76 127 -76q101 0 132 127h80zM534 281
q0 -123 -65 -205q-71 -88 -191 -89q-130 -1 -200 90q-62 82 -63 216q-1 124 67 204q72 84 194 84q126 0 195 -89q63 -81 63 -211zM440 288q0 90 -37 152q-44 75 -128 75q-87 0 -131 -76q-37 -63 -37 -156q0 -89 38 -152q44 -75 127 -77q87 -2 132 77q36 63 36 157zM405 600
h-52l-77 93l-75 -93h-51l92 124h72z" />
    <glyph glyph-name="Ccaron" unicode="&#x10c;" horiz-adv-x="823" 
d="M717 259q-2 -129 -89 -202q-82 -70 -213 -71q-180 -1 -269 116q-80 105 -80 290q0 173 82 276q89 113 258 113q171 0 228 -123v111h78v-273h-83q-24 210 -214 211q-132 1 -194 -100q-51 -82 -52 -223q-1 -136 51 -220q62 -101 191 -102q185 -2 208 197h98zM983 690
q0 -181 -86 -289q-93 -118 -270 -119q-178 -1 -273 118q-87 108 -88 291q-1 174 91 283q97 116 268 117q172 1 268 -117q90 -109 90 -284zM881 693q1 139 -58 226q-68 101 -201 101t-198 -103q-55 -86 -56 -227q-1 -140 55 -229q66 -106 199 -107q136 -1 203 106
q55 89 56 233zM754 1107h-52l-77 93l-75 -93h-51l92 124h72zM884 1318l-117 -118h-50l88 126h79v-8z" />
    <glyph glyph-name="ccaron" unicode="&#x10d;" horiz-adv-x="510" 
d="M509 185q-3 -90 -64.5 -143.5t-152.5 -54.5q-122 -1 -190 90q-61 81 -62 208q-1 119 58 199q65 89 181 90q53 0 97.5 -28t59.5 -76v89h68v-208h-68q0 63 -39 107.5t-101 45.5q-82 1 -125 -71q-35 -59 -36 -147q-1 -90 35 -152q43 -76 127 -76q101 0 132 127h80zM753 395
q0 -181 -86 -289q-93 -118 -270 -119q-178 -1 -273 118q-87 108 -88 291q-1 174 91 283q97 116 268 117q172 1 268 -117q90 -109 90 -284zM651 398q1 139 -58 226q-68 101 -201 101t-198 -103q-55 -86 -56 -227q-1 -140 55 -229q66 -106 199 -107q136 -1 203 106
q55 89 56 233zM524 812h-52l-77 93l-75 -93h-51l92 124h72zM654 1023l-117 -118h-50l88 126h79v-8z" />
    <glyph glyph-name="Dslash" unicode="&#x110;" horiz-adv-x="771" 
d="M720 385q2 -187 -109 -296q-90 -89 -257 -89h-280v359h-87v76h87v337h285q177 0 271 -107q89 -100 90 -280zM622 386q0 144 -68 222q-72 83 -214 83h-170v-256h126v-76h-126v-278h170q282 0 282 305z" />
    <glyph glyph-name="dcroat" unicode="&#x111;" horiz-adv-x="659" 
d="M639 0h-174v119q-15 -62 -68 -97q-48 -32 -115 -32q-118 -1 -180 86q-55 76 -55 199q0 129 50 206q60 92 183 93q59 0 109 -32t71 -86v251h-90v66h178v-707h91v-66zM465 278q0 91 -35 153q-43 77 -128 77q-162 0 -164 -220q-1 -96 33 -156q42 -75 131 -76q82 -1 126 73
q37 61 37 149zM279 677h309v-54h-309v54z" />
    <glyph glyph-name="Gbreve" unicode="&#x11e;" horiz-adv-x="887" 
d="M812 311h-98v-311h-88v120q-23 -67 -95 -102q-60 -30 -139 -31q-73 -1 -141 32.5t-112 91.5q-77 101 -77 273q0 174 81 279q89 117 258 118q174 1 219 -122v109h85v-270h-85q-2 97 -60 153t-155 57q-121 1 -185 -101q-54 -85 -55 -214q-1 -139 49 -224q61 -105 191 -107
q96 -1 159 69q62 67 62 164v16h-118v70h304v-70zM751 857q42 0 41 9q-1 8 -11.5 23.5t-10.5 24.5q0 19 16 34t35 15q21 0 36.5 -15.5t15.5 -36.5q0 -28 -34 -50l-72 -36v-462h91v-68h-174v124q-9 -67 -59 -103q-46 -33 -116 -33q-172 0 -172 216v294h-88v64h177v-357
q0 -149 108 -151q75 -1 114 67q31 56 31 137v240h-94v64h166zM602 141h-94v92l45 1l49 -1v-92z" />
    <glyph glyph-name="gbreve" unicode="&#x11f;" horiz-adv-x="569" 
d="M635 496h-89v-452q0 -115 -68 -175q-64 -57 -181 -58q-201 -2 -224 149h96q11 -84 128 -85q118 -1 151 82q14 35 14 149v26q-39 -123 -188 -124q-114 -1 -176 87q-55 77 -56 195q-1 127 51 201q59 85 182 86q66 1 118 -32q58 -36 69 -98v115h173v-66zM460 290
q1 103 -40 155q-52 66 -126 66q-81 0 -124 -70q-36 -58 -37 -145q-1 -89 34 -149q42 -72 125 -73q85 -1 129 68q38 58 39 148zM519 562q42 0 41 9q-1 8 -11.5 23.5t-10.5 24.5q0 19 16 34t35 15q21 0 36.5 -15.5t15.5 -36.5q0 -28 -34 -50l-72 -36v-462h91v-68h-174v124
q-9 -67 -59 -103q-46 -33 -116 -33q-172 0 -172 216v294h-88v64h177v-357q0 -149 108 -151q75 -1 114 67q31 56 31 137v240h-94v64h166zM370 -154h-94v92l45 1l49 -1v-92z" />
    <glyph glyph-name="Idotaccent" unicode="&#x130;" horiz-adv-x="496" 
d="M336 0h-311v69h108v631h-108v69h311v-69h-108v-631h108v-69zM614 791h-48l-189 -513q-32 -87 -59 -120q-41 -50 -116 -50q-44 0 -66 7v71q36 -8 56 -8q37 -1 54 19q12 10 28 46q15 33 18 51l-188 497h-53v64h238v-64h-87l128 -355q10 -28 10 -46q3 21 18 64l116 337h-88
v64h228v-64zM361 875h-50l-117 118v8h79z" />
    <glyph glyph-name="Scedilla" unicode="&#x15e;" horiz-adv-x="759" 
d="M555 205q0 -102 -62.5 -160t-165.5 -58q-159 0 -193 110v-97h-82v258h82q1 -87 43 -140q46 -58 131 -58q67 0 107.5 35.5t41.5 101.5q1 54 -34 87q-25 24 -85 46l-96 36q-106 40 -139 68q-53 46 -53 136q0 100 67 156q62 53 164 54q130 1 173 -96v84h83v-252h-83
q-4 192 -166 193q-60 0 -100 -34t-41 -93q-1 -55 32 -83q20 -17 84 -41l121 -45q86 -32 124 -74q47 -50 47 -134zM628 496h-48l-189 -513q-32 -87 -59 -120q-41 -50 -116 -50q-44 0 -66 7v71q36 -8 56 -8q37 -1 54 19q12 10 28 46q15 33 18 51l-188 497h-53v64h238v-64h-87
l128 -355q10 -28 10 -46q3 21 18 64l116 337h-88v64h228v-64zM496 681q-9 -33 -36 -60q-30 -30 -62 -31q-15 0 -24 5q-7 1 -48 29q-5 3 -29 8q-34 -1 -53 -47h-35q10 36 36 62q30 30 64 31q18 1 26 -4l46 -26q21 -12 32 -12q26 1 47 45h36z" />
    <glyph glyph-name="scedilla" unicode="&#x15f;" horiz-adv-x="443" 
d="M480 167q0 -87 -57 -134q-52 -43 -142 -45q-102 -2 -154 99v-87h-68v194h68q0 -135 130 -138q46 -1 86 27q45 30 46 74q1 41 -25 59q-20 18 -86 29l-62 10q-78 13 -112 43q-40 35 -40 110q0 81 58 126q52 41 135 42q110 1 147 -92v78h66v-184h-66q0 8 1 14q0 56 -38.5 87
t-95.5 31q-122 1 -122 -92q0 -43 26 -63q20 -15 66 -22l64 -10q175 -27 175 -156zM516 496h-48l-189 -513q-32 -87 -59 -120q-41 -50 -116 -50q-44 0 -66 7v71q36 -8 56 -8q37 -1 54 19q12 10 28 46q15 33 18 51l-188 497h-53v64h238v-64h-87l128 -355q10 -28 10 -46
q3 21 18 64l116 337h-88v64h228v-64zM384 681q-9 -33 -36 -60q-30 -30 -62 -31q-15 0 -24 5q-7 1 -48 29q-5 3 -29 8q-34 -1 -53 -47h-35q10 36 36 62q30 30 64 31q18 1 26 -4l46 -26q21 -12 32 -12q26 1 47 45h36z" />
    <glyph glyph-name="franc" unicode="&#x20a3;" horiz-adv-x="1197" 
d="M617 536h-82v161h-309v-284h153v113h77v-299h-77v114h-153v-270h127v-71h-330v71h109v629h-109v69h594v-233zM1158 492q-18 3 -40 3q-80 0 -119 -60q-34 -51 -34 -135v-234h106v-66h-283v66h90v432h-90v64h172v-127q19 136 161 139q14 0 37 -4v-78z" />
    <glyph glyph-name="u20AB" unicode="&#x20ab;" horiz-adv-x="455" 
d="M228 580q-56 0 -97 -102q-23 -57 -23 -104q0 -59 45 -59q46 0 85 82q33 70 33 124q0 59 -43 59zM231 309q-61 -72 -122 -72q-52 0 -80 34q-26 31 -26 84q0 94 62 177q68 90 159 90q40 0 71 -27l23 86h-116l12 42h116l2 19q0 36 -55 37l8 38q78 2 148 16q16 3 17 4
q7 0 7 -11q0 -4 -3 -14l-22 -89h75l-12 -42h-75l-80 -323q-6 -24 -6 -32q0 -17 14 -17q7 0 57 49l23 -21q-81 -100 -135 -100q-50 0 -62 72zM10 185h256v-65h-256v65z" />
    <glyph glyph-name="SF370000" unicode="&#x255f;" horiz-adv-x="831" 
d="M820 0h-285v71h104l-66 187h-317l-66 -187h105v-71h-280v71h80l267 701h111l267 -701h80v-71zM543 329l-129 359l-129 -359h258z" />
    <glyph glyph-name="SF420000" unicode="&#x2560;" horiz-adv-x="788" 
d="M648 0h-617v71h110v629h-110v69h611v-230h-81v158h-326v-271h160v117h77v-304h-77v116h-160v-281h330v165h83v-239z" />
    <glyph glyph-name="SF190000" unicode="&#x2561;" horiz-adv-x="496" 
d="M336 0h-311v69h108v631h-108v69h311v-69h-108v-631h108v-69z" />
    <glyph glyph-name="SF200000" unicode="&#x2562;" horiz-adv-x="894" 
d="M778 395q0 -181 -86 -289q-93 -118 -270 -119q-178 -1 -273 118q-87 108 -88 291q-1 174 91 283q97 116 268 117q172 1 268 -117q90 -109 90 -284zM676 398q1 139 -58 226q-68 101 -201 101t-198 -103q-55 -86 -56 -227q-1 -140 55 -229q66 -106 199 -107q136 -1 203 106
q55 89 56 233z" />
    <glyph glyph-name="SF230000" unicode="&#x2563;" horiz-adv-x="938" 
d="M762 699h-96v-385q0 -139 -47 -211q-75 -116 -224 -117q-150 -1 -230 104q-54 71 -54 196v413h-95v69h306v-69h-116v-422q0 -94 45 -151q49 -62 141 -64q98 -2 148 73q43 64 43 167v397h-113v69h292v-69z" />
    <glyph glyph-name="SF470000" unicode="&#x2564;" horiz-adv-x="809" 
d="M705 701h-61l-239 -384v-246h119v-71h-332v71h119v246l-237 384h-58v68h271v-68h-104l181 -301l179 301h-101v68h263v-68z" />
    <glyph glyph-name="SF480000" unicode="&#x2565;" horiz-adv-x="626" 
d="M577 0h-167v124q-38 -132 -182 -132q-178 0 -179 171q-1 105 83 147q60 29 177 30q32 0 95 -3q0 90 -14 118q-30 59 -117 60q-106 1 -117 -112h-91q12 177 213 177q115 0 172 -66q38 -44 38 -152v-294h89v-68zM404 274q-28 5 -70 5q-89 1 -130 -16q-64 -26 -65 -100
q-1 -107 105 -107q80 0 125 71q27 43 35 147z" />
    <glyph glyph-name="SF410000" unicode="&#x2566;" horiz-adv-x="499" 
d="M553 263h-408q0 -90 40 -146q46 -65 132 -66q58 -1 98 32.5t50 90.5h81q-8 -89 -78 -141q-64 -48 -156 -48q-128 0 -196 86q-61 77 -62 209q-1 131 62 211q68 87 196 87q240 0 241 -315zM462 327q-4 79 -38 129q-40 59 -114 60q-137 1 -162 -189h314z" />
    <glyph glyph-name="SF450000" unicode="&#x2567;" horiz-adv-x="363" 
d="M299 0h-261v67h88v429h-88v66h177v-495h84v-67zM220 611h-99v93h99v-93z" />
    <glyph glyph-name="SF460000" unicode="&#x2568;" horiz-adv-x="363" 
d="M524 562q42 0 41 9q-1 8 -11.5 23.5t-10.5 24.5q0 19 16 34t35 15q21 0 36.5 -15.5t15.5 -36.5q0 -28 -34 -50l-72 -36v-462h91v-68h-174v124q-9 -67 -59 -103q-46 -33 -116 -33q-172 0 -172 216v294h-88v64h177v-357q0 -149 108 -151q75 -1 114 67q31 56 31 137v240h-94
v64h166zM350 600h-50l-117 118v8h79z" />
    <glyph glyph-name="SF400000" unicode="&#x2569;" horiz-adv-x="576" 
d="M559 281q0 -123 -65 -205q-71 -88 -191 -89q-130 -1 -200 90q-62 82 -63 216q-1 124 67 204q72 84 194 84q126 0 195 -89q63 -81 63 -211zM465 288q0 90 -37 152q-44 75 -128 75q-87 0 -131 -76q-37 -63 -37 -156q0 -89 38 -152q44 -75 127 -77q87 -2 132 77
q36 63 36 157z" />
    <glyph glyph-name="SF540000" unicode="&#x256a;" horiz-adv-x="644" 
d="M631 0h-174v124q-9 -67 -59 -103q-46 -33 -116 -33q-172 0 -172 216v294h-88v64h177v-357q0 -149 108 -151q75 -1 114 67q31 56 31 137v240h-94v64h182v-494h91v-68z" />
    <glyph glyph-name="SF530000" unicode="&#x256b;" horiz-adv-x="575" 
d="M583 496h-48l-189 -513q-32 -87 -59 -120q-41 -50 -116 -50q-44 0 -66 7v71q36 -8 56 -8q37 -1 54 19q12 10 28 46q15 33 18 51l-188 497h-53v64h238v-64h-87l128 -355q10 -28 10 -46q3 21 18 64l116 337h-88v64h228v-64z" />
    <glyph glyph-name="circle" unicode="&#x25cb;" horiz-adv-x="831" 
d="M788 830q42 0 41 9q-1 8 -11.5 23.5t-10.5 24.5q0 19 16 34t35 15q21 0 36.5 -15.5t15.5 -36.5q0 -28 -34 -50l-72 -36v-462h91v-68h-174v124q-9 -67 -59 -103q-46 -33 -116 -33q-172 0 -172 216v294h-88v64h177v-357q0 -149 108 -151q75 -1 114 67q31 56 31 137v240h-94
v64h166zM597 923l15 14q17 16 21 25q4 6 6 25q0 44 -42 45q-38 1 -46 -49l-24 10q6 71 77 71q73 0 75 -68q1 -34 -32 -65l-15 -14q-20 -19 -20 -59h-43q0 39 28 65zM793 767q0 -123 -65 -205q-71 -88 -191 -89q-130 -1 -200 90q-62 82 -63 216q-1 124 67 204q72 84 194 84
q126 0 195 -89q63 -81 63 -211zM699 774q0 90 -37 152q-44 75 -128 75q-87 0 -131 -76q-37 -63 -37 -156q0 -89 38 -152q44 -75 127 -77q87 -2 132 77q36 63 36 157zM664 1086h-52l-77 93l-75 -93h-51l92 124h72z" />
    <glyph glyph-name="H18533" unicode="&#x25cf;" horiz-adv-x="831" 
d="M788 830q42 0 41 9q-1 8 -11.5 23.5t-10.5 24.5q0 19 16 34t35 15q21 0 36.5 -15.5t15.5 -36.5q0 -28 -34 -50l-72 -36v-462h91v-68h-174v124q-9 -67 -59 -103q-46 -33 -116 -33q-172 0 -172 216v294h-88v64h177v-357q0 -149 108 -151q75 -1 114 67q31 56 31 137v240h-94
v64h166zM597 923l15 14q17 16 21 25q4 6 6 25q0 44 -42 45q-38 1 -46 -49l-24 10q6 71 77 71q73 0 75 -68q1 -34 -32 -65l-15 -14q-20 -19 -20 -59h-43q0 39 28 65zM1093 1241q-1 8 -11.5 23t-10.5 25q0 19 16 34t35 15q21 0 36.5 -15.5t15.5 -36.5q0 -28 -34 -50
q-16 -10 -68 -34q-11 -5 -46 -16v-385q0 -139 -47 -211q-75 -116 -224 -117q-150 -1 -230 104q-54 71 -54 196v413h-95v69h306v-69h-116v-422q0 -94 45 -151q49 -62 141 -64q98 -2 148 73q43 64 43 167v397h-113v69q38 1 106 -4q51 -4 106 -10q50 -5 42 -5q10 0 9 5z
M899 1393l-117 -118h-50l88 126h79v-8z" />
    <glyph glyph-name="invbullet" unicode="&#x25d8;" horiz-adv-x="831" 
d="M788 830q42 0 41 9q-1 8 -11.5 23.5t-10.5 24.5q0 19 16 34t35 15q21 0 36.5 -15.5t15.5 -36.5q0 -28 -34 -50l-72 -36v-462h91v-68h-174v124q-9 -67 -59 -103q-46 -33 -116 -33q-172 0 -172 216v294h-88v64h177v-357q0 -149 108 -151q75 -1 114 67q31 56 31 137v240h-94
v64h166zM597 923l15 14q17 16 21 25q4 6 6 25q0 44 -42 45q-38 1 -46 -49l-24 10q6 71 77 71q73 0 75 -68q1 -34 -32 -65l-15 -14q-20 -19 -20 -59h-43q0 39 28 65zM711 1045q10 31 12 74q1 13 10 15q3 0 9 1q77 13 77 63q0 40 -32 40q-5 0 -16 -1t-16 -1q-25 0 -25 21
q0 32 37 32q55 0 87 -28q36 -30 31 -83q-6 -68 -100 -94q-29 -8 -36 -39h-38z" />
    <glyph glyph-name="invcircle" unicode="&#x25d9;" horiz-adv-x="831" 
d="M788 830q42 0 41 9q-1 8 -11.5 23.5t-10.5 24.5q0 19 16 34t35 15q21 0 36.5 -15.5t15.5 -36.5q0 -28 -34 -50l-72 -36v-462h91v-68h-174v124q-9 -67 -59 -103q-46 -33 -116 -33q-172 0 -172 216v294h-88v64h177v-357q0 -149 108 -151q75 -1 114 67q31 56 31 137v240h-94
v64h166zM597 923l15 14q17 16 21 25q4 6 6 25q0 44 -42 45q-38 1 -46 -49l-24 10q6 71 77 71q73 0 75 -68q1 -34 -32 -65l-15 -14q-20 -19 -20 -59h-43q0 39 28 65zM842 1048q42 0 41 9q-1 8 -11.5 23.5t-10.5 24.5q0 19 16 34t35 15q21 0 36.5 -15.5t15.5 -36.5
q0 -28 -34 -50l-72 -36v-462h91v-68h-174v124q-9 -67 -59 -103q-46 -33 -116 -33q-172 0 -172 216v294h-88v64h177v-357q0 -149 108 -151q75 -1 114 67q31 56 31 137v240h-94v64h166zM789 1177q-9 -33 -36 -60q-30 -30 -62 -31q-15 0 -24 5q-7 1 -48 29q-5 3 -29 8
q-34 -1 -53 -47h-35q10 36 36 62q30 30 64 31q18 1 26 -4l46 -26q21 -12 32 -12q26 1 47 45h36z" />
    <glyph glyph-name="glyph275" horiz-adv-x="288" 
 />
    <glyph glyph-name="glyph276" horiz-adv-x="288" 
 />
    <glyph glyph-name="ch270" unicode="&#xb7;" horiz-adv-x="288" 
d="M44 403q0 40 26.5 66t66.5 26q39 0 66 -26.5t27 -65.5q0 -40 -26.5 -67t-66.5 -27t-66.5 27t-26.5 67z" />
    <glyph glyph-name="ch270" unicode="&#x2219;" horiz-adv-x="288" 
d="M44 403q0 40 26.5 66t66.5 26q39 0 66 -26.5t27 -65.5q0 -40 -26.5 -67t-66.5 -27t-66.5 27t-26.5 67z" />
    <glyph glyph-name="euro" horiz-adv-x="576" 
d="M604 732l-27 -180l-55 7q0 181 -109 181q-119 0 -186 -244h199l-25 -55h-189q-7 -28 -19 -85h170l-24 -54h-155q-7 -47 -7 -86q0 -155 115 -155q67 0 116 79q29 47 59 138l64 -12l-62 -217q-90 -62 -184 -62q-129 0 -193 97q-54 82 -54 218h-85l24 54h65q3 29 14 85h-77
l24 55h69q47 130 125 212q96 102 216 102q109 0 191 -78z" />
    <glyph glyph-name="glyph261" horiz-adv-x="579" 
d="M293 604q10 31 12 74q1 13 10 15q3 0 9 1q77 13 77 63q0 40 -32 40q-5 0 -16 -1t-16 -1q-25 0 -25 21q0 32 37 32q55 0 87 -28q36 -30 31 -83q-6 -68 -100 -94q-29 -8 -36 -39h-38z" />
    <glyph glyph-name="glyph262" horiz-adv-x="626" 
d="M553 562q42 0 41 9q-1 8 -11.5 23.5t-10.5 24.5q0 19 16 34t35 15q21 0 36.5 -15.5t15.5 -36.5q0 -28 -34 -50l-72 -36v-462h91v-68h-174v124q-9 -67 -59 -103q-46 -33 -116 -33q-172 0 -172 216v294h-88v64h177v-357q0 -149 108 -151q75 -1 114 67q31 56 31 137v240h-94
v64h166zM362 655l15 14q17 16 21 25q4 6 6 25q0 44 -42 45q-38 1 -46 -49l-24 10q6 71 77 71q73 0 75 -68q1 -34 -32 -65l-15 -14q-20 -19 -20 -59h-43q0 39 28 65zM557 500q0 -123 -65 -205q-71 -88 -191 -89q-130 -1 -200 90q-62 82 -63 216q-1 124 67 204q72 84 194 84
q126 0 195 -89q63 -81 63 -211zM463 507q0 90 -37 152q-44 75 -128 75q-87 0 -131 -76q-37 -63 -37 -156q0 -89 38 -152q44 -75 127 -77q87 -2 132 77q36 63 36 157zM428 819h-52l-77 93l-75 -93h-51l92 124h72z" />
    <glyph glyph-name="glyph263" horiz-adv-x="626" 
d="M553 562q42 0 41 9q-1 8 -11.5 23.5t-10.5 24.5q0 19 16 34t35 15q21 0 36.5 -15.5t15.5 -36.5q0 -28 -34 -50l-72 -36v-462h91v-68h-174v124q-9 -67 -59 -103q-46 -33 -116 -33q-172 0 -172 216v294h-88v64h177v-357q0 -149 108 -151q75 -1 114 67q31 56 31 137v240h-94
v64h166zM362 655l15 14q17 16 21 25q4 6 6 25q0 44 -42 45q-38 1 -46 -49l-24 10q6 71 77 71q73 0 75 -68q1 -34 -32 -65l-15 -14q-20 -19 -20 -59h-43q0 39 28 65zM858 973q-1 8 -11.5 23t-10.5 25q0 19 16 34t35 15q21 0 36.5 -15.5t15.5 -36.5q0 -28 -34 -50
q-16 -10 -68 -34q-11 -5 -46 -16v-385q0 -139 -47 -211q-75 -116 -224 -117q-150 -1 -230 104q-54 71 -54 196v413h-95v69h306v-69h-116v-422q0 -94 45 -151q49 -62 141 -64q98 -2 148 73q43 64 43 167v397h-113v69q38 1 106 -4q51 -4 106 -10q50 -5 42 -5q10 0 9 5z
M664 1125l-117 -118h-50l88 126h79v-8z" />
    <glyph glyph-name="glyph264" horiz-adv-x="626" 
d="M553 562q42 0 41 9q-1 8 -11.5 23.5t-10.5 24.5q0 19 16 34t35 15q21 0 36.5 -15.5t15.5 -36.5q0 -28 -34 -50l-72 -36v-462h91v-68h-174v124q-9 -67 -59 -103q-46 -33 -116 -33q-172 0 -172 216v294h-88v64h177v-357q0 -149 108 -151q75 -1 114 67q31 56 31 137v240h-94
v64h166zM362 655l15 14q17 16 21 25q4 6 6 25q0 44 -42 45q-38 1 -46 -49l-24 10q6 71 77 71q73 0 75 -68q1 -34 -32 -65l-15 -14q-20 -19 -20 -59h-43q0 39 28 65zM476 776q10 31 12 74q1 13 10 15q3 0 9 1q77 13 77 63q0 40 -32 40q-5 0 -16 -1t-16 -1q-25 0 -25 21
q0 32 37 32q55 0 87 -28q36 -30 31 -83q-6 -68 -100 -94q-29 -8 -36 -39h-38z" />
    <glyph glyph-name="glyph265" horiz-adv-x="626" 
d="M553 562q42 0 41 9q-1 8 -11.5 23.5t-10.5 24.5q0 19 16 34t35 15q21 0 36.5 -15.5t15.5 -36.5q0 -28 -34 -50l-72 -36v-462h91v-68h-174v124q-9 -67 -59 -103q-46 -33 -116 -33q-172 0 -172 216v294h-88v64h177v-357q0 -149 108 -151q75 -1 114 67q31 56 31 137v240h-94
v64h166zM362 655l15 14q17 16 21 25q4 6 6 25q0 44 -42 45q-38 1 -46 -49l-24 10q6 71 77 71q73 0 75 -68q1 -34 -32 -65l-15 -14q-20 -19 -20 -59h-43q0 39 28 65zM607 780q42 0 41 9q-1 8 -11.5 23.5t-10.5 24.5q0 19 16 34t35 15q21 0 36.5 -15.5t15.5 -36.5
q0 -28 -34 -50l-72 -36v-462h91v-68h-174v124q-9 -67 -59 -103q-46 -33 -116 -33q-172 0 -172 216v294h-88v64h177v-357q0 -149 108 -151q75 -1 114 67q31 56 31 137v240h-94v64h166zM554 909q-9 -33 -36 -60q-30 -30 -62 -31q-15 0 -24 5q-7 1 -48 29q-5 3 -29 8
q-34 -1 -53 -47h-35q10 36 36 62q30 30 64 31q18 1 26 -4l46 -26q21 -12 32 -12q26 1 47 45h36z" />
    <glyph glyph-name="glyph266" horiz-adv-x="626" 
d="M559 561q42 0 41 9q-1 8 -11.5 23.5t-10.5 24.5q0 19 16 34t35 15q21 0 36.5 -15.5t15.5 -36.5q0 -28 -34 -50l-72 -36v-462h91v-68h-174v124q-9 -67 -59 -103q-46 -33 -116 -33q-172 0 -172 216v294h-88v64h177v-357q0 -149 108 -151q75 -1 114 67q31 56 31 137v240h-94
v64h166zM410 -155h-94v92l45 1l49 -1v-92zM648 500q0 -123 -65 -205q-71 -88 -191 -89q-130 -1 -200 90q-62 82 -63 216q-1 124 67 204q72 84 194 84q126 0 195 -89q63 -81 63 -211zM554 507q0 90 -37 152q-44 75 -128 75q-87 0 -131 -76q-37 -63 -37 -156q0 -89 38 -152
q44 -75 127 -77q87 -2 132 77q36 63 36 157zM519 819h-52l-77 93l-75 -93h-51l92 124h72z" />
    <glyph glyph-name="glyph267" horiz-adv-x="626" 
d="M559 561q42 0 41 9q-1 8 -11.5 23.5t-10.5 24.5q0 19 16 34t35 15q21 0 36.5 -15.5t15.5 -36.5q0 -28 -34 -50l-72 -36v-462h91v-68h-174v124q-9 -67 -59 -103q-46 -33 -116 -33q-172 0 -172 216v294h-88v64h177v-357q0 -149 108 -151q75 -1 114 67q31 56 31 137v240h-94
v64h166zM410 -155h-94v92l45 1l49 -1v-92zM797 973q-1 8 -11.5 23t-10.5 25q0 19 16 34t35 15q21 0 36.5 -15.5t15.5 -36.5q0 -28 -34 -50q-16 -10 -68 -34q-11 -5 -46 -16v-385q0 -139 -47 -211q-75 -116 -224 -117q-150 -1 -230 104q-54 71 -54 196v413h-95v69h306v-69
h-116v-422q0 -94 45 -151q49 -62 141 -64q98 -2 148 73q43 64 43 167v397h-113v69q38 1 106 -4q51 -4 106 -10q50 -5 42 -5q10 0 9 5zM603 1125l-117 -118h-50l88 126h79v-8z" />
    <glyph glyph-name="glyph268" horiz-adv-x="626" 
d="M559 561q42 0 41 9q-1 8 -11.5 23.5t-10.5 24.5q0 19 16 34t35 15q21 0 36.5 -15.5t15.5 -36.5q0 -28 -34 -50l-72 -36v-462h91v-68h-174v124q-9 -67 -59 -103q-46 -33 -116 -33q-172 0 -172 216v294h-88v64h177v-357q0 -149 108 -151q75 -1 114 67q31 56 31 137v240h-94
v64h166zM410 -155h-94v92l45 1l49 -1v-92zM354 776q10 31 12 74q1 13 10 15q3 0 9 1q77 13 77 63q0 40 -32 40q-5 0 -16 -1t-16 -1q-25 0 -25 21q0 32 37 32q55 0 87 -28q36 -30 31 -83q-6 -68 -100 -94q-29 -8 -36 -39h-38z" />
    <glyph glyph-name="glyph269" horiz-adv-x="626" 
d="M559 561q42 0 41 9q-1 8 -11.5 23.5t-10.5 24.5q0 19 16 34t35 15q21 0 36.5 -15.5t15.5 -36.5q0 -28 -34 -50l-72 -36v-462h91v-68h-174v124q-9 -67 -59 -103q-46 -33 -116 -33q-172 0 -172 216v294h-88v64h177v-357q0 -149 108 -151q75 -1 114 67q31 56 31 137v240h-94
v64h166zM410 -155h-94v92l45 1l49 -1v-92zM607 780q42 0 41 9q-1 8 -11.5 23.5t-10.5 24.5q0 19 16 34t35 15q21 0 36.5 -15.5t15.5 -36.5q0 -28 -34 -50l-72 -36v-462h91v-68h-174v124q-9 -67 -59 -103q-46 -33 -116 -33q-172 0 -172 216v294h-88v64h177v-357
q0 -149 108 -151q75 -1 114 67q31 56 31 137v240h-94v64h166zM554 909q-9 -33 -36 -60q-30 -30 -62 -31q-15 0 -24 5q-7 1 -48 29q-5 3 -29 8q-34 -1 -53 -47h-35q10 36 36 62q30 30 64 31q18 1 26 -4l46 -26q21 -12 32 -12q26 1 47 45h36z" />
    <glyph glyph-name="glyph270" horiz-adv-x="288" 
 />
    <glyph glyph-name="glyph271" unicode="&#x102;" horiz-adv-x="839" 
d="M820 0h-285v71h104l-66 187h-317l-66 -187h105v-71h-280v71h80l267 701h111l267 -701h80v-71zM543 329l-129 359l-129 -359h258zM548 902q-18 -110 -134 -110t-130 110h40q14 -68 93 -68q74 0 91 68h40z" />
    <glyph glyph-name="glyph272" unicode="&#x103;" 
d="M577 0h-167v124q-38 -132 -182 -132q-178 0 -179 171q-1 105 83 147q60 29 177 30q32 0 95 -3q0 90 -14 118q-30 59 -117 60q-106 1 -117 -112h-91q12 177 213 177q115 0 172 -66q38 -44 38 -152v-294h89v-68zM404 274q-28 5 -70 5q-89 1 -130 -16q-64 -26 -65 -100
q-1 -107 105 -107q80 0 125 71q27 43 35 147zM411 720q-18 -110 -134 -110t-130 110h40q14 -68 93 -68q74 0 91 68h40z" />
    <glyph glyph-name="glyph273" unicode="&#x128;" horiz-adv-x="360" 
d="M336 0h-311v69h108v631h-108v69h311v-69h-108v-631h108v-69zM326 903q-9 -33 -36 -60q-30 -30 -62 -31q-15 0 -24 5q-7 1 -48 29q-5 3 -29 8q-34 -1 -53 -47h-35q10 36 36 62q30 30 64 31q18 1 26 -4l46 -26q21 -12 32 -12q26 1 47 45h36z" />
    <glyph glyph-name="glyph274" unicode="&#x129;" horiz-adv-x="319" 
d="M299 0h-261v67h88v429h-88v66h177v-495h84v-67zM315 693q-9 -33 -36 -60q-30 -30 -62 -31q-15 0 -24 5q-7 1 -48 29q-5 3 -29 8q-34 -1 -53 -47h-35q10 36 36 62q30 30 64 31q18 1 26 -4l46 -26q21 -12 32 -12q26 1 47 45h36z" />
    <glyph glyph-name="ch903" unicode="&#x168;" horiz-adv-x="779" 
d="M762 699h-96v-385q0 -139 -47 -211q-75 -116 -224 -117q-150 -1 -230 104q-54 71 -54 196v413h-95v69h306v-69h-116v-422q0 -94 45 -151q49 -62 141 -64q98 -2 148 73q43 64 43 167v397h-113v69h292v-69zM541 894q-9 -33 -36 -60q-30 -30 -62 -31q-15 0 -24 5
q-7 1 -48 29q-5 3 -29 8q-34 -1 -53 -47h-35q10 36 36 62q30 30 64 31q18 1 26 -4l46 -26q21 -12 32 -12q26 1 47 45h36z" />
    <glyph glyph-name="ch904" unicode="&#x169;" horiz-adv-x="659" 
d="M631 0h-174v124q-9 -67 -59 -103q-46 -33 -116 -33q-172 0 -172 216v294h-88v64h177v-357q0 -149 108 -151q75 -1 114 67q31 56 31 137v240h-94v64h182v-494h91v-68zM471 691q-9 -33 -36 -60q-30 -30 -62 -31q-15 0 -24 5q-7 1 -48 29q-5 3 -29 8q-34 -1 -53 -47h-35
q10 36 36 62q30 30 64 31q18 1 26 -4l46 -26q21 -12 32 -12q26 1 47 45h36z" />
    <glyph glyph-name="glyph277" unicode="&#x1a0;" horiz-adv-x="839" 
d="M676 398q1 139 -58 226q-68 101 -201 101t-198 -103q-55 -86 -56 -227q-1 -140 55 -229q66 -106 199 -107q136 -1 203 106q55 89 56 233zM571 767q64 -17 93 -17q11 0 10 4q-1 8 -11.5 23.5t-10.5 24.5q0 19 16 34t35 15q23 0 38 -16.5t15 -39.5q0 -49 -103 -80
q16 -16 27 -28q98 -107 98 -292q0 -181 -86 -289q-93 -118 -270 -119q-178 -1 -273 118q-87 108 -88 291q-1 176 90 284q96 115 269 116q81 0 151 -29z" />
    <glyph glyph-name="glyph278" unicode="&#x1a1;" 
d="M465 288q0 90 -37 152q-44 75 -128 75q-87 0 -131 -76q-37 -63 -37 -156q0 -89 38 -152q44 -75 127 -77q87 -2 132 77q36 63 36 157zM405 561q61 2 60 10t-11.5 23.5t-10.5 24.5q0 19 16 34t35 15q21 0 36.5 -15.5t15.5 -36.5q0 -27 -31 -48q-16 -11 -64 -33
q108 -77 108 -254q0 -123 -65 -205q-71 -88 -191 -89q-130 -1 -200 90q-62 82 -63 216q-1 124 67 204q72 84 194 84q56 0 104 -20z" />
    <glyph glyph-name="glyph279" unicode="&#x1af;" horiz-adv-x="779" 
d="M733 754q-1 8 -11.5 23t-10.5 25q0 19 16 34t35 15q21 0 36.5 -15.5t15.5 -36.5q0 -28 -34 -50q-16 -10 -68 -34q-11 -5 -46 -16v-385q0 -139 -47 -211q-75 -116 -224 -117q-150 -1 -230 104q-54 71 -54 196v413h-95v69h306v-69h-116v-422q0 -94 45 -151q49 -62 141 -64
q98 -2 148 73q43 64 43 167v397h-113v69q38 1 106 -4q51 -4 106 -10q50 -5 42 -5q10 0 9 5z" />
    <glyph glyph-name="glyph280" unicode="&#x1b0;" horiz-adv-x="659" 
d="M524 562q42 0 41 9q-1 8 -11.5 23.5t-10.5 24.5q0 19 16 34t35 15q21 0 36.5 -15.5t15.5 -36.5q0 -28 -34 -50l-72 -36v-462h91v-68h-174v124q-9 -67 -59 -103q-46 -33 -116 -33q-172 0 -172 216v294h-88v64h177v-357q0 -149 108 -151q75 -1 114 67q31 56 31 137v240h-94
v64h166z" />
    <glyph glyph-name="glyph281" unicode="&#x1ea0;" horiz-adv-x="839" 
d="M820 0h-285v71h104l-66 187h-317l-66 -187h105v-71h-280v71h80l267 701h111l267 -701h80v-71zM543 329l-129 359l-129 -359h258zM463 -94h-94v92l45 2l49 -2v-92z" />
    <glyph glyph-name="glyph282" unicode="&#x1ea1;" 
d="M577 0h-167v124q-38 -132 -182 -132q-178 0 -179 171q-1 105 83 147q60 29 177 30q32 0 95 -3q0 90 -14 118q-30 59 -117 60q-106 1 -117 -112h-91q12 177 213 177q115 0 172 -66q38 -44 38 -152v-294h89v-68zM404 274q-28 5 -70 5q-89 1 -130 -16q-64 -26 -65 -100
q-1 -107 105 -107q80 0 125 71q27 43 35 147zM292 -151h-94v92l45 1l49 -1v-92z" />
    <glyph glyph-name="glyph283" unicode="&#x1ea2;" horiz-adv-x="839" 
d="M820 0h-285v71h104l-66 187h-317l-66 -187h105v-71h-280v71h80l267 701h111l267 -701h80v-71zM543 329l-129 359l-129 -359h258zM421 867l15 14q17 16 21 25q4 6 6 25q0 44 -42 45q-38 1 -46 -49l-24 10q6 71 77 71q73 0 75 -68q1 -34 -32 -65l-15 -14q-20 -19 -20 -59
h-43q0 39 28 65z" />
    <glyph glyph-name="glyph284" unicode="&#x1ea3;" 
d="M577 0h-167v124q-38 -132 -182 -132q-178 0 -179 171q-1 105 83 147q60 29 177 30q32 0 95 -3q0 90 -14 118q-30 59 -117 60q-106 1 -117 -112h-91q12 177 213 177q115 0 172 -66q38 -44 38 -152v-294h89v-68zM404 274q-28 5 -70 5q-89 1 -130 -16q-64 -26 -65 -100
q-1 -107 105 -107q80 0 125 71q27 43 35 147zM285 685l15 14q17 16 21 25q4 6 6 25q0 44 -42 45q-38 1 -46 -49l-24 10q6 71 77 71q73 0 75 -68q1 -34 -32 -65l-15 -14q-20 -19 -20 -59h-43q0 39 28 65z" />
    <glyph glyph-name="glyph285" unicode="&#x1ea4;" horiz-adv-x="839" 
d="M820 0h-285v71h104l-66 187h-317l-66 -187h105v-71h-280v71h80l267 701h111l267 -701h80v-71zM543 329l-129 359l-129 -359h258zM543 792h-52l-77 93l-75 -93h-51l92 124h72zM673 1003l-117 -118h-50l88 126h79v-8z" />
    <glyph glyph-name="glyph286" unicode="&#x1ea5;" 
d="M577 0h-167v124q-38 -132 -182 -132q-178 0 -179 171q-1 105 83 147q60 29 177 30q32 0 95 -3q0 90 -14 118q-30 59 -117 60q-106 1 -117 -112h-91q12 177 213 177q115 0 172 -66q38 -44 38 -152v-294h89v-68zM404 274q-28 5 -70 5q-89 1 -130 -16q-64 -26 -65 -100
q-1 -107 105 -107q80 0 125 71q27 43 35 147zM407 600h-52l-77 93l-75 -93h-51l92 124h72zM537 811l-117 -118h-50l88 126h79v-8z" />
    <glyph glyph-name="glyph287" unicode="&#x1ea6;" horiz-adv-x="839" 
d="M820 0h-285v71h104l-66 187h-317l-66 -187h105v-71h-280v71h80l267 701h111l267 -701h80v-71zM543 329l-129 359l-129 -359h258zM543 792h-52l-77 93l-75 -93h-51l92 124h72zM326 885h-50l-117 118v8h79z" />
    <glyph glyph-name="glyph288" unicode="&#x1ea7;" 
d="M577 0h-167v124q-38 -132 -182 -132q-178 0 -179 171q-1 105 83 147q60 29 177 30q32 0 95 -3q0 90 -14 118q-30 59 -117 60q-106 1 -117 -112h-91q12 177 213 177q115 0 172 -66q38 -44 38 -152v-294h89v-68zM404 274q-28 5 -70 5q-89 1 -130 -16q-64 -26 -65 -100
q-1 -107 105 -107q80 0 125 71q27 43 35 147zM407 600h-52l-77 93l-75 -93h-51l92 124h72zM190 693h-50l-117 118v8h79z" />
    <glyph glyph-name="glyph289" unicode="&#x1ea8;" horiz-adv-x="839" 
d="M820 0h-285v71h104l-66 187h-317l-66 -187h105v-71h-280v71h80l267 701h111l267 -701h80v-71zM543 329l-129 359l-129 -359h258zM543 792h-52l-77 93l-75 -93h-51l92 124h72zM549 930l15 14q17 16 21 25q4 6 6 25q0 44 -42 45q-38 1 -46 -49l-24 10q6 71 77 71
q73 0 75 -68q1 -34 -32 -65l-15 -14q-20 -19 -20 -59h-43q0 39 28 65z" />
    <glyph glyph-name="glyph290" unicode="&#x1ea9;" 
d="M577 0h-167v124q-38 -132 -182 -132q-178 0 -179 171q-1 105 83 147q60 29 177 30q32 0 95 -3q0 90 -14 118q-30 59 -117 60q-106 1 -117 -112h-91q12 177 213 177q115 0 172 -66q38 -44 38 -152v-294h89v-68zM404 274q-28 5 -70 5q-89 1 -130 -16q-64 -26 -65 -100
q-1 -107 105 -107q80 0 125 71q27 43 35 147zM407 600h-52l-77 93l-75 -93h-51l92 124h72zM413 738l15 14q17 16 21 25q4 6 6 25q0 44 -42 45q-38 1 -46 -49l-24 10q6 71 77 71q73 0 75 -68q1 -34 -32 -65l-15 -14q-20 -19 -20 -59h-43q0 39 28 65z" />
    <glyph glyph-name="glyph291" unicode="&#x1eaa;" horiz-adv-x="839" 
d="M820 0h-285v71h104l-66 187h-317l-66 -187h105v-71h-280v71h80l267 701h111l267 -701h80v-71zM543 329l-129 359l-129 -359h258zM543 792h-52l-77 93l-75 -93h-51l92 124h72zM559 1026q-9 -33 -36 -60q-30 -30 -62 -31q-15 0 -24 5q-7 1 -48 29q-5 3 -29 8
q-34 -1 -53 -47h-35q10 36 36 62q30 30 64 31q18 1 26 -4l46 -26q21 -12 32 -12q26 1 47 45h36z" />
    <glyph glyph-name="glyph292" unicode="&#x1eab;" 
d="M577 0h-167v124q-38 -132 -182 -132q-178 0 -179 171q-1 105 83 147q60 29 177 30q32 0 95 -3q0 90 -14 118q-30 59 -117 60q-106 1 -117 -112h-91q12 177 213 177q115 0 172 -66q38 -44 38 -152v-294h89v-68zM404 274q-28 5 -70 5q-89 1 -130 -16q-64 -26 -65 -100
q-1 -107 105 -107q80 0 125 71q27 43 35 147zM407 600h-52l-77 93l-75 -93h-51l92 124h72zM423 834q-9 -33 -36 -60q-30 -30 -62 -31q-15 0 -24 5q-7 1 -48 29q-5 3 -29 8q-34 -1 -53 -47h-35q10 36 36 62q30 30 64 31q18 1 26 -4l46 -26q21 -12 32 -12q26 1 47 45h36z" />
    <glyph glyph-name="glyph293" unicode="&#x1eac;" horiz-adv-x="839" 
d="M820 0h-285v71h104l-66 187h-317l-66 -187h105v-71h-280v71h80l267 701h111l267 -701h80v-71zM543 329l-129 359l-129 -359h258zM543 792h-52l-77 93l-75 -93h-51l92 124h72zM463 -94h-94v92l45 2l49 -2v-92z" />
    <glyph glyph-name="glyph294" unicode="&#x1ead;" 
d="M577 0h-167v124q-38 -132 -182 -132q-178 0 -179 171q-1 105 83 147q60 29 177 30q32 0 95 -3q0 90 -14 118q-30 59 -117 60q-106 1 -117 -112h-91q12 177 213 177q115 0 172 -66q38 -44 38 -152v-294h89v-68zM404 274q-28 5 -70 5q-89 1 -130 -16q-64 -26 -65 -100
q-1 -107 105 -107q80 0 125 71q27 43 35 147zM407 600h-52l-77 93l-75 -93h-51l92 124h72zM292 -151h-94v92l45 1l49 -1v-92z" />
    <glyph glyph-name="glyph295" unicode="&#x1eae;" horiz-adv-x="839" 
d="M820 0h-285v71h104l-66 187h-317l-66 -187h105v-71h-280v71h80l267 701h111l267 -701h80v-71zM543 329l-129 359l-129 -359h258zM548 902q-18 -110 -134 -110t-130 110h40q14 -68 93 -68q74 0 91 68h40zM557 1020l-117 -118h-50l88 126h79v-8z" />
    <glyph glyph-name="glyph296" unicode="&#x1eaf;" 
d="M577 0h-167v124q-38 -132 -182 -132q-178 0 -179 171q-1 105 83 147q60 29 177 30q32 0 95 -3q0 90 -14 118q-30 59 -117 60q-106 1 -117 -112h-91q12 177 213 177q115 0 172 -66q38 -44 38 -152v-294h89v-68zM404 274q-28 5 -70 5q-89 1 -130 -16q-64 -26 -65 -100
q-1 -107 105 -107q80 0 125 71q27 43 35 147zM411 720q-18 -110 -134 -110t-130 110h40q14 -68 93 -68q74 0 91 68h40zM420 838l-117 -118h-50l88 126h79v-8z" />
    <glyph glyph-name="glyph297" unicode="&#x1eb0;" horiz-adv-x="839" 
d="M820 0h-285v71h104l-66 187h-317l-66 -187h105v-71h-280v71h80l267 701h111l267 -701h80v-71zM543 329l-129 359l-129 -359h258zM548 902q-18 -110 -134 -110t-130 110h40q14 -68 93 -68q74 0 91 68h40zM438 902h-50l-117 118v8h79z" />
    <glyph glyph-name="glyph298" unicode="&#x1eb1;" 
d="M577 0h-167v124q-38 -132 -182 -132q-178 0 -179 171q-1 105 83 147q60 29 177 30q32 0 95 -3q0 90 -14 118q-30 59 -117 60q-106 1 -117 -112h-91q12 177 213 177q115 0 172 -66q38 -44 38 -152v-294h89v-68zM404 274q-28 5 -70 5q-89 1 -130 -16q-64 -26 -65 -100
q-1 -107 105 -107q80 0 125 71q27 43 35 147zM412 720q-18 -110 -134 -110t-130 110h40q14 -68 93 -68q74 0 91 68h40zM302 720h-50l-117 118v8h79z" />
    <glyph glyph-name="glyph299" unicode="&#x1eb2;" horiz-adv-x="839" 
d="M820 0h-285v71h104l-66 187h-317l-66 -187h105v-71h-280v71h80l267 701h111l267 -701h80v-71zM543 329l-129 359l-129 -359h258zM548 902q-18 -110 -134 -110t-130 110h40q14 -68 93 -68q74 0 91 68h40zM421 957l15 14q17 16 21 25q4 6 6 25q0 44 -42 45q-38 1 -46 -49
l-24 10q6 71 77 71q73 0 75 -68q1 -34 -32 -65l-15 -14q-20 -19 -20 -59h-43q0 39 28 65z" />
    <glyph glyph-name="glyph300" unicode="&#x1eb3;" 
d="M577 0h-167v124q-38 -132 -182 -132q-178 0 -179 171q-1 105 83 147q60 29 177 30q32 0 95 -3q0 90 -14 118q-30 59 -117 60q-106 1 -117 -112h-91q12 177 213 177q115 0 172 -66q38 -44 38 -152v-294h89v-68zM404 274q-28 5 -70 5q-89 1 -130 -16q-64 -26 -65 -100
q-1 -107 105 -107q80 0 125 71q27 43 35 147zM412 720q-18 -110 -134 -110t-130 110h40q14 -68 93 -68q74 0 91 68h40zM285 775l15 14q17 16 21 25q4 6 6 25q0 44 -42 45q-38 1 -46 -49l-24 10q6 71 77 71q73 0 75 -68q1 -34 -32 -65l-15 -14q-20 -19 -20 -59h-43
q0 39 28 65z" />
    <glyph glyph-name="glyph301" unicode="&#x1eb4;" horiz-adv-x="839" 
d="M820 0h-285v71h104l-66 187h-317l-66 -187h105v-71h-280v71h80l267 701h111l267 -701h80v-71zM543 329l-129 359l-129 -359h258zM548 902q-18 -110 -134 -110t-130 110h40q14 -68 93 -68q74 0 91 68h40zM683 1008q-9 -33 -36 -60q-30 -30 -62 -31q-15 0 -24 5
q-7 1 -48 29q-5 3 -29 8q-34 -1 -53 -47h-35q10 36 36 62q30 30 64 31q18 1 26 -4l46 -26q21 -12 32 -12q26 1 47 45h36z" />
    <glyph glyph-name="glyph302" unicode="&#x1eb5;" 
d="M577 0h-167v124q-38 -132 -182 -132q-178 0 -179 171q-1 105 83 147q60 29 177 30q32 0 95 -3q0 90 -14 118q-30 59 -117 60q-106 1 -117 -112h-91q12 177 213 177q115 0 172 -66q38 -44 38 -152v-294h89v-68zM404 274q-28 5 -70 5q-89 1 -130 -16q-64 -26 -65 -100
q-1 -107 105 -107q80 0 125 71q27 43 35 147zM411 720q-18 -110 -134 -110t-130 110h40q14 -68 93 -68q74 0 91 68h40zM546 826q-9 -33 -36 -60q-30 -30 -62 -31q-15 0 -24 5q-7 1 -48 29q-5 3 -29 8q-34 -1 -53 -47h-35q10 36 36 62q30 30 64 31q18 1 26 -4l46 -26
q21 -12 32 -12q26 1 47 45h36z" />
    <glyph glyph-name="glyph303" unicode="&#x1eb6;" horiz-adv-x="839" 
d="M820 0h-285v71h104l-66 187h-317l-66 -187h105v-71h-280v71h80l267 701h111l267 -701h80v-71zM543 329l-129 359l-129 -359h258zM548 902q-18 -110 -134 -110t-130 110h40q14 -68 93 -68q74 0 91 68h40zM463 -94h-94v92l45 2l49 -2v-92z" />
    <glyph glyph-name="glyph304" unicode="&#x1eb7;" 
d="M577 0h-167v124q-38 -132 -182 -132q-178 0 -179 171q-1 105 83 147q60 29 177 30q32 0 95 -3q0 90 -14 118q-30 59 -117 60q-106 1 -117 -112h-91q12 177 213 177q115 0 172 -66q38 -44 38 -152v-294h89v-68zM404 274q-28 5 -70 5q-89 1 -130 -16q-64 -26 -65 -100
q-1 -107 105 -107q80 0 125 71q27 43 35 147zM292 -151h-94v92l45 1l49 -1v-92zM411 720q-18 -110 -134 -110t-130 110h40q14 -68 93 -68q74 0 91 68h40z" />
    <glyph glyph-name="glyph305" unicode="&#x1eb8;" horiz-adv-x="720" 
d="M648 0h-617v71h110v629h-110v69h611v-230h-81v158h-326v-271h160v117h77v-304h-77v116h-160v-281h330v165h83v-239zM384 -134h-94v92l45 2l49 -2v-92z" />
    <glyph glyph-name="glyph306" unicode="&#x1eb9;" 
d="M553 263h-408q0 -90 40 -146q46 -65 132 -66q58 -1 98 32.5t50 90.5h81q-8 -89 -78 -141q-64 -48 -156 -48q-128 0 -196 86q-61 77 -62 209q-1 131 62 211q68 87 196 87q240 0 241 -315zM462 327q-4 79 -38 129q-40 59 -114 60q-137 1 -162 -189h314zM361 -159h-94v92
l45 1l49 -1v-92z" />
    <glyph glyph-name="glyph307" unicode="&#x1eba;" horiz-adv-x="720" 
d="M648 0h-617v71h110v629h-110v69h611v-230h-81v158h-326v-271h160v117h77v-304h-77v116h-160v-281h330v165h83v-239zM342 867l15 14q17 16 21 25q4 6 6 25q0 44 -42 45q-38 1 -46 -49l-24 10q6 71 77 71q73 0 75 -68q1 -34 -32 -65l-15 -14q-20 -19 -20 -59h-43
q0 39 28 65z" />
    <glyph glyph-name="glyph308" unicode="&#x1ebb;" 
d="M553 263h-408q0 -90 40 -146q46 -65 132 -66q58 -1 98 32.5t50 90.5h81q-8 -89 -78 -141q-64 -48 -156 -48q-128 0 -196 86q-61 77 -62 209q-1 131 62 211q68 87 196 87q240 0 241 -315zM462 327q-4 79 -38 129q-40 59 -114 60q-137 1 -162 -189h314zM319 683l15 14
q17 16 21 25q4 6 6 25q0 44 -42 45q-38 1 -46 -49l-24 10q6 71 77 71q73 0 75 -68q1 -34 -32 -65l-15 -14q-20 -19 -20 -59h-43q0 39 28 65z" />
    <glyph glyph-name="glyph309" unicode="&#x1ebc;" horiz-adv-x="720" 
d="M648 0h-617v71h110v629h-110v69h611v-230h-81v158h-326v-271h160v117h77v-304h-77v116h-160v-281h330v165h83v-239zM500 903q-9 -33 -36 -60q-30 -30 -62 -31q-15 0 -24 5q-7 1 -48 29q-5 3 -29 8q-34 -1 -53 -47h-35q10 36 36 62q30 30 64 31q18 1 26 -4l46 -26
q21 -12 32 -12q26 1 47 45h36z" />
    <glyph glyph-name="glyph310" unicode="&#x1ebd;" 
d="M553 263h-408q0 -90 40 -146q46 -65 132 -66q58 -1 98 32.5t50 90.5h81q-8 -89 -78 -141q-64 -48 -156 -48q-128 0 -196 86q-61 77 -62 209q-1 131 62 211q68 87 196 87q240 0 241 -315zM462 327q-4 79 -38 129q-40 59 -114 60q-137 1 -162 -189h314zM457 721
q-9 -33 -36 -60q-30 -30 -62 -31q-15 0 -24 5q-7 1 -48 29q-5 3 -29 8q-34 -1 -53 -47h-35q10 36 36 62q30 30 64 31q18 1 26 -4l46 -26q21 -12 32 -12q26 1 47 45h36z" />
    <glyph glyph-name="glyph311" unicode="&#x1ebe;" horiz-adv-x="720" 
d="M648 0h-617v71h110v629h-110v69h611v-230h-81v158h-326v-271h160v117h77v-304h-77v116h-160v-281h330v165h83v-239zM464 790h-52l-77 93l-75 -93h-51l92 124h72zM594 1001l-117 -118h-50l88 126h79v-8z" />
    <glyph glyph-name="glyph312" unicode="&#x1ebf;" 
d="M553 263h-408q0 -90 40 -146q46 -65 132 -66q58 -1 98 32.5t50 90.5h81q-8 -89 -78 -141q-64 -48 -156 -48q-128 0 -196 86q-61 77 -62 209q-1 131 62 211q68 87 196 87q240 0 241 -315zM462 327q-4 79 -38 129q-40 59 -114 60q-137 1 -162 -189h314zM441 600h-52l-77 93
l-75 -93h-51l92 124h72zM571 811l-117 -118h-50l88 126h79v-8z" />
    <glyph glyph-name="glyph313" unicode="&#x1ec0;" horiz-adv-x="720" 
d="M648 0h-617v71h110v629h-110v69h611v-230h-81v158h-326v-271h160v117h77v-304h-77v116h-160v-281h330v165h83v-239zM464 792h-52l-77 93l-75 -93h-51l92 124h72zM247 885h-50l-117 118v8h79z" />
    <glyph glyph-name="glyph314" unicode="&#x1ec1;" 
d="M553 263h-408q0 -90 40 -146q46 -65 132 -66q58 -1 98 32.5t50 90.5h81q-8 -89 -78 -141q-64 -48 -156 -48q-128 0 -196 86q-61 77 -62 209q-1 131 62 211q68 87 196 87q240 0 241 -315zM462 327q-4 79 -38 129q-40 59 -114 60q-137 1 -162 -189h314zM441 600h-52l-77 93
l-75 -93h-51l92 124h72zM224 693h-50l-117 118v8h79z" />
    <glyph glyph-name="glyph315" unicode="&#x1ec2;" horiz-adv-x="720" 
d="M648 0h-617v71h110v629h-110v69h611v-230h-81v158h-326v-271h160v117h77v-304h-77v116h-160v-281h330v165h83v-239zM464 792h-52l-77 93l-75 -93h-51l92 124h72zM470 930l15 14q17 16 21 25q4 6 6 25q0 44 -42 45q-38 1 -46 -49l-24 10q6 71 77 71q73 0 75 -68
q1 -34 -32 -65l-15 -14q-20 -19 -20 -59h-43q0 39 28 65z" />
    <glyph glyph-name="glyph316" unicode="&#x1ec3;" 
d="M553 263h-408q0 -90 40 -146q46 -65 132 -66q58 -1 98 32.5t50 90.5h81q-8 -89 -78 -141q-64 -48 -156 -48q-128 0 -196 86q-61 77 -62 209q-1 131 62 211q68 87 196 87q240 0 241 -315zM462 327q-4 79 -38 129q-40 59 -114 60q-137 1 -162 -189h314zM441 600h-52l-77 93
l-75 -93h-51l92 124h72zM447 738l15 14q17 16 21 25q4 6 6 25q0 44 -42 45q-38 1 -46 -49l-24 10q6 71 77 71q73 0 75 -68q1 -34 -32 -65l-15 -14q-20 -19 -20 -59h-43q0 39 28 65z" />
    <glyph glyph-name="glyph317" unicode="&#x1ec4;" horiz-adv-x="720" 
d="M648 0h-617v71h110v629h-110v69h611v-230h-81v158h-326v-271h160v117h77v-304h-77v116h-160v-281h330v165h83v-239zM464 792h-52l-77 93l-75 -93h-51l92 124h72zM480 1026q-9 -33 -36 -60q-30 -30 -62 -31q-15 0 -24 5q-7 1 -48 29q-5 3 -29 8q-34 -1 -53 -47h-35
q10 36 36 62q30 30 64 31q18 1 26 -4l46 -26q21 -12 32 -12q26 1 47 45h36z" />
    <glyph glyph-name="glyph318" unicode="&#x1ec5;" 
d="M553 263h-408q0 -90 40 -146q46 -65 132 -66q58 -1 98 32.5t50 90.5h81q-8 -89 -78 -141q-64 -48 -156 -48q-128 0 -196 86q-61 77 -62 209q-1 131 62 211q68 87 196 87q240 0 241 -315zM462 327q-4 79 -38 129q-40 59 -114 60q-137 1 -162 -189h314zM441 600h-52l-77 93
l-75 -93h-51l92 124h72zM457 834q-9 -33 -36 -60q-30 -30 -62 -31q-15 0 -24 5q-7 1 -48 29q-5 3 -29 8q-34 -1 -53 -47h-35q10 36 36 62q30 30 64 31q18 1 26 -4l46 -26q21 -12 32 -12q26 1 47 45h36z" />
    <glyph glyph-name="glyph319" unicode="&#x1ec6;" horiz-adv-x="720" 
d="M648 0h-617v71h110v629h-110v69h611v-230h-81v158h-326v-271h160v117h77v-304h-77v116h-160v-281h330v165h83v-239zM464 790h-52l-77 93l-75 -93h-51l92 124h72zM384 -134h-94v92l45 2l49 -2v-92z" />
    <glyph glyph-name="glyph320" unicode="&#x1ec7;" 
d="M553 263h-408q0 -90 40 -146q46 -65 132 -66q58 -1 98 32.5t50 90.5h81q-8 -89 -78 -141q-64 -48 -156 -48q-128 0 -196 86q-61 77 -62 209q-1 131 62 211q68 87 196 87q240 0 241 -315zM462 327q-4 79 -38 129q-40 59 -114 60q-137 1 -162 -189h314zM441 600h-52l-77 93
l-75 -93h-51l92 124h72zM361 -159h-94v92l45 1l49 -1v-92z" />
    <glyph glyph-name="glyph321" unicode="&#x1ec8;" horiz-adv-x="360" 
d="M336 0h-311v69h108v631h-108v69h311v-69h-108v-631h108v-69zM189 867l15 14q17 16 21 25q4 6 6 25q0 44 -42 45q-38 1 -46 -49l-24 10q6 71 77 71q73 0 75 -68q1 -34 -32 -65l-15 -14q-20 -19 -20 -59h-43q0 39 28 65z" />
    <glyph glyph-name="glyph322" unicode="&#x1ec9;" horiz-adv-x="319" 
d="M299 0h-261v67h88v429h-88v66h177v-495h84v-67zM178 667l15 14q17 16 21 25q4 6 6 25q0 44 -42 45q-38 1 -46 -49l-24 10q6 71 77 71q73 0 75 -68q1 -34 -32 -65l-15 -14q-20 -19 -20 -59h-43q0 39 28 65z" />
    <glyph glyph-name="glyph323" unicode="&#x1eca;" horiz-adv-x="360" 
d="M336 0h-311v69h108v631h-108v69h311v-69h-108v-631h108v-69zM231 -134h-94v92l45 2l49 -2v-92z" />
    <glyph glyph-name="glyph324" unicode="&#x1ecb;" horiz-adv-x="319" 
d="M220 611h-99v93h99v-93zM299 0h-261v67h88v429h-88v66h177v-495h84v-67zM220 -143h-94v92l45 1l49 -1v-92z" />
    <glyph glyph-name="glyph325" unicode="&#x1ecc;" horiz-adv-x="839" 
d="M778 395q0 -181 -86 -289q-93 -118 -270 -119q-178 -1 -273 118q-87 108 -88 291q-1 174 91 283q97 116 268 117q172 1 268 -117q90 -109 90 -284zM676 398q1 139 -58 226q-68 101 -201 101t-198 -103q-55 -86 -56 -227q-1 -140 55 -229q66 -106 199 -107q136 -1 203 106
q55 89 56 233zM471 -147h-94v92l45 2l49 -2v-92z" />
    <glyph glyph-name="glyph326" unicode="&#x1ecd;" 
d="M559 281q0 -123 -65 -205q-71 -88 -191 -89q-130 -1 -200 90q-62 82 -63 216q-1 124 67 204q72 84 194 84q126 0 195 -89q63 -81 63 -211zM465 288q0 90 -37 152q-44 75 -128 75q-87 0 -131 -76q-37 -63 -37 -156q0 -89 38 -152q44 -75 127 -77q87 -2 132 77
q36 63 36 157zM352 -156h-94v92l45 1l49 -1v-92z" />
    <glyph glyph-name="glyph327" unicode="&#x1ece;" horiz-adv-x="839" 
d="M778 395q0 -181 -86 -289q-93 -118 -270 -119q-178 -1 -273 118q-87 108 -88 291q-1 174 91 283q97 116 268 117q172 1 268 -117q90 -109 90 -284zM676 398q1 139 -58 226q-68 101 -201 101t-198 -103q-55 -86 -56 -227q-1 -140 55 -229q66 -106 199 -107q136 -1 203 106
q55 89 56 233zM427 891l15 14q17 16 21 25q4 6 6 25q0 44 -42 45q-38 1 -46 -49l-24 10q6 71 77 71q73 0 75 -68q1 -34 -32 -65l-15 -14q-20 -19 -20 -59h-43q0 39 28 65z" />
    <glyph glyph-name="glyph328" unicode="&#x1ecf;" 
d="M559 281q0 -123 -65 -205q-71 -88 -191 -89q-130 -1 -200 90q-62 82 -63 216q-1 124 67 204q72 84 194 84q126 0 195 -89q63 -81 63 -211zM465 288q0 90 -37 152q-44 75 -128 75q-87 0 -131 -76q-37 -63 -37 -156q0 -89 38 -152q44 -75 127 -77q87 -2 132 77
q36 63 36 157zM308 686l15 14q17 16 21 25q4 6 6 25q0 44 -42 45q-38 1 -46 -49l-24 10q6 71 77 71q73 0 75 -68q1 -34 -32 -65l-15 -14q-20 -19 -20 -59h-43q0 39 28 65z" />
    <glyph glyph-name="glyph329" unicode="&#x1ed0;" horiz-adv-x="839" 
d="M778 395q0 -181 -86 -289q-93 -118 -270 -119q-178 -1 -273 118q-87 108 -88 291q-1 174 91 283q97 116 268 117q172 1 268 -117q90 -109 90 -284zM676 398q1 139 -58 226q-68 101 -201 101t-198 -103q-55 -86 -56 -227q-1 -140 55 -229q66 -106 199 -107q136 -1 203 106
q55 89 56 233zM549 812h-52l-77 93l-75 -93h-51l92 124h72zM679 1023l-117 -118h-50l88 126h79v-8z" />
    <glyph glyph-name="glyph330" unicode="&#x1ed1;" 
d="M559 281q0 -123 -65 -205q-71 -88 -191 -89q-130 -1 -200 90q-62 82 -63 216q-1 124 67 204q72 84 194 84q126 0 195 -89q63 -81 63 -211zM465 288q0 90 -37 152q-44 75 -128 75q-87 0 -131 -76q-37 -63 -37 -156q0 -89 38 -152q44 -75 127 -77q87 -2 132 77
q36 63 36 157zM430 600h-52l-77 93l-75 -93h-51l92 124h72zM560 811l-117 -118h-50l88 126h79v-8z" />
    <glyph glyph-name="glyph331" unicode="&#x1ed2;" horiz-adv-x="839" 
d="M778 395q0 -181 -86 -289q-93 -118 -270 -119q-178 -1 -273 118q-87 108 -88 291q-1 174 91 283q97 116 268 117q172 1 268 -117q90 -109 90 -284zM676 398q1 139 -58 226q-68 101 -201 101t-198 -103q-55 -86 -56 -227q-1 -140 55 -229q66 -106 199 -107q136 -1 203 106
q55 89 56 233zM549 812h-52l-77 93l-75 -93h-51l92 124h72zM332 905h-50l-117 118v8h79z" />
    <glyph glyph-name="glyph332" unicode="&#x1ed3;" 
d="M559 281q0 -123 -65 -205q-71 -88 -191 -89q-130 -1 -200 90q-62 82 -63 216q-1 124 67 204q72 84 194 84q126 0 195 -89q63 -81 63 -211zM465 288q0 90 -37 152q-44 75 -128 75q-87 0 -131 -76q-37 -63 -37 -156q0 -89 38 -152q44 -75 127 -77q87 -2 132 77
q36 63 36 157zM430 600h-52l-77 93l-75 -93h-51l92 124h72zM213 693h-50l-117 118v8h79z" />
    <glyph glyph-name="glyph333" unicode="&#x1ed4;" horiz-adv-x="839" 
d="M778 395q0 -181 -86 -289q-93 -118 -270 -119q-178 -1 -273 118q-87 108 -88 291q-1 174 91 283q97 116 268 117q172 1 268 -117q90 -109 90 -284zM676 398q1 139 -58 226q-68 101 -201 101t-198 -103q-55 -86 -56 -227q-1 -140 55 -229q66 -106 199 -107q136 -1 203 106
q55 89 56 233zM549 812h-52l-77 93l-75 -93h-51l92 124h72zM555 950l15 14q17 16 21 25q4 6 6 25q0 44 -42 45q-38 1 -46 -49l-24 10q6 71 77 71q73 0 75 -68q1 -34 -32 -65l-15 -14q-20 -19 -20 -59h-43q0 39 28 65z" />
    <glyph glyph-name="glyph334" unicode="&#x1ed5;" 
d="M559 281q0 -123 -65 -205q-71 -88 -191 -89q-130 -1 -200 90q-62 82 -63 216q-1 124 67 204q72 84 194 84q126 0 195 -89q63 -81 63 -211zM465 288q0 90 -37 152q-44 75 -128 75q-87 0 -131 -76q-37 -63 -37 -156q0 -89 38 -152q44 -75 127 -77q87 -2 132 77
q36 63 36 157zM430 600h-52l-77 93l-75 -93h-51l92 124h72zM436 738l15 14q17 16 21 25q4 6 6 25q0 44 -42 45q-38 1 -46 -49l-24 10q6 71 77 71q73 0 75 -68q1 -34 -32 -65l-15 -14q-20 -19 -20 -59h-43q0 39 28 65z" />
    <glyph glyph-name="glyph335" unicode="&#x1ed6;" horiz-adv-x="839" 
d="M778 395q0 -181 -86 -289q-93 -118 -270 -119q-178 -1 -273 118q-87 108 -88 291q-1 174 91 283q97 116 268 117q172 1 268 -117q90 -109 90 -284zM676 398q1 139 -58 226q-68 101 -201 101t-198 -103q-55 -86 -56 -227q-1 -140 55 -229q66 -106 199 -107q136 -1 203 106
q55 89 56 233zM549 812h-52l-77 93l-75 -93h-51l92 124h72zM565 1046q-9 -33 -36 -60q-30 -30 -62 -31q-15 0 -24 5q-7 1 -48 29q-5 3 -29 8q-34 -1 -53 -47h-35q10 36 36 62q30 30 64 31q18 1 26 -4l46 -26q21 -12 32 -12q26 1 47 45h36z" />
    <glyph glyph-name="glyph336" unicode="&#x1ed7;" 
d="M559 281q0 -123 -65 -205q-71 -88 -191 -89q-130 -1 -200 90q-62 82 -63 216q-1 124 67 204q72 84 194 84q126 0 195 -89q63 -81 63 -211zM465 288q0 90 -37 152q-44 75 -128 75q-87 0 -131 -76q-37 -63 -37 -156q0 -89 38 -152q44 -75 127 -77q87 -2 132 77
q36 63 36 157zM430 600h-52l-77 93l-75 -93h-51l92 124h72zM446 834q-9 -33 -36 -60q-30 -30 -62 -31q-15 0 -24 5q-7 1 -48 29q-5 3 -29 8q-34 -1 -53 -47h-35q10 36 36 62q30 30 64 31q18 1 26 -4l46 -26q21 -12 32 -12q26 1 47 45h36z" />
    <glyph glyph-name="glyph337" unicode="&#x1ed8;" horiz-adv-x="839" 
d="M778 395q0 -181 -86 -289q-93 -118 -270 -119q-178 -1 -273 118q-87 108 -88 291q-1 174 91 283q97 116 268 117q172 1 268 -117q90 -109 90 -284zM676 398q1 139 -58 226q-68 101 -201 101t-198 -103q-55 -86 -56 -227q-1 -140 55 -229q66 -106 199 -107q136 -1 203 106
q55 89 56 233zM549 812h-52l-77 93l-75 -93h-51l92 124h72zM471 -147h-94v92l45 2l49 -2v-92z" />
    <glyph glyph-name="glyph338" unicode="&#x1ed9;" 
d="M559 281q0 -123 -65 -205q-71 -88 -191 -89q-130 -1 -200 90q-62 82 -63 216q-1 124 67 204q72 84 194 84q126 0 195 -89q63 -81 63 -211zM465 288q0 90 -37 152q-44 75 -128 75q-87 0 -131 -76q-37 -63 -37 -156q0 -89 38 -152q44 -75 127 -77q87 -2 132 77
q36 63 36 157zM430 600h-52l-77 93l-75 -93h-51l92 124h72zM352 -156h-94v92l45 1l49 -1v-92z" />
    <glyph glyph-name="glyph339" unicode="&#x1eda;" horiz-adv-x="839" 
d="M676 398q1 139 -58 226q-68 101 -201 101t-198 -103q-55 -86 -56 -227q-1 -140 55 -229q66 -106 199 -107q136 -1 203 106q55 89 56 233zM571 767q64 -17 93 -17q11 0 10 4q-1 8 -11.5 23.5t-10.5 24.5q0 19 16 34t35 15q23 0 38 -16.5t15 -39.5q0 -49 -103 -80
q16 -16 27 -28q98 -107 98 -292q0 -181 -86 -289q-93 -118 -270 -119q-178 -1 -273 118q-87 108 -88 291q-1 176 90 284q96 115 269 116q81 0 151 -29zM563 954l-117 -118h-50l88 126h79v-8z" />
    <glyph glyph-name="glyph340" unicode="&#x1edb;" 
d="M465 288q0 90 -37 152q-44 75 -128 75q-87 0 -131 -76q-37 -63 -37 -156q0 -89 38 -152q44 -75 127 -77q87 -2 132 77q36 63 36 157zM405 561q61 2 60 10t-11.5 23.5t-10.5 24.5q0 19 16 34t35 15q21 0 36.5 -15.5t15.5 -36.5q0 -27 -31 -48q-16 -11 -64 -33
q108 -77 108 -254q0 -123 -65 -205q-71 -88 -191 -89q-130 -1 -200 90q-62 82 -63 216q-1 124 67 204q72 84 194 84q56 0 104 -20zM444 748l-117 -118h-50l88 126h79v-8z" />
    <glyph glyph-name="glyph341" unicode="&#x1edc;" horiz-adv-x="839" 
d="M676 398q1 139 -58 226q-68 101 -201 101t-198 -103q-55 -86 -56 -227q-1 -140 55 -229q66 -106 199 -107q136 -1 203 106q55 89 56 233zM571 767q64 -17 93 -17q11 0 10 4q-1 8 -11.5 23.5t-10.5 24.5q0 19 16 34t35 15q23 0 38 -16.5t15 -39.5q0 -49 -103 -80
q16 -16 27 -28q98 -107 98 -292q0 -181 -86 -289q-93 -118 -270 -119q-178 -1 -273 118q-87 108 -88 291q-1 176 90 284q96 115 269 116q81 0 151 -29zM444 836h-50l-117 118v8h79z" />
    <glyph glyph-name="glyph342" unicode="&#x1edd;" 
d="M465 288q0 90 -37 152q-44 75 -128 75q-87 0 -131 -76q-37 -63 -37 -156q0 -89 38 -152q44 -75 127 -77q87 -2 132 77q36 63 36 157zM405 561q61 2 60 10t-11.5 23.5t-10.5 24.5q0 19 16 34t35 15q21 0 36.5 -15.5t15.5 -36.5q0 -27 -31 -48q-16 -11 -64 -33
q108 -77 108 -254q0 -123 -65 -205q-71 -88 -191 -89q-130 -1 -200 90q-62 82 -63 216q-1 124 67 204q72 84 194 84q56 0 104 -20zM325 630h-50l-117 118v8h79z" />
    <glyph glyph-name="glyph343" unicode="&#x1ede;" horiz-adv-x="839" 
d="M676 398q1 139 -58 226q-68 101 -201 101t-198 -103q-55 -86 -56 -227q-1 -140 55 -229q66 -106 199 -107q136 -1 203 106q55 89 56 233zM571 767q64 -17 93 -17q11 0 10 4q-1 8 -11.5 23.5t-10.5 24.5q0 19 16 34t35 15q23 0 38 -16.5t15 -39.5q0 -49 -103 -80
q16 -16 27 -28q98 -107 98 -292q0 -181 -86 -289q-93 -118 -270 -119q-178 -1 -273 118q-87 108 -88 291q-1 176 90 284q96 115 269 116q81 0 151 -29zM427 891l15 14q17 16 21 25q4 6 6 25q0 44 -42 45q-38 1 -46 -49l-24 10q6 71 77 71q73 0 75 -68q1 -34 -32 -65l-15 -14
q-20 -19 -20 -59h-43q0 39 28 65z" />
    <glyph glyph-name="glyph344" unicode="&#x1edf;" 
d="M465 288q0 90 -37 152q-44 75 -128 75q-87 0 -131 -76q-37 -63 -37 -156q0 -89 38 -152q44 -75 127 -77q87 -2 132 77q36 63 36 157zM405 561q61 2 60 10t-11.5 23.5t-10.5 24.5q0 19 16 34t35 15q21 0 36.5 -15.5t15.5 -36.5q0 -27 -31 -48q-16 -11 -64 -33
q108 -77 108 -254q0 -123 -65 -205q-71 -88 -191 -89q-130 -1 -200 90q-62 82 -63 216q-1 124 67 204q72 84 194 84q56 0 104 -20zM308 686l15 14q17 16 21 25q4 6 6 25q0 44 -42 45q-38 1 -46 -49l-24 10q6 71 77 71q73 0 75 -68q1 -34 -32 -65l-15 -14q-20 -19 -20 -59
h-43q0 39 28 65z" />
    <glyph glyph-name="glyph345" unicode="&#x1ee0;" horiz-adv-x="839" 
d="M676 398q1 139 -58 226q-68 101 -201 101t-198 -103q-55 -86 -56 -227q-1 -140 55 -229q66 -106 199 -107q136 -1 203 106q55 89 56 233zM571 767q64 -17 93 -17q11 0 10 4q-1 8 -11.5 23.5t-10.5 24.5q0 19 16 34t35 15q23 0 38 -16.5t15 -39.5q0 -49 -103 -80
q16 -16 27 -28q98 -107 98 -292q0 -181 -86 -289q-93 -118 -270 -119q-178 -1 -273 118q-87 108 -88 291q-1 176 90 284q96 115 269 116q81 0 151 -29zM565 927q-9 -33 -36 -60q-30 -30 -62 -31q-15 0 -24 5q-7 1 -48 29q-5 3 -29 8q-34 -1 -53 -47h-35q10 36 36 62
q30 30 64 31q18 1 26 -4l46 -26q21 -12 32 -12q26 1 47 45h36z" />
    <glyph glyph-name="glyph346" unicode="&#x1ee1;" 
d="M465 288q0 90 -37 152q-44 75 -128 75q-87 0 -131 -76q-37 -63 -37 -156q0 -89 38 -152q44 -75 127 -77q87 -2 132 77q36 63 36 157zM405 561q61 2 60 10t-11.5 23.5t-10.5 24.5q0 19 16 34t35 15q21 0 36.5 -15.5t15.5 -36.5q0 -27 -31 -48q-16 -11 -64 -33
q108 -77 108 -254q0 -123 -65 -205q-71 -88 -191 -89q-130 -1 -200 90q-62 82 -63 216q-1 124 67 204q72 84 194 84q56 0 104 -20zM446 721q-9 -33 -36 -60q-30 -30 -62 -31q-15 0 -24 5q-7 1 -48 29q-5 3 -29 8q-34 -1 -53 -47h-35q10 36 36 62q30 30 64 31q18 1 26 -4
l46 -26q21 -12 32 -12q26 1 47 45h36z" />
    <glyph glyph-name="glyph347" unicode="&#x1ee2;" horiz-adv-x="839" 
d="M676 398q1 139 -58 226q-68 101 -201 101t-198 -103q-55 -86 -56 -227q-1 -140 55 -229q66 -106 199 -107q136 -1 203 106q55 89 56 233zM571 767q64 -17 93 -17q11 0 10 4q-1 8 -11.5 23.5t-10.5 24.5q0 19 16 34t35 15q23 0 38 -16.5t15 -39.5q0 -49 -103 -80
q16 -16 27 -28q98 -107 98 -292q0 -181 -86 -289q-93 -118 -270 -119q-178 -1 -273 118q-87 108 -88 291q-1 176 90 284q96 115 269 116q81 0 151 -29zM471 -147h-94v92l45 2l49 -2v-92z" />
    <glyph glyph-name="glyph348" unicode="&#x1ee3;" 
d="M465 288q0 90 -37 152q-44 75 -128 75q-87 0 -131 -76q-37 -63 -37 -156q0 -89 38 -152q44 -75 127 -77q87 -2 132 77q36 63 36 157zM405 561q61 2 60 10t-11.5 23.5t-10.5 24.5q0 19 16 34t35 15q21 0 36.5 -15.5t15.5 -36.5q0 -27 -31 -48q-16 -11 -64 -33
q108 -77 108 -254q0 -123 -65 -205q-71 -88 -191 -89q-130 -1 -200 90q-62 82 -63 216q-1 124 67 204q72 84 194 84q56 0 104 -20zM352 -156h-94v92l45 1l49 -1v-92z" />
    <glyph glyph-name="glyph349" unicode="&#x1ee4;" horiz-adv-x="779" 
d="M762 699h-96v-385q0 -139 -47 -211q-75 -116 -224 -117q-150 -1 -230 104q-54 71 -54 196v413h-95v69h306v-69h-116v-422q0 -94 45 -151q49 -62 141 -64q98 -2 148 73q43 64 43 167v397h-113v69h292v-69zM444 -148h-94v92l45 2l49 -2v-92z" />
    <glyph glyph-name="glyph350" unicode="&#x1ee5;" horiz-adv-x="659" 
d="M631 0h-174v124q-9 -67 -59 -103q-46 -33 -116 -33q-172 0 -172 216v294h-88v64h177v-357q0 -149 108 -151q75 -1 114 67q31 56 31 137v240h-94v64h182v-494h91v-68zM375 -154h-94v92l45 1l49 -1v-92z" />
    <glyph glyph-name="glyph351" unicode="&#x1ee6;" horiz-adv-x="779" 
d="M762 699h-96v-385q0 -139 -47 -211q-75 -116 -224 -117q-150 -1 -230 104q-54 71 -54 196v413h-95v69h306v-69h-116v-422q0 -94 45 -151q49 -62 141 -64q98 -2 148 73q43 64 43 167v397h-113v69h292v-69zM403 843l15 14q17 16 21 25q4 6 6 25q0 44 -42 45q-38 1 -46 -49
l-24 10q6 71 77 71q73 0 75 -68q1 -34 -32 -65l-15 -14q-20 -19 -20 -59h-43q0 39 28 65z" />
    <glyph glyph-name="glyph352" unicode="&#x1ee7;" horiz-adv-x="659" 
d="M631 0h-174v124q-9 -67 -59 -103q-46 -33 -116 -33q-172 0 -172 216v294h-88v64h177v-357q0 -149 108 -151q75 -1 114 67q31 56 31 137v240h-94v64h182v-494h91v-68zM333 655l15 14q17 16 21 25q4 6 6 25q0 44 -42 45q-38 1 -46 -49l-24 10q6 71 77 71q73 0 75 -68
q1 -34 -32 -65l-15 -14q-20 -19 -20 -59h-43q0 39 28 65z" />
    <glyph glyph-name="glyph353" unicode="&#x1ee8;" horiz-adv-x="779" 
d="M733 754q-1 8 -11.5 23t-10.5 25q0 19 16 34t35 15q21 0 36.5 -15.5t15.5 -36.5q0 -28 -34 -50q-16 -10 -68 -34q-11 -5 -46 -16v-385q0 -139 -47 -211q-75 -116 -224 -117q-150 -1 -230 104q-54 71 -54 196v413h-95v69h306v-69h-116v-422q0 -94 45 -151q49 -62 141 -64
q98 -2 148 73q43 64 43 167v397h-113v69q38 1 106 -4q51 -4 106 -10q50 -5 42 -5q10 0 9 5zM539 906l-117 -118h-50l88 126h79v-8z" />
    <glyph glyph-name="glyph354" unicode="&#x1ee9;" horiz-adv-x="659" 
d="M524 562q42 0 41 9q-1 8 -11.5 23.5t-10.5 24.5q0 19 16 34t35 15q21 0 36.5 -15.5t15.5 -36.5q0 -28 -34 -50l-72 -36v-462h91v-68h-174v124q-9 -67 -59 -103q-46 -33 -116 -33q-172 0 -172 216v294h-88v64h177v-357q0 -149 108 -151q75 -1 114 67q31 56 31 137v240h-94
v64h166zM470 718l-117 -118h-50l88 126h79v-8z" />
    <glyph glyph-name="glyph355" unicode="&#x1eea;" horiz-adv-x="779" 
d="M733 754q-1 8 -11.5 23t-10.5 25q0 19 16 34t35 15q21 0 36.5 -15.5t15.5 -36.5q0 -28 -34 -50q-16 -10 -68 -34q-11 -5 -46 -16v-385q0 -139 -47 -211q-75 -116 -224 -117q-150 -1 -230 104q-54 71 -54 196v413h-95v69h306v-69h-116v-422q0 -94 45 -151q49 -62 141 -64
q98 -2 148 73q43 64 43 167v397h-113v69q38 1 106 -4q51 -4 106 -10q50 -5 42 -5q10 0 9 5zM420 788h-50l-117 118v8h79z" />
    <glyph glyph-name="glyph356" unicode="&#x1eeb;" horiz-adv-x="659" 
d="M524 562q42 0 41 9q-1 8 -11.5 23.5t-10.5 24.5q0 19 16 34t35 15q21 0 36.5 -15.5t15.5 -36.5q0 -28 -34 -50l-72 -36v-462h91v-68h-174v124q-9 -67 -59 -103q-46 -33 -116 -33q-172 0 -172 216v294h-88v64h177v-357q0 -149 108 -151q75 -1 114 67q31 56 31 137v240h-94
v64h166zM350 600h-50l-117 118v8h79z" />
    <glyph glyph-name="glyph357" unicode="&#x1eec;" horiz-adv-x="779" 
d="M733 754q-1 8 -11.5 23t-10.5 25q0 19 16 34t35 15q21 0 36.5 -15.5t15.5 -36.5q0 -28 -34 -50q-16 -10 -68 -34q-11 -5 -46 -16v-385q0 -139 -47 -211q-75 -116 -224 -117q-150 -1 -230 104q-54 71 -54 196v413h-95v69h306v-69h-116v-422q0 -94 45 -151q49 -62 141 -64
q98 -2 148 73q43 64 43 167v397h-113v69q38 1 106 -4q51 -4 106 -10q50 -5 42 -5q10 0 9 5zM403 843l15 14q17 16 21 25q4 6 6 25q0 44 -42 45q-38 1 -46 -49l-24 10q6 71 77 71q73 0 75 -68q1 -34 -32 -65l-15 -14q-20 -19 -20 -59h-43q0 39 28 65z" />
    <glyph glyph-name="glyph358" unicode="&#x1eed;" horiz-adv-x="659" 
d="M524 562q42 0 41 9q-1 8 -11.5 23.5t-10.5 24.5q0 19 16 34t35 15q21 0 36.5 -15.5t15.5 -36.5q0 -28 -34 -50l-72 -36v-462h91v-68h-174v124q-9 -67 -59 -103q-46 -33 -116 -33q-172 0 -172 216v294h-88v64h177v-357q0 -149 108 -151q75 -1 114 67q31 56 31 137v240h-94
v64h166zM333 655l15 14q17 16 21 25q4 6 6 25q0 44 -42 45q-38 1 -46 -49l-24 10q6 71 77 71q73 0 75 -68q1 -34 -32 -65l-15 -14q-20 -19 -20 -59h-43q0 39 28 65z" />
    <glyph glyph-name="glyph359" unicode="&#x1eee;" horiz-adv-x="779" 
d="M733 754q-1 8 -11.5 23t-10.5 25q0 19 16 34t35 15q21 0 36.5 -15.5t15.5 -36.5q0 -28 -34 -50q-16 -10 -68 -34q-11 -5 -46 -16v-385q0 -139 -47 -211q-75 -116 -224 -117q-150 -1 -230 104q-54 71 -54 196v413h-95v69h306v-69h-116v-422q0 -94 45 -151q49 -62 141 -64
q98 -2 148 73q43 64 43 167v397h-113v69q38 1 106 -4q51 -4 106 -10q50 -5 42 -5q10 0 9 5zM541 894q-9 -33 -36 -60q-30 -30 -62 -31q-15 0 -24 5q-7 1 -48 29q-5 3 -29 8q-34 -1 -53 -47h-35q10 36 36 62q30 30 64 31q18 1 26 -4l46 -26q21 -12 32 -12q26 1 47 45h36z" />
    <glyph glyph-name="glyph360" unicode="&#x1eef;" horiz-adv-x="659" 
d="M524 562q42 0 41 9q-1 8 -11.5 23.5t-10.5 24.5q0 19 16 34t35 15q21 0 36.5 -15.5t15.5 -36.5q0 -28 -34 -50l-72 -36v-462h91v-68h-174v124q-9 -67 -59 -103q-46 -33 -116 -33q-172 0 -172 216v294h-88v64h177v-357q0 -149 108 -151q75 -1 114 67q31 56 31 137v240h-94
v64h166zM471 691q-9 -33 -36 -60q-30 -30 -62 -31q-15 0 -24 5q-7 1 -48 29q-5 3 -29 8q-34 -1 -53 -47h-35q10 36 36 62q30 30 64 31q18 1 26 -4l46 -26q21 -12 32 -12q26 1 47 45h36z" />
    <glyph glyph-name="glyph361" unicode="&#x1ef0;" horiz-adv-x="779" 
d="M733 754q-1 8 -11.5 23t-10.5 25q0 19 16 34t35 15q21 0 36.5 -15.5t15.5 -36.5q0 -28 -34 -50q-16 -10 -68 -34q-11 -5 -46 -16v-385q0 -139 -47 -211q-75 -116 -224 -117q-150 -1 -230 104q-54 71 -54 196v413h-95v69h306v-69h-116v-422q0 -94 45 -151q49 -62 141 -64
q98 -2 148 73q43 64 43 167v397h-113v69q38 1 106 -4q51 -4 106 -10q50 -5 42 -5q10 0 9 5zM444 -148h-94v92l45 2l49 -2v-92z" />
    <glyph glyph-name="glyph362" unicode="&#x1ef1;" horiz-adv-x="659" 
d="M524 562q42 0 41 9q-1 8 -11.5 23.5t-10.5 24.5q0 19 16 34t35 15q21 0 36.5 -15.5t15.5 -36.5q0 -28 -34 -50l-72 -36v-462h91v-68h-174v124q-9 -67 -59 -103q-46 -33 -116 -33q-172 0 -172 216v294h-88v64h177v-357q0 -149 108 -151q75 -1 114 67q31 56 31 137v240h-94
v64h166zM375 -154h-94v92l45 1l49 -1v-92z" />
    <glyph glyph-name="glyph363" unicode="&#x1ef2;" horiz-adv-x="720" 
d="M705 701h-61l-239 -384v-246h119v-71h-332v71h119v246l-237 384h-58v68h271v-68h-104l181 -301l179 301h-101v68h263v-68zM388 772h-50l-117 118v8h79z" />
    <glyph glyph-name="glyph364" unicode="&#x1ef3;" 
d="M583 496h-48l-189 -513q-32 -87 -59 -120q-41 -50 -116 -50q-44 0 -66 7v71q36 -8 56 -8q37 -1 54 19q12 10 28 46q15 33 18 51l-188 497h-53v64h238v-64h-87l128 -355q10 -28 10 -46q3 21 18 64l116 337h-88v64h228v-64zM330 580h-50l-117 118v8h79z" />
    <glyph glyph-name="glyph365" unicode="&#x1ef4;" horiz-adv-x="720" 
d="M705 701h-61l-239 -384v-246h119v-71h-332v71h119v246l-237 384h-58v68h271v-68h-104l181 -301l179 301h-101v68h263v-68zM405 -134h-94v92l45 2l49 -2v-92z" />
    <glyph glyph-name="glyph366" unicode="&#x1ef5;" 
d="M583 496h-48l-189 -513q-32 -87 -59 -120q-41 -50 -116 -50q-44 0 -66 7v71q36 -8 56 -8q37 -1 54 19q12 10 28 46q15 33 18 51l-188 497h-53v64h238v-64h-87l128 -355q10 -28 10 -46q3 21 18 64l116 337h-88v64h228v-64zM464 -154h-94v92l45 1l49 -1v-92z" />
    <glyph glyph-name="glyph367" unicode="&#x1ef6;" horiz-adv-x="720" 
d="M705 701h-61l-239 -384v-246h119v-71h-332v71h119v246l-237 384h-58v68h271v-68h-104l181 -301l179 301h-101v68h263v-68zM371 827l15 14q17 16 21 25q4 6 6 25q0 44 -42 45q-38 1 -46 -49l-24 10q6 71 77 71q73 0 75 -68q1 -34 -32 -65l-15 -14q-20 -19 -20 -59h-43
q0 39 28 65z" />
    <glyph glyph-name="glyph368" unicode="&#x1ef7;" 
d="M583 496h-48l-189 -513q-32 -87 -59 -120q-41 -50 -116 -50q-44 0 -66 7v71q36 -8 56 -8q37 -1 54 19q12 10 28 46q15 33 18 51l-188 497h-53v64h238v-64h-87l128 -355q10 -28 10 -46q3 21 18 64l116 337h-88v64h228v-64zM313 635l15 14q17 16 21 25q4 6 6 25
q0 44 -42 45q-38 1 -46 -49l-24 10q6 71 77 71q73 0 75 -68q1 -34 -32 -65l-15 -14q-20 -19 -20 -59h-43q0 39 28 65z" />
    <glyph glyph-name="glyph369" unicode="&#x1ef8;" horiz-adv-x="720" 
d="M705 701h-61l-239 -384v-246h119v-71h-332v71h119v246l-237 384h-58v68h271v-68h-104l181 -301l179 301h-101v68h263v-68zM509 884q-9 -33 -36 -60q-30 -30 -62 -31q-15 0 -24 5q-7 1 -48 29q-5 3 -29 8q-34 -1 -53 -47h-35q10 36 36 62q30 30 64 31q18 1 26 -4l46 -26
q21 -12 32 -12q26 1 47 45h36z" />
    <glyph glyph-name="glyph370" unicode="&#x1ef9;" 
d="M583 496h-48l-189 -513q-32 -87 -59 -120q-41 -50 -116 -50q-44 0 -66 7v71q36 -8 56 -8q37 -1 54 19q12 10 28 46q15 33 18 51l-188 497h-53v64h238v-64h-87l128 -355q10 -28 10 -46q3 21 18 64l116 337h-88v64h228v-64zM451 681q-9 -33 -36 -60q-30 -30 -62 -31
q-15 0 -24 5q-7 1 -48 29q-5 3 -29 8q-34 -1 -53 -47h-35q10 36 36 62q30 30 64 31q18 1 26 -4l46 -26q21 -12 32 -12q26 1 47 45h36z" />
  </font>
</defs>
</svg>
